<svg xmlns="http://www.w3.org/2000/svg" xmlns:xlink="http://www.w3.org/1999/xlink" width="500"
    zoomAndPan="magnify" viewBox="0 0 375 374.999991" height="500"
    preserveAspectRatio="xMidYMid meet" version="1.0">
    <style>
        path {
        stroke: #000000;
        stroke-width: 15;
        stroke-linejoin: round;
        stroke-linecap: round;
        stroke-miterlimit: 10;
        fill: none;
        stroke-opacity: 1;
        }
    </style>
    <rect x=" 0" y=" 0
    " width=" 100%" height=" 100%" rx=" 100" fill=" #FFB900" />
    <path
        transform=" matrix(0.696554, 0.278051, -0.278051, 0.696554, 54.236607, 219.832339)"
        d=" M -0.000366789 0.498813 L 191.518319 0.501553 " />
    <path
        transform=" matrix(-0.696554, 0.278051, -0.278051, -0.696554, 321.039943, 220.528886)"
        d=" M -0.00222144 0.500437 L 191.516462 0.497704 " />
    <path
        transform=" matrix(0.687406, 0.299955, -0.299955, 0.687406, 120.948724, 193.211075)"
        d=" M -0.00233501 0.500887 L 97.033156 0.499673 " />
    <path
        transform=" matrix(-0.687406, 0.299955, -0.299955, -0.687406, 254.349744, 193.898469)"
        d=" M 0.000627152 0.500388 L 97.031344 0.499519 " />
    <path
        transform=" matrix(0.690095, 0.293716, -0.293716, 0.690095, 87.594666, 126.646852)"
        d=" M 0.0018817 0.499617 L 144.417526 0.500668 " />
    <path
        transform=" matrix(-0.690911, 0.29179, -0.29179, -0.690911, 287.687623, 127.337351)"
        d=" M -0.00137242 0.498997 L 145.373319 0.500412 " />
    <path
        transform=" matrix(0, 0.75, -0.75, 0, 87.818159, 126.994928)"
        d=" M 0.00155372 0.502337 L 70.261975 0.502337 " />
    <path
        transform=" matrix(0.000000001309, 0.75, -0.75, 0.000000001309, 287.925924, 126.990724)"
        d=" M 0.00195178 0.50019 L 71.001956 0.50019 " />
    <path
        transform=" matrix(0, 0.75, -0.75, 0, 54.471995, 180.242187)"
        d=" M 0.00000124787 0.499118 L 53.250005 0.499118 " />
    <path
        transform=" matrix(0.000000001309, 0.75, -0.75, 0.000000001309, 321.276691, 180.242187)"
        d=" M 0.000001247 0.49913 L 53.250005 0.49913 " />
</svg>