<svg xmlns="http://www.w3.org/2000/svg" viewBox="0 0 500 500">
  <rect x="0" y="0" width="500" height="500" rx="100" fill="#000"/>
  <path fill="#FFB900" transform="scale(0.85) translate(37.5,37.5)" d="M178 459.2c-20.495 0-40.49.057-60.484-.016-32.248-.117-55.325-23.15-55.53-55.496-.126-19.66.07-39.324-.114-58.983-.036-3.912 1.03-5.139 5.033-5.094 18.326.202 36.655.088 54.984.088h5.866V43.255l30.689 30.738 30.848-31.53 31.571 31.91 32.121-32.431 30.65 31.955 31.172-31.675 31.317 31.653 31.72-31.981 30.58 32.609 29.957-30.858 1.287.59c.126 1.357.361 2.713.361 4.069.015 118.467-.189 236.936.148 355.403.084 29.655-24.028 55.968-56.233 55.679-68.476-.614-136.962-.187-205.943-.186m-18.803-335.7c0 69.976.055 139.952-.117 209.928-.013 5.038 1.202 6.411 6.33 6.396 63.31-.185 126.622-.124 189.934-.107 2.08 0 4.159.206 6.616.335v6.485c.016 19.66-.232 39.324.12 58.978.386 21.536 23.084 27.132 36.304 18.942 8.53-5.285 10.508-13.59 10.506-22.872-.024-100.3-.014-200.598-.014-300.898v-5.453h-249.68V123.5M197.5 428.046h132.915v-56.727H93.128c0 10.403-.028 20.376.007 30.35.062 17.758 8.676 26.363 26.4 26.373 25.655.015 51.31.004 77.965.004zM281.799 285.284c-17.356-33.162-44.234-52.31-82.466-57.11 52.269-9.263 82.378-39.083 92.586-90.504 9.895 51.096 40.005 81.115 91.31 90.263-51.239 8.814-81.023 38.646-90.93 88.192-3.34-9.856-6.839-20.18-10.5-30.84zM234.628 170.645c-4.09 6.374-7.929 12.492-11.71 18.518-4.526-16.909-15.995-27.464-34.548-31.625 19.461-4.534 31.086-15.681 35.23-35.495 4.517 19.863 16.196 31.48 36.253 35.503-10.216 1.879-18.507 5.667-25.225 13.099z"/>
</svg>