<svg version="1.1" id="Layer_1" xmlns="http://www.w3.org/2000/svg"
	xmlns:xlink="http://www.w3.org/1999/xlink" x="0px" y="0px"
	width="100%" viewBox="0 0 500 500" enable-background="new 0 0 500 500" xml:space="preserve">
<g fill="#FFFFFF">
<path opacity="1.000000" stroke="none" 
	d="
M1.000000,193.000000 
	C1.000000,128.682602 1.000000,64.865211 1.000000,1.023907 
	C167.609100,1.023907 334.218231,1.023907 500.913666,1.023907 
	C500.913666,167.567459 500.913666,334.134979 500.913666,500.851257 
	C334.333435,500.851257 167.666733,500.851257 1.000000,500.851257 
	C1.000000,398.448303 1.000000,295.974152 1.000000,193.000000 
M178.500000,459.199951 
	C246.981400,459.199341 315.466644,458.771515 383.942505,459.385895 
	C416.147583,459.674866 440.259827,433.362488 440.175629,403.706818 
	C439.839325,285.239899 440.042511,166.771408 440.028473,48.303505 
	C440.028290,46.947533 439.792847,45.591587 439.667206,44.235630 
	C439.238129,44.038837 438.809021,43.842049 438.379913,43.645260 
	C428.676331,53.640709 418.972748,63.636154 408.423370,74.502846 
	C398.074493,63.467533 388.236542,52.977055 377.842621,41.893703 
	C366.685852,53.142410 356.636078,63.274998 346.123108,73.874596 
	C335.746063,63.386147 325.603912,53.135101 314.806244,42.221527 
	C304.234711,52.963795 294.122894,63.238934 283.634613,73.896591 
	C273.386017,63.211960 263.510376,52.916180 252.984039,41.941982 
	C241.912445,53.120495 231.792953,63.337711 220.863342,74.372864 
	C210.331497,63.728191 200.202927,53.491119 189.292068,42.463375 
	C179.190552,52.787876 169.225540,62.972862 158.443878,73.992523 
	C148.366669,63.899296 138.382309,53.899063 127.754829,43.254677 
	C127.754829,142.510635 127.754829,240.895706 127.754829,339.699219 
	C125.497177,339.699219 123.692924,339.699188 121.888664,339.699188 
	C103.560295,339.699280 85.230682,339.812775 66.904549,339.610535 
	C62.901768,339.566376 61.835701,340.793182 61.872322,344.704620 
	C62.056381,364.364258 61.860439,384.027130 61.985535,403.687683 
	C62.191341,436.033051 85.267845,459.066650 117.516296,459.184082 
	C137.510620,459.256897 157.505417,459.199280 178.500000,459.199951 
z"/>
</g>
<g fill="#5A86E1">
<path opacity="1.000000" stroke="none" 
	d="
M178.000000,459.200073 
	C157.505417,459.199280 137.510620,459.256897 117.516296,459.184082 
	C85.267845,459.066650 62.191341,436.033051 61.985535,403.687683 
	C61.860439,384.027130 62.056381,364.364258 61.872322,344.704620 
	C61.835701,340.793182 62.901768,339.566376 66.904549,339.610535 
	C85.230682,339.812775 103.560295,339.699280 121.888664,339.699188 
	C123.692924,339.699188 125.497177,339.699219 127.754829,339.699219 
	C127.754829,240.895706 127.754829,142.510635 127.754829,43.254677 
	C138.382309,53.899063 148.366669,63.899296 158.443878,73.992523 
	C169.225540,62.972862 179.190552,52.787876 189.292068,42.463375 
	C200.202927,53.491119 210.331497,63.728191 220.863342,74.372864 
	C231.792953,63.337711 241.912445,53.120495 252.984039,41.941982 
	C263.510376,52.916180 273.386017,63.211960 283.634613,73.896591 
	C294.122894,63.238934 304.234711,52.963795 314.806244,42.221527 
	C325.603912,53.135101 335.746063,63.386147 346.123108,73.874596 
	C356.636078,63.274998 366.685852,53.142410 377.842621,41.893703 
	C388.236542,52.977055 398.074493,63.467533 408.423370,74.502846 
	C418.972748,63.636154 428.676331,53.640709 438.379913,43.645260 
	C438.809021,43.842049 439.238129,44.038837 439.667206,44.235630 
	C439.792847,45.591587 440.028290,46.947533 440.028473,48.303505 
	C440.042511,166.771408 439.839325,285.239899 440.175629,403.706818 
	C440.259827,433.362488 416.147583,459.674866 383.942505,459.385895 
	C315.466644,458.771515 246.981400,459.199341 178.000000,459.200073 
z"/>
</g>
<g fill="#FEFEFF">
<path opacity="1.000000" stroke="none" 
	d="
M159.196640,122.999985 
	C159.196762,113.534195 159.196762,104.568405 159.196762,95.233810 
	C242.490036,95.233810 325.341705,95.233810 408.875977,95.233810 
	C408.875977,97.139252 408.875977,98.913338 408.875977,100.687424 
	C408.875641,200.986588 408.866241,301.285767 408.890137,401.584930 
	C408.892365,410.866852 406.914856,419.172424 398.383667,424.457397 
	C385.164398,432.646637 362.466156,427.050720 362.080017,405.514648 
	C361.727661,385.860931 361.976135,366.196442 361.960236,346.536682 
	C361.958649,344.564087 361.959991,342.591492 361.959991,340.051971 
	C359.502808,339.922516 357.423523,339.717804 355.344208,339.717224 
	C292.032440,339.700287 228.720474,339.638916 165.409241,339.824432 
	C160.281509,339.839447 159.067444,338.465759 159.079849,333.428223 
	C159.252167,263.452454 159.196487,193.476151 159.196640,122.999985 
z"/>
</g>
<g fill="#FEFFFF">
<path opacity="1.000000" stroke="none" 
	d="
M197.000000,428.045959 
	C170.845001,428.045898 145.189987,428.056763 119.534988,428.042053 
	C101.810890,428.031891 93.196617,419.427307 93.134750,401.668152 
	C93.100006,391.695129 93.128494,381.721863 93.128494,371.319031 
	C172.346298,371.319031 251.193054,371.319031 330.415222,371.319031 
	C330.415222,389.986969 330.415222,408.701508 330.415222,428.045929 
	C286.004547,428.045929 241.752274,428.045929 197.000000,428.045959 
z"/>
</g>
<g fill="#5B86E1">
<path opacity="1.000000" stroke="none" 
	d="
M281.798553,285.284241 
	C264.443298,252.122467 237.564621,232.973816 199.333359,228.174454 
	C251.601791,218.911331 281.710815,189.090744 291.919128,137.670334 
	C301.814331,188.765717 331.924194,218.784668 383.228638,227.933426 
	C331.990234,236.746674 302.205963,266.578888 292.298950,316.124542 
	C288.959015,306.269318 285.460144,295.945099 281.798553,285.284241 
z"/>
<path opacity="1.000000" stroke="none" 
	d="
M234.628067,170.644714 
	C230.538589,177.019012 226.699249,183.137131 222.917755,189.163071 
	C218.391937,172.254242 206.923462,161.698624 188.369965,157.538345 
	C207.831467,153.003876 219.456497,141.856918 223.600174,122.043121 
	C228.116837,141.905502 239.796402,153.522781 259.852692,157.546326 
	C249.637253,159.424911 241.345871,163.212875 234.628067,170.644714 
z"/></g>
<g fill="#5E88E2">

</g>
</svg>