<svg version="1.1" id="Layer_1" xmlns="http://www.w3.org/2000/svg"
	xmlns:xlink="http://www.w3.org/1999/xlink" x="0px" y="0px"
	width="100%" viewBox="0 0 1144 713" enable-background="new 0 0 1144 713" xml:space="preserve">
<path fill="#FFB900" opacity="1.000000" stroke="none" 
	d="
M841.000000,714.000000 
	C560.666687,714.000000 280.833374,714.000000 1.000038,714.000000 
	C1.000025,476.333374 1.000025,238.666733 1.000013,1.000070 
	C382.333282,1.000046 763.666565,1.000046 1145.000000,1.000023 
	C1145.000000,238.666611 1145.000000,476.333221 1145.000000,713.999878 
	C1043.833374,714.000000 942.666687,714.000000 841.000000,714.000000 
M664.238953,692.984009 
	C665.335449,692.656677 666.411194,692.185913 667.531616,692.024475 
	C677.097961,690.645935 686.697632,689.478699 696.235657,687.930054 
	C702.661621,686.886780 708.996033,685.288940 715.385986,684.012146 
	C721.630249,682.764465 727.937317,681.801147 734.136780,680.366760 
	C742.552002,678.419739 750.886292,676.124207 759.264282,674.013855 
	C766.681946,672.145447 774.225220,670.686890 781.509888,668.400391 
	C792.531921,664.940857 803.447998,661.109619 814.282288,657.094299 
	C832.407227,650.377075 850.660278,643.928467 868.445801,636.390991 
	C895.546936,624.905457 921.274658,610.609680 946.065613,594.806641 
	C974.147461,576.905823 1001.081055,557.300293 1024.762451,533.757996 
	C1039.451782,519.155090 1053.792969,504.076721 1066.991943,488.136505 
	C1079.250122,473.332489 1089.573608,456.939240 1097.895142,439.501007 
	C1103.884888,426.949249 1110.336914,414.461212 1114.652100,401.311157 
	C1119.009521,388.032806 1121.404419,374.047241 1123.846558,360.227936 
	C1125.249390,352.289734 1125.470215,344.064819 1125.440918,335.971802 
	C1125.406982,326.565674 1124.875732,317.124207 1123.873535,307.771667 
	C1123.199463,301.481964 1121.541138,295.266144 1119.944946,289.115417 
	C1118.247437,282.574158 1116.909546,275.750549 1113.955566,269.771057 
	C1110.051514,261.868469 1105.263550,254.255630 1099.886963,247.263016 
	C1092.368042,237.484100 1081.681763,231.940109 1069.677490,230.158447 
	C1054.254883,227.869446 1040.020264,232.538223 1027.434204,241.238281 
	C1012.158691,251.797577 997.326843,263.007538 982.450439,274.133148 
	C963.660522,288.185516 945.472168,303.093109 926.178284,316.405579 
	C909.120972,328.174744 890.913391,338.278534 873.189270,349.077667 
	C870.066650,350.980255 868.864502,349.865967 868.491455,346.308441 
	C867.139587,333.418335 865.759277,320.521942 863.919495,307.695343 
	C862.582825,298.375641 860.961365,289.045898 858.638062,279.931824 
	C855.918945,269.264801 852.480408,258.767670 849.029114,248.303955 
	C844.047119,233.199432 839.350159,217.961700 833.479248,203.199341 
	C825.922058,184.196991 817.260376,165.635925 809.196655,146.832336 
	C803.910583,134.505798 798.717407,122.136185 793.705811,109.695908 
	C787.668152,94.708359 782.456604,79.356850 775.766785,64.673454 
	C770.882507,53.952908 765.363281,43.103573 758.007141,34.030464 
	C748.275513,22.027416 734.115784,16.446190 719.108093,12.623475 
	C701.119019,8.041342 684.207825,10.970449 668.114929,18.637512 
	C655.089783,24.842966 644.789551,34.975277 636.447937,46.707058 
	C627.959167,58.645813 620.171997,71.081215 611.958069,83.218246 
	C606.155518,91.792206 598.900452,99.149200 589.165283,102.783592 
	C571.805237,109.264549 549.749634,103.050636 538.914551,88.065430 
	C532.232483,78.823952 525.863647,69.336433 519.748047,59.709190 
	C508.467621,41.951378 496.339142,25.101316 475.658325,17.266960 
	C468.878876,14.698748 461.868469,12.252327 454.748291,11.179749 
	C442.441925,9.325916 430.242706,10.878965 418.417755,15.053747 
	C408.551147,18.537155 399.690887,23.553553 391.843323,30.567410 
	C380.793732,40.443115 375.334747,53.584778 370.058502,66.820267 
	C365.619965,77.954514 361.823425,89.344467 357.397064,100.483887 
	C353.168274,111.125999 348.463348,121.578171 344.021179,132.136337 
	C335.480713,152.435333 326.794647,172.675873 318.518616,193.082458 
	C312.077728,208.964050 305.712494,224.904999 300.163300,241.110519 
	C295.643799,254.308914 292.059540,267.857483 288.673645,281.404022 
	C286.255951,291.077087 284.464111,300.950378 283.103455,310.832153 
	C281.600616,321.746521 281.022583,332.785004 279.818726,343.744934 
	C279.134552,349.974030 278.930817,349.958038 273.086700,347.235016 
	C271.378082,346.438873 269.608582,345.731964 268.006165,344.755676 
	C251.905197,334.946075 235.454971,325.648315 219.852203,315.098480 
	C201.773804,302.874725 184.316269,289.713989 166.835220,276.631317 
	C152.260971,265.724060 138.220551,254.101685 123.608162,243.247757 
	C112.283653,234.836029 99.752373,229.507248 85.102478,229.911346 
	C67.519386,230.396347 53.532837,237.609756 43.472549,251.711624 
	C33.484528,265.712189 28.128870,281.481476 25.736807,298.708923 
	C23.230553,316.758789 21.136173,334.582733 22.830725,352.875183 
	C24.230974,367.990692 27.204235,382.743347 31.437935,397.164337 
	C39.814102,425.695465 53.886543,451.612640 70.744553,475.926086 
	C78.425949,487.004547 87.293602,497.308685 96.122429,507.532928 
	C112.677483,526.704590 130.950943,544.183777 151.123398,559.499817 
	C176.388123,578.682251 202.523529,596.630493 230.755035,611.268555 
	C249.352615,620.911377 267.844513,630.828247 286.885529,639.523743 
	C302.451111,646.632141 318.718536,652.222412 334.754700,658.274109 
	C343.080688,661.416138 351.493896,664.389771 360.023071,666.914612 
	C370.103302,669.898499 380.345612,672.337646 390.528351,674.971558 
	C398.415344,677.011719 406.267212,679.229553 414.228058,680.931763 
	C424.164825,683.056458 434.200897,684.714478 444.187408,686.609375 
	C451.749329,688.044250 459.255371,689.861816 466.868286,690.917847 
	C476.620270,692.270569 486.439301,693.220520 496.256531,694.005371 
	C516.714417,695.640869 537.169006,697.608398 557.664978,698.386841 
	C574.773560,699.036682 591.939026,698.186340 609.079346,698.000793 
	C609.745911,697.993591 610.417236,698.041992 611.078247,697.979370 
	C628.501526,696.326233 645.923645,694.661926 664.238953,692.984009 
z"/>
<path fill="#000000" opacity="1.000000" stroke="none" 
	d="
M663.792480,692.991760 
	C645.923645,694.661926 628.501526,696.326233 611.078247,697.979370 
	C610.417236,698.041992 609.745911,697.993591 609.079346,698.000793 
	C591.939026,698.186340 574.773560,699.036682 557.664978,698.386841 
	C537.169006,697.608398 516.714417,695.640869 496.256531,694.005371 
	C486.439301,693.220520 476.620270,692.270569 466.868286,690.917847 
	C459.255371,689.861816 451.749329,688.044250 444.187408,686.609375 
	C434.200897,684.714478 424.164825,683.056458 414.228058,680.931763 
	C406.267212,679.229553 398.415344,677.011719 390.528351,674.971558 
	C380.345612,672.337646 370.103302,669.898499 360.023071,666.914612 
	C351.493896,664.389771 343.080688,661.416138 334.754700,658.274109 
	C318.718536,652.222412 302.451111,646.632141 286.885529,639.523743 
	C267.844513,630.828247 249.352615,620.911377 230.755035,611.268555 
	C202.523529,596.630493 176.388123,578.682251 151.123398,559.499817 
	C130.950943,544.183777 112.677483,526.704590 96.122429,507.532928 
	C87.293602,497.308685 78.425949,487.004547 70.744553,475.926086 
	C53.886543,451.612640 39.814102,425.695465 31.437935,397.164337 
	C27.204235,382.743347 24.230974,367.990692 22.830725,352.875183 
	C21.136173,334.582733 23.230553,316.758789 25.736807,298.708923 
	C28.128870,281.481476 33.484528,265.712189 43.472549,251.711624 
	C53.532837,237.609756 67.519386,230.396347 85.102478,229.911346 
	C99.752373,229.507248 112.283653,234.836029 123.608162,243.247757 
	C138.220551,254.101685 152.260971,265.724060 166.835220,276.631317 
	C184.316269,289.713989 201.773804,302.874725 219.852203,315.098480 
	C235.454971,325.648315 251.905197,334.946075 268.006165,344.755676 
	C269.608582,345.731964 271.378082,346.438873 273.086700,347.235016 
	C278.930817,349.958038 279.134552,349.974030 279.818726,343.744934 
	C281.022583,332.785004 281.600616,321.746521 283.103455,310.832153 
	C284.464111,300.950378 286.255951,291.077087 288.673645,281.404022 
	C292.059540,267.857483 295.643799,254.308914 300.163300,241.110519 
	C305.712494,224.904999 312.077728,208.964050 318.518616,193.082458 
	C326.794647,172.675873 335.480713,152.435333 344.021179,132.136337 
	C348.463348,121.578171 353.168274,111.125999 357.397064,100.483887 
	C361.823425,89.344467 365.619965,77.954514 370.058502,66.820267 
	C375.334747,53.584778 380.793732,40.443115 391.843323,30.567410 
	C399.690887,23.553553 408.551147,18.537155 418.417755,15.053747 
	C430.242706,10.878965 442.441925,9.325916 454.748291,11.179749 
	C461.868469,12.252327 468.878876,14.698748 475.658325,17.266960 
	C496.339142,25.101316 508.467621,41.951378 519.748047,59.709190 
	C525.863647,69.336433 532.232483,78.823952 538.914551,88.065430 
	C549.749634,103.050636 571.805237,109.264549 589.165283,102.783592 
	C598.900452,99.149200 606.155518,91.792206 611.958069,83.218246 
	C620.171997,71.081215 627.959167,58.645813 636.447937,46.707058 
	C644.789551,34.975277 655.089783,24.842966 668.114929,18.637512 
	C684.207825,10.970449 701.119019,8.041342 719.108093,12.623475 
	C734.115784,16.446190 748.275513,22.027416 758.007141,34.030464 
	C765.363281,43.103573 770.882507,53.952908 775.766785,64.673454 
	C782.456604,79.356850 787.668152,94.708359 793.705811,109.695908 
	C798.717407,122.136185 803.910583,134.505798 809.196655,146.832336 
	C817.260376,165.635925 825.922058,184.196991 833.479248,203.199341 
	C839.350159,217.961700 844.047119,233.199432 849.029114,248.303955 
	C852.480408,258.767670 855.918945,269.264801 858.638062,279.931824 
	C860.961365,289.045898 862.582825,298.375641 863.919495,307.695343 
	C865.759277,320.521942 867.139587,333.418335 868.491455,346.308441 
	C868.864502,349.865967 870.066650,350.980255 873.189270,349.077667 
	C890.913391,338.278534 909.120972,328.174744 926.178284,316.405579 
	C945.472168,303.093109 963.660522,288.185516 982.450439,274.133148 
	C997.326843,263.007538 1012.158691,251.797577 1027.434204,241.238281 
	C1040.020264,232.538223 1054.254883,227.869446 1069.677490,230.158447 
	C1081.681763,231.940109 1092.368042,237.484100 1099.886963,247.263016 
	C1105.263550,254.255630 1110.051514,261.868469 1113.955566,269.771057 
	C1116.909546,275.750549 1118.247437,282.574158 1119.944946,289.115417 
	C1121.541138,295.266144 1123.199463,301.481964 1123.873535,307.771667 
	C1124.875732,317.124207 1125.406982,326.565674 1125.440918,335.971802 
	C1125.470215,344.064819 1125.249390,352.289734 1123.846558,360.227936 
	C1121.404419,374.047241 1119.009521,388.032806 1114.652100,401.311157 
	C1110.336914,414.461212 1103.884888,426.949249 1097.895142,439.501007 
	C1089.573608,456.939240 1079.250122,473.332489 1066.991943,488.136505 
	C1053.792969,504.076721 1039.451782,519.155090 1024.762451,533.757996 
	C1001.081055,557.300293 974.147461,576.905823 946.065613,594.806641 
	C921.274658,610.609680 895.546936,624.905457 868.445801,636.390991 
	C850.660278,643.928467 832.407227,650.377075 814.282288,657.094299 
	C803.447998,661.109619 792.531921,664.940857 781.509888,668.400391 
	C774.225220,670.686890 766.681946,672.145447 759.264282,674.013855 
	C750.886292,676.124207 742.552002,678.419739 734.136780,680.366760 
	C727.937317,681.801147 721.630249,682.764465 715.385986,684.012146 
	C708.996033,685.288940 702.661621,686.886780 696.235657,687.930054 
	C686.697632,689.478699 677.097961,690.645935 667.531616,692.024475 
	C666.411194,692.185913 665.335449,692.656677 663.792480,692.991760 
M518.457336,499.972443 
	C519.401855,500.911652 520.346069,501.851196 521.290894,502.790100 
	C541.380432,522.753357 565.491516,528.650024 592.489563,521.842590 
	C611.259888,517.109680 625.536377,505.514801 635.552795,488.927948 
	C644.428162,474.230652 647.186890,457.883728 644.707886,441.348877 
	C641.998779,423.278931 633.275330,408.059082 618.745178,396.017181 
	C597.513916,378.421783 566.815796,375.143616 542.249878,386.402618 
	C532.237671,390.991455 523.906738,397.852661 516.857849,406.504364 
	C503.228760,423.232483 498.506226,442.391632 501.289124,463.303497 
	C503.090302,476.838287 509.223022,488.866699 518.457336,499.972443 
M707.073181,424.807800 
	C704.645081,425.158844 702.214111,425.490662 699.789490,425.864380 
	C690.891785,427.235779 682.029602,428.920685 673.090515,429.917267 
	C664.083069,430.921539 663.734009,431.022552 664.981750,440.144470 
	C665.048950,440.635437 664.990784,441.142883 665.001343,441.642426 
	C665.301392,455.842010 665.836243,470.068176 659.739807,483.606171 
	C672.029907,481.986755 683.916382,480.819763 695.647339,478.764648 
	C707.853699,476.626282 719.949829,473.799988 732.017883,470.951508 
	C740.564575,468.934204 749.010620,466.470673 757.453613,464.039673 
	C766.074707,461.557343 774.739136,459.161224 783.194641,456.187225 
	C790.552856,453.599213 797.567627,450.050476 804.871521,447.289429 
	C823.984924,440.064026 842.080505,430.860321 858.940735,419.356995 
	C861.926575,417.319794 866.100098,415.671844 866.053284,410.573212 
	C865.906372,394.583099 866.027832,378.590637 865.939758,362.599670 
	C865.933411,361.439056 865.079407,360.283112 864.619507,359.125000 
	C863.413696,359.749939 862.036316,360.175507 861.034546,361.037537 
	C858.117432,363.547424 855.665771,366.729645 852.466492,368.755920 
	C842.331116,375.175171 832.253540,381.815094 821.560791,387.190430 
	C809.727966,393.138824 797.392883,398.187042 784.993530,402.879425 
	C774.170227,406.975311 763.009277,410.221558 751.892700,413.486145 
	C743.498718,415.951111 734.943604,417.869873 726.451965,419.998840 
	C720.276855,421.547058 714.088379,423.041443 707.073181,424.807800 
M371.707031,457.626770 
	C377.473236,459.743378 383.108582,462.375580 389.030518,463.878601 
	C405.875122,468.153748 422.749817,472.398193 439.778198,475.834564 
	C454.618866,478.829437 469.684814,480.708130 485.827972,483.266541 
	C479.633881,466.047211 479.307617,449.246155 482.334930,432.099945 
	C478.541901,431.314636 475.383209,430.571808 472.191956,430.016083 
	C461.244019,428.109619 450.223785,426.564117 439.346008,424.323273 
	C427.447083,421.872131 415.618011,419.021576 403.866425,415.934143 
	C393.653320,413.250885 383.455353,410.380524 373.497955,406.888031 
	C362.452637,403.013916 351.712708,398.276154 340.794983,394.029724 
	C323.291077,387.221588 307.197113,378.016052 292.623535,366.150085 
	C288.839569,363.069122 284.928345,360.144470 280.044830,356.346375 
	C280.044830,372.508789 279.958344,386.868164 280.110504,401.225006 
	C280.145142,404.491425 280.277832,408.096008 281.633240,410.940826 
	C284.755768,417.494568 290.889069,421.469818 296.994873,424.612640 
	C313.839874,433.283295 330.894409,441.578461 348.129639,449.444641 
	C355.419952,452.771912 363.370148,454.653412 371.707031,457.626770 
z"/>
<path fill="#FFFFFF" opacity="1.000000" stroke="none" 
	d="
M518.212585,499.710083 
	C509.223022,488.866699 503.090302,476.838287 501.289124,463.303497 
	C498.506226,442.391632 503.228760,423.232483 516.857849,406.504364 
	C523.906738,397.852661 532.237671,390.991455 542.249878,386.402618 
	C566.815796,375.143616 597.513916,378.421783 618.745178,396.017181 
	C633.275330,408.059082 641.998779,423.278931 644.707886,441.348877 
	C647.186890,457.883728 644.428162,474.230652 635.552795,488.927948 
	C625.536377,505.514801 611.259888,517.109680 592.489563,521.842590 
	C565.491516,528.650024 541.380432,522.753357 521.290894,502.790100 
	C520.346069,501.851196 519.401855,500.911652 518.212585,499.710083 
M573.033813,405.754517 
	C569.126160,422.933411 565.224487,440.113647 561.308899,457.290710 
	C558.543762,469.420807 555.824951,481.562195 552.922913,493.659546 
	C552.407349,495.808624 552.268982,497.026703 554.937439,497.009918 
	C560.401672,496.975555 565.866150,496.999603 571.610901,496.999603 
	C573.229309,489.859314 574.728699,483.080780 576.304688,476.320068 
	C581.877258,452.415344 587.364929,428.489624 593.189026,404.646118 
	C594.028809,401.208130 592.903625,400.969360 590.316956,400.990234 
	C586.485413,401.021179 582.632996,401.242554 578.827881,400.923981 
	C575.531677,400.648102 573.964478,401.965149 573.033813,405.754517 
M537.651123,479.968536 
	C540.847351,481.742340 544.043579,483.516144 547.999634,485.711639 
	C547.999634,479.552429 548.248535,474.272400 547.840149,469.043671 
	C547.725281,467.572601 545.933228,465.849976 544.475586,464.936859 
	C539.789917,462.001617 534.901001,459.390747 529.489685,456.313110 
	C535.182068,453.058533 540.282043,450.226959 545.277100,447.221008 
	C546.374817,446.560455 547.828857,445.312408 547.874695,444.279724 
	C548.127869,438.572754 547.995850,432.848694 547.995850,426.630951 
	C540.215759,431.172485 533.322815,435.585754 526.077698,439.314819 
	C518.954224,442.981354 515.116394,447.848389 516.926331,456.221191 
	C517.408203,458.450287 517.116943,460.879517 516.968445,463.203278 
	C516.794739,465.921814 517.619934,467.658875 520.190674,469.107086 
	C525.938782,472.345123 531.433289,476.033325 537.651123,479.968536 
M613.411804,458.073547 
	C609.368713,460.373505 605.251770,462.556488 601.323181,465.037689 
	C599.974426,465.889557 598.242859,467.429321 598.153442,468.753845 
	C597.792358,474.105072 598.003601,479.494934 598.003601,485.288422 
	C599.329834,484.870300 599.995239,484.788361 600.523132,484.474854 
	C608.395386,479.800690 616.169861,474.954865 624.141602,470.458405 
	C628.076233,468.239014 629.488098,465.344727 629.085022,460.903748 
	C628.695984,456.617920 629.156921,452.260101 628.908630,447.953247 
	C628.831116,446.607666 628.009094,444.772705 626.938477,444.100128 
	C617.612244,438.241730 608.151855,432.596741 597.999207,426.444672 
	C597.999207,432.255859 597.726379,437.345612 598.143677,442.378174 
	C598.294556,444.198120 599.690002,446.502716 601.224243,447.510956 
	C605.995972,450.646820 611.106323,453.267395 616.394470,456.263000 
	C615.186279,457.044830 614.631714,457.403687 613.411804,458.073547 
z"/>
<path fill="#FFFFFF" opacity="1.000000" stroke="none" 
	d="
M707.489502,424.683807 
	C714.088379,423.041443 720.276855,421.547058 726.451965,419.998840 
	C734.943604,417.869873 743.498718,415.951111 751.892700,413.486145 
	C763.009277,410.221558 774.170227,406.975311 784.993530,402.879425 
	C797.392883,398.187042 809.727966,393.138824 821.560791,387.190430 
	C832.253540,381.815094 842.331116,375.175171 852.466492,368.755920 
	C855.665771,366.729645 858.117432,363.547424 861.034546,361.037537 
	C862.036316,360.175507 863.413696,359.749939 864.619507,359.125000 
	C865.079407,360.283112 865.933411,361.439056 865.939758,362.599670 
	C866.027832,378.590637 865.906372,394.583099 866.053284,410.573212 
	C866.100098,415.671844 861.926575,417.319794 858.940735,419.356995 
	C842.080505,430.860321 823.984924,440.064026 804.871521,447.289429 
	C797.567627,450.050476 790.552856,453.599213 783.194641,456.187225 
	C774.739136,459.161224 766.074707,461.557343 757.453613,464.039673 
	C749.010620,466.470673 740.564575,468.934204 732.017883,470.951508 
	C719.949829,473.799988 707.853699,476.626282 695.647339,478.764648 
	C683.916382,480.819763 672.029907,481.986755 659.739807,483.606171 
	C665.836243,470.068176 665.301392,455.842010 665.001343,441.642426 
	C664.990784,441.142883 665.048950,440.635437 664.981750,440.144470 
	C663.734009,431.022552 664.083069,430.921539 673.090515,429.917267 
	C682.029602,428.920685 690.891785,427.235779 699.789490,425.864380 
	C702.214111,425.490662 704.645081,425.158844 707.489502,424.683807 
z"/>
<path fill="#FFFFFF" opacity="1.000000" stroke="none" 
	d="
M371.363708,457.409424 
	C363.370148,454.653412 355.419952,452.771912 348.129639,449.444641 
	C330.894409,441.578461 313.839874,433.283295 296.994873,424.612640 
	C290.889069,421.469818 284.755768,417.494568 281.633240,410.940826 
	C280.277832,408.096008 280.145142,404.491425 280.110504,401.225006 
	C279.958344,386.868164 280.044830,372.508789 280.044830,356.346375 
	C284.928345,360.144470 288.839569,363.069122 292.623535,366.150085 
	C307.197113,378.016052 323.291077,387.221588 340.794983,394.029724 
	C351.712708,398.276154 362.452637,403.013916 373.497955,406.888031 
	C383.455353,410.380524 393.653320,413.250885 403.866425,415.934143 
	C415.618011,419.021576 427.447083,421.872131 439.346008,424.323273 
	C450.223785,426.564117 461.244019,428.109619 472.191956,430.016083 
	C475.383209,430.571808 478.541901,431.314636 482.334930,432.099945 
	C479.307617,449.246155 479.633881,466.047211 485.827972,483.266541 
	C469.684814,480.708130 454.618866,478.829437 439.778198,475.834564 
	C422.749817,472.398193 405.875122,468.153748 389.030518,463.878601 
	C383.108582,462.375580 377.473236,459.743378 371.363708,457.409424 
z"/>
<path fill="#010101" opacity="1.000000" stroke="none" 
	d="
M573.250000,405.386963 
	C573.964478,401.965149 575.531677,400.648102 578.827881,400.923981 
	C582.632996,401.242554 586.485413,401.021179 590.316956,400.990234 
	C592.903625,400.969360 594.028809,401.208130 593.189026,404.646118 
	C587.364929,428.489624 581.877258,452.415344 576.304688,476.320068 
	C574.728699,483.080780 573.229309,489.859314 571.610901,496.999603 
	C565.866150,496.999603 560.401672,496.975555 554.937439,497.009918 
	C552.268982,497.026703 552.407349,495.808624 552.922913,493.659546 
	C555.824951,481.562195 558.543762,469.420807 561.308899,457.290710 
	C565.224487,440.113647 569.126160,422.933411 573.250000,405.386963 
z"/>
<path fill="#000000" opacity="1.000000" stroke="none" 
	d="
M537.341064,479.753357 
	C531.433289,476.033325 525.938782,472.345123 520.190674,469.107086 
	C517.619934,467.658875 516.794739,465.921814 516.968445,463.203278 
	C517.116943,460.879517 517.408203,458.450287 516.926331,456.221191 
	C515.116394,447.848389 518.954224,442.981354 526.077698,439.314819 
	C533.322815,435.585754 540.215759,431.172485 547.995850,426.630951 
	C547.995850,432.848694 548.127869,438.572754 547.874695,444.279724 
	C547.828857,445.312408 546.374817,446.560455 545.277100,447.221008 
	C540.282043,450.226959 535.182068,453.058533 529.489685,456.313110 
	C534.901001,459.390747 539.789917,462.001617 544.475586,464.936859 
	C545.933228,465.849976 547.725281,467.572601 547.840149,469.043671 
	C548.248535,474.272400 547.999634,479.552429 547.999634,485.711639 
	C544.043579,483.516144 540.847351,481.742340 537.341064,479.753357 
z"/>
<path fill="#000000" opacity="1.000000" stroke="none" 
	d="
M613.744507,457.918030 
	C614.631714,457.403687 615.186279,457.044830 616.394470,456.263000 
	C611.106323,453.267395 605.995972,450.646820 601.224243,447.510956 
	C599.690002,446.502716 598.294556,444.198120 598.143677,442.378174 
	C597.726379,437.345612 597.999207,432.255859 597.999207,426.444672 
	C608.151855,432.596741 617.612244,438.241730 626.938477,444.100128 
	C628.009094,444.772705 628.831116,446.607666 628.908630,447.953247 
	C629.156921,452.260101 628.695984,456.617920 629.085022,460.903748 
	C629.488098,465.344727 628.076233,468.239014 624.141602,470.458405 
	C616.169861,474.954865 608.395386,479.800690 600.523132,484.474854 
	C599.995239,484.788361 599.329834,484.870300 598.003601,485.288422 
	C598.003601,479.494934 597.792358,474.105072 598.153442,468.753845 
	C598.242859,467.429321 599.974426,465.889557 601.323181,465.037689 
	C605.251770,462.556488 609.368713,460.373505 613.744507,457.918030 
z"/>
</svg>