<svg xmlns="http://www.w3.org/2000/svg" xml:space="preserve" viewBox="0 0 1144 1144">
<!-- <rect x="0" y="0 " width="100%" height="100%" rx="200" fill="#000"/> -->
<circle cx="50%" cy="50%" r="50%" fill="#FFB900"/>
<g transform="translate(57.2, 240) scale(0.9)">
<path fill="#2F4F4F" d="m664 693-53 5h-53c-21 0-41-2-62-4l-29-3-23-4-30-6-23-6-31-8-25-9c-16-6-33-11-48-18l-56-29A555 555 0 0 1 96 508c-9-11-18-21-25-32a274 274 0 0 1-48-123c-2-18 0-36 3-54 2-18 7-33 17-47 11-14 25-22 42-22 15 0 27 5 39 13l43 34 53 38c15 11 32 20 48 30l5 2c6 3 6 3 7-3l3-33 6-30a494 494 0 0 1 30-88l25-61 13-32 13-33c5-13 11-27 22-36a75 75 0 0 1 84-13c20 7 32 24 44 42l19 28c11 15 33 21 50 15 10-4 17-11 23-20l24-36c9-12 19-22 32-28 16-8 33-11 51-6 15 3 29 9 39 21 7 9 13 20 18 31l18 45 15 37c8 19 17 37 24 56l16 45a480 480 0 0 1 15 60l4 38c1 4 2 5 5 3 18-11 36-21 53-33l56-42 45-33c13-8 27-13 43-11 12 2 22 7 30 17l14 23c3 6 4 13 6 19l4 19a274 274 0 0 1 0 52c-3 14-5 28-9 41l-17 39c-8 17-19 33-31 48-13 16-28 31-42 46a529 529 0 0 1-156 103l-55 20-32 11-23 6-25 6-19 4-19 4-28 4-4 1M518 500l3 3c20 20 44 26 71 19 19-5 34-16 44-33 8-15 11-31 9-48-3-18-12-33-26-45a74 74 0 0 0-77-10c-10 5-18 12-25 21a71 71 0 0 0 1 93m189-75-7 1-27 4c-9 1-9 1-8 10v2c0 14 1 28-5 42l36-5 36-8 25-7 26-8c8-2 15-6 22-9 19-7 37-16 54-28 3-2 7-3 7-8v-48l-1-4-4 2c-3 3-5 6-9 8l-30 18-37 16-33 10-26 7-19 5m-335 33 17 6 51 12 46 7c-6-17-7-34-4-51l-10-2-33-6a678 678 0 0 1-66-17l-32-13c-18-7-34-16-48-28l-13-10v45c0 3 0 7 2 10 3 6 9 10 15 14l51 24c7 4 15 6 24 9z"/>
<path fill="#2F4F4F" d="M573 405c1-3 3-4 6-4h11c3 0 4 0 3 4l-17 71-4 21h-17c-3 0-3-1-2-3l8-37 12-52z"/>
<path fill="#2F4F4F" d="m537 480-17-11c-2-1-3-3-3-6v-7c-2-8 2-13 9-17l22-12v17l-3 3-16 9 15 9 4 4v17l-11-6z"/>
<path fill="#2F4F4F" d="m614 458 2-2-15-8-3-6v-16l29 18 2 4v13c0 4-1 7-5 9l-23 14-3 1v-16c0-2 2-3 3-4l13-7z"/>  
<path fill="#FFF" d="M518 500a72 72 0 0 1-1-93c7-9 15-16 25-21 25-11 56-8 77 10 14 12 23 27 26 45 2 17-1 33-9 48a69 69 0 0 1-44 33 71 71 0 0 1-74-22m55-94-12 51-8 37c-1 2-1 3 2 3h17l4-21 17-71c1-4 0-4-3-4h-11c-3 0-5 1-6 5m-35 74 10 6v-17l-4-4-15-9 16-9 3-3v-17l-22 12c-7 4-11 9-9 17v7c0 3 1 5 3 6l18 11m75-22-12 7c-1 1-3 2-3 4v16l3-1 23-14c4-2 5-5 5-9v-13l-2-4-29-18v16l3 6 15 8-3 2z"/>
<path fill="#FFF" d="m707 425 19-5 26-7 33-10 37-16 30-18c4-2 6-5 9-8l4-2 1 4v48c0 5-4 6-7 8-17 12-35 21-54 28-7 3-14 7-22 9l-26 8-25 7-36 8-36 5c6-14 5-28 5-42v-2c-1-9-1-9 8-10l27-4 7-1z"/>
<path fill="#FFF" d="M371 457c-8-2-16-4-23-8l-51-24c-6-4-12-8-15-14-2-3-2-7-2-10v-45l13 10c14 12 30 21 48 28l32 13a395 395 0 0 0 66 17l33 6 10 2c-3 17-2 34 4 51l-46-7-51-12-18-7z"/>
</g>
</svg>