<svg version="1.1" id="Layer_1" xmlns="http://www.w3.org/2000/svg"
	xmlns:xlink="http://www.w3.org/1999/xlink" x="0px" y="0px"
	width="100%" viewBox="0 0 500 500" enable-background="new 0 0 500 500" xml:space="preserve">
	<rect x="0" y="0" width="100%" height="100%" rx="100" fill="#FFB900"/>

<g fill="#FEFEFF">
<!-- Envelope body -->
<path opacity="1.000000" stroke="none"
	d="
M80,220
	L80,380
	C80,395 90,405 105,405
	L355,405
	C370,405 380,395 380,380
	L380,220
	C380,205 370,195 355,195
	L105,195
	C90,195 80,205 80,220
z"/>
</g>

<g fill="#2F4F4F">
<!-- Envelope flap -->
<path opacity="1.000000" stroke="none"
	d="
M80,220
	L230,320
	L380,220
	L380,200
	C380,185 370,175 355,175
	L105,175
	C90,175 80,185 80,200
	L80,220
z"/>
</g>

<!-- Broom (simplified) -->
<g fill="#2F4F4F">
<!-- Broom handle -->
<rect x="315" y="80" width="18" height="200" rx="9" fill="#2F4F4F"/>

<!-- Broom ferrule -->
<rect x="305" y="275" width="38" height="10" rx="3" fill="#2F4F4F"/>

<!-- Broom bristles (simplified) -->
<path opacity="1.000000" stroke="none"
	d="
M305,285
	L290,295
	L295,330
	L305,335
	L315,330
	L325,335
	L335,330
	L345,335
	L355,330
	L360,295
	L345,285
z"/>
</g>

<!-- Cleaning wave/sweep effect -->
<g fill="none" stroke="#FEFEFF" stroke-width="6" stroke-linecap="round" opacity="0.7">
<path d="M260,310 Q300,300 340,310"/>
<path d="M240,330 Q290,315 350,330"/>
<path d="M250,350 Q300,335 360,350"/>
</g>

</svg>
