<svg version="1.1" id="Layer_1" xmlns="http://www.w3.org/2000/svg"
	xmlns:xlink="http://www.w3.org/1999/xlink" x="0px" y="0px"
	width="100%" viewBox="0 0 500 500" enable-background="new 0 0 500 500" xml:space="preserve">
	<rect x="0" y="0" width="100%" height="100%" rx="100" fill="#FFB900"/>

<!-- Trash can -->
<g fill="#2F4F4F">
<!-- Trash lid -->
<rect x="140" y="120" width="220" height="20" rx="10" fill="#2F4F4F"/>

<!-- Lid handle -->
<rect x="220" y="100" width="60" height="25" rx="12" fill="#2F4F4F"/>

<!-- Trash body -->
<path opacity="1.000000" stroke="none"
	d="
M160,145
	L180,400
	C180,415 190,425 205,425
	L295,425
	C310,425 320,415 320,400
	L340,145
z"/>

<!-- Vertical lines on trash -->
</g>

<g fill="none" stroke="#FEFEFF" stroke-width="8" stroke-linecap="round">
<path d="M210,160 L200,395"/>
<path d="M250,160 L250,395"/>
<path d="M290,160 L300,395"/>
</g>

<!-- Email envelope going into trash -->
<g fill="#FEFEFF">
<rect x="310" y="80" width="120" height="80" rx="8" fill="#FEFEFF"/>
<path d="M320 90 L370 125 L420 90" fill="none" stroke="#2F4F4F" stroke-width="6" stroke-linecap="round" stroke-linejoin="round"/>
</g>

<!-- Arrow pointing to trash -->
<g fill="#FEFEFF">
<path opacity="1.000000" stroke="none"
	d="
M360,180
	L340,200
	L350,200
	L350,230
	L370,230
	L370,200
	L380,200
z"/>
</g>

</svg>
