<svg xmlns="http://www.w3.org/2000/svg" xmlns:xlink="http://www.w3.org/1999/xlink" width="500"
    zoomAndPan="magnify" viewBox="0 0 375 374.999991" height="500"
    preserveAspectRatio="xMidYMid meet" version="1.0">
    <style>
        path {
        stroke: #ffffff;
        stroke-width: 10
        stroke-linejoin: round;
        stroke-linecap: round;
        stroke-miterlimit: 10;
        fill: none;
        stroke-opacity: 1;
        }
    </style>
    <rect x="-37.5" width="450" fill="#ffffff" y="-37.499999" height="449.999989" fill-opacity="1" />
    <rect x="-37.5" width="450" fill="#00000" y="-37.499999" height="449.999989" fill-opacity="1" />
    <path
        transform="matrix(0.670834, 0.335383, -0.335383, 0.670834, 78.292214, 203.124771)"
        d="M 0.00101671 0.500608 L 163.04299 0.497788 " />
    <path
        transform="matrix(-0.670834, 0.335383, -0.335383, -0.670834, 297.034058, 203.795598)"
        d="M -0.000528553 0.498608 L 163.041445 0.501429 " />
    <path
        transform="matrix(0.674142, 0.328682, -0.328682, 0.674142, 156.413944, 210.602153)"
        d="M -0.00053159 0.497701 L 46.511994 0.499516 " />
    <path
        transform="matrix(-0.67327, 0.330465, -0.330465, -0.67327, 218.908349, 211.275733)"
        d="M 0.000173163 0.502457 L 46.260064 0.499779 " />
    <path
        transform="matrix(0.668431, 0.340146, -0.340146, 0.668431, 141.377323, 140.290932)"
        d="M -0.000349634 0.499956 L 69.892497 0.499435 " />
    <path
        transform="matrix(-0.67082, 0.33541, -0.33541, -0.67082, 234.541175, 141.296621)"
        d="M -0.00198814 0.499414 L 69.87514 0.499413 " />
    <path
        transform="matrix(0.00452423, 0.749986, -0.749986, 0.00452423, 141.202802, 140.963105)"
        d="M -0.00069546 0.499575 L 82.886231 0.499574 " />
    <path
        transform="matrix(-0.00452423, 0.749986, -0.749986, -0.00452423, 235.495463, 140.965361)"
        d="M 0.00232123 0.499154 L 82.889247 0.499154 " />
    <path
        transform="matrix(-0.663482, 0.349702, -0.349702, -0.663482, 93.923598, 195.644548)"
        d="M -0.00166937 0.499583 L 23.265767 0.49951 " />
    <path
        transform="matrix(0.669375, 0.338285, -0.338285, 0.669375, 281.419116, 194.977809)"
        d="M 0.0000332625 0.499989 L 23.062022 0.498874 " />
</svg>