<?xml version="1.0" encoding="UTF-8"?>
<svg width="688" height="438" viewBox="0 0 688 438" xmlns="http://www.w3.org/2000/svg">
  <defs>
    <!-- Gradient backgrounds -->
    <linearGradient id="backgroundGradient" x1="0%" y1="0%" x2="100%" y2="100%">
      <stop offset="0%" style="stop-color:#FFB900;stop-opacity:1" />
      <stop offset="50%" style="stop-color:#FFB900;stop-opacity:0.9" />
      <stop offset="100%" style="stop-color:#FFB900;stop-opacity:0.8" />        
    </linearGradient>

    <linearGradient id="cardGradient" x1="0%" y1="0%" x2="100%" y2="100%">      
      <stop offset="0%" style="stop-color:#ffffff;stop-opacity:0.95" />
      <stop offset="100%" style="stop-color:#f8f9fa;stop-opacity:0.9" />        
    </linearGradient>

    <!-- Shadow filter -->
    <filter id="shadow" x="-20%" y="-20%" width="140%" height="140%">
      <feDropShadow dx="0" dy="4" stdDeviation="8" flood-color="#000000" flood-opacity="0.15"/>
    </filter>

    <!-- Glow effect -->
    <filter id="glow" x="-50%" y="-50%" width="200%" height="200%">
      <feGaussianBlur stdDeviation="3" result="coloredBlur"/>
      <feMerge>
        <feMergeNode in="coloredBlur"/>
        <feMergeNode in="SourceGraphic"/>
      </feMerge>
    </filter>
  </defs>

  <!-- Background avec l'orange de la charte -->
  <rect width="688" height="438" fill="url(#backgroundGradient)"/>

  <!-- Decorative elements -->
  <circle cx="50" cy="80" r="30" fill="#772e25" opacity="0.1"/>
  <circle cx="638" cy="358" r="40" fill="#772e25" opacity="0.08"/>
  <circle cx="600" cy="100" r="20" fill="#772e25" opacity="0.12"/>
  <circle cx="100" cy="350" r="25" fill="#772e25" opacity="0.1"/>

  <!-- Main content card -->
  <rect x="40" y="40" width="608" height="358" rx="20" ry="20" fill="url(#cardGradient)" filter="url(#shadow)"/>

  <!-- Header section -->
  <rect x="60" y="60" width="568" height="80" rx="12" ry="12" fill="#ffffff" opacity="0.8"/>

  <!-- GmailCleaner Logo/Icon -->
  <g transform="translate(80, 75)">
    <!-- Gmail-style envelope -->
    <rect x="0" y="15" width="50" height="35" rx="3" ry="3" fill="#ea4335"/>    
    <rect x="5" y="20" width="40" height="25" rx="2" ry="2" fill="#ffffff"/>    
    <polygon points="25,20 45,35 5,35" fill="#ea4335"/>

    <!-- Cleaner brush icon -->
    <g transform="translate(60, 10)">
      <rect x="0" y="0" width="8" height="40" rx="4" ry="4" fill="#34a853"/>    
      <rect x="-2" y="35" width="12" height="8" rx="2" ry="2" fill="#4285f4"/>  
      <circle cx="4" cy="42" r="3" fill="#4285f4"/>
    </g>
  </g>

  <!-- Title -->
  <text x="150" y="95" font-family="Arial, sans-serif" font-size="32" font-weight="bold" fill="#1a1a1a">
    GmailCleaner
  </text>

  <!-- Tagline -->
  <text x="150" y="120" font-family="Arial, sans-serif" font-size="16" fill="#666666">
    Automate your Gmail inbox management
  </text>

  <!-- Features section -->
  <g transform="translate(80, 160)">
    <!-- Feature 1: Automation Rules -->
    <g transform="translate(0, 0)">
      <rect x="0" y="0" width="180" height="120" rx="8" ry="8" fill="#ffffff" opacity="0.9" filter="url(#shadow)"/>
      <circle cx="30" cy="30" r="15" fill="#772e25" opacity="0.2"/>
      <text x="55" y="25" font-family="Arial, sans-serif" font-size="14" font-weight="bold" fill="#1a1a1a">🎯 Automation Rules</text>
      <text x="15" y="45" font-family="Arial, sans-serif" font-size="11" fill="#666666">Create custom rules to</text>
      <text x="15" y="60" font-family="Arial, sans-serif" font-size="11" fill="#666666">organize your emails</text>
      <text x="15" y="80" font-family="Arial, sans-serif" font-size="11" fill="#666666">• Multiple criteria</text>
      <text x="15" y="95" font-family="Arial, sans-serif" font-size="11" fill="#666666">• Automatic actions</text>
    </g>

    <!-- Feature 2: Flexible Execution -->
    <g transform="translate(200, 0)">
      <rect x="0" y="0" width="180" height="120" rx="8" ry="8" fill="#ffffff" opacity="0.9" filter="url(#shadow)"/>
      <circle cx="30" cy="30" r="15" fill="#2f4f4f" opacity="0.2"/>
      <text x="55" y="25" font-family="Arial, sans-serif" font-size="14" font-weight="bold" fill="#1a1a1a">⚡ Flexible Execution</text>
      <text x="15" y="45" font-family="Arial, sans-serif" font-size="11" fill="#666666">Manual and automatic</text>
      <text x="15" y="60" font-family="Arial, sans-serif" font-size="11" fill="#666666">rule application</text>
      <text x="15" y="80" font-family="Arial, sans-serif" font-size="11" fill="#666666">• Scheduling options</text>
      <text x="15" y="95" font-family="Arial, sans-serif" font-size="11" fill="#666666">• Action history</text>
    </g>

    <!-- Feature 3: Advanced Management -->
    <g transform="translate(400, 0)">
      <rect x="0" y="0" width="180" height="120" rx="8" ry="8" fill="#ffffff" opacity="0.9" filter="url(#shadow)"/>
      <circle cx="30" cy="30" r="15" fill="#260c1a" opacity="0.2"/>
      <text x="55" y="25" font-family="Arial, sans-serif" font-size="14" font-weight="bold" fill="#1a1a1a">📊 Advanced Management</text>
      <text x="15" y="45" font-family="Arial, sans-serif" font-size="11" fill="#666666">Import/Export rules</text>
      <text x="15" y="60" font-family="Arial, sans-serif" font-size="11" fill="#666666">and priority support</text>
      <text x="15" y="80" font-family="Arial, sans-serif" font-size="11" fill="#666666">• Rule management</text>
      <text x="15" y="95" font-family="Arial, sans-serif" font-size="11" fill="#666666">• Premium features</text>
    </g>
  </g>

  <!-- Pricing section -->
  <g transform="translate(80, 300)">
    <rect x="0" y="0" width="200" height="80" rx="8" ry="8" fill="#ffffff" opacity="0.9" filter="url(#shadow)"/>
    <text x="20" y="25" font-family="Arial, sans-serif" font-size="16" font-weight="bold" fill="#1a1a1a">Starting at</text>
    <text x="20" y="50" font-family="Arial, sans-serif" font-size="24" font-weight="bold" fill="#34a853">€0.99</text>
    <text x="20" y="70" font-family="Arial, sans-serif" font-size="12" fill="#666666">per month</text>
  </g>

  <!-- CTA Button -->
  <g transform="translate(300, 300)">
    <rect x="0" y="0" width="200" height="50" rx="25" ry="25" fill="#772e25" filter="url(#glow)"/>
    <text x="100" y="32" font-family="Arial, sans-serif" font-size="16" font-weight="bold" fill="#ffffff" text-anchor="middle">Try GmailCleaner</text>
  </g>

  <!-- Google Workspace Badge -->
  <g transform="translate(520, 300)">
    <rect x="0" y="0" width="120" height="50" rx="8" ry="8" fill="#ffffff" opacity="0.9" filter="url(#shadow)"/>
    <text x="60" y="20" font-family="Arial, sans-serif" font-size="10" font-weight="bold" fill="#1a1a1a" text-anchor="middle">Google Workspace</text>
    <text x="60" y="35" font-family="Arial, sans-serif" font-size="10" fill="#666666" text-anchor="middle">Marketplace</text>
  </g>

  <!-- Decorative email icons -->
  <g transform="translate(580, 200)" opacity="0.3">
    <rect x="0" y="0" width="20" height="15" rx="2" ry="2" fill="#772e25"/>     
    <polygon points="10,0 20,7.5 10,15" fill="#772e25"/>
  </g>

  <g transform="translate(50, 250)" opacity="0.3">
    <rect x="0" y="0" width="20" height="15" rx="2" ry="2" fill="#2f4f4f"/>     
    <polygon points="10,0 20,7.5 10,15" fill="#2f4f4f"/>
  </g>

  <g transform="translate(600, 120)" opacity="0.3">
    <rect x="0" y="0" width="20" height="15" rx="2" ry="2" fill="#260c1a"/>     
    <polygon points="10,0 20,7.5 10,15" fill="#260c1a"/>
  </g>
</svg>
