<?xml version="1.0" encoding="UTF-8" standalone="no"?>
<svg
   width="688"
   height="438"
   viewBox="0 0 688 438"
   version="1.1"
   id="svg33"
   sodipodi:docname="banner-basic.svg"
   inkscape:version="1.4 (86a8ad7, 2024-10-11)"
   xmlns:inkscape="http://www.inkscape.org/namespaces/inkscape"
   xmlns:sodipodi="http://sodipodi.sourceforge.net/DTD/sodipodi-0.dtd"
   xmlns="http://www.w3.org/2000/svg"
   xmlns:svg="http://www.w3.org/2000/svg">
  <sodipodi:namedview
     id="namedview33"
     pagecolor="#ffffff"
     bordercolor="#000000"
     borderopacity="0.25"
     inkscape:showpageshadow="2"
     inkscape:pageopacity="0.0"
     inkscape:pagecheckerboard="0"
     inkscape:deskcolor="#d1d1d1"
     inkscape:zoom="1.8840037"
     inkscape:cx="-56.263159"
     inkscape:cy="119.16112"
     inkscape:window-width="1920"
     inkscape:window-height="1009"
     inkscape:window-x="-8"
     inkscape:window-y="460"
     inkscape:window-maximized="1"
     inkscape:current-layer="svg33" />
  <defs
     id="defs3">
    <!-- Gradient backgrounds -->
    <linearGradient
       id="backgroundGradient"
       x1="0%"
       y1="0%"
       x2="100%"
       y2="100%">
      <stop
         offset="0%"
         style="stop-color:#FFB900;stop-opacity:1"
         id="stop1" />
      <stop
         offset="50%"
         style="stop-color:#FFB900;stop-opacity:0.9"
         id="stop2" />
      <stop
         offset="100%"
         style="stop-color:#FFB900;stop-opacity:0.8"
         id="stop3" />
    </linearGradient>
  </defs>
  <!-- Background avec l'orange de la charte -->
  <rect
     width="688"
     height="438"
     fill="url(#backgroundGradient)"
     id="rect3" />
  <!-- Western Software Logo -->
  <!-- Title Cleaner for Gmail™ -->
  <!-- Inbox Folder (same style as logo-folder.svg) -->
  <!-- Archive Folder (same style as logo-folder.svg) -->
  <!-- Explanatory text between folders -->
  <text
     x="164.56438"
     y="346.08511"
     font-family="Arial, sans-serif"
     font-size="57.0724px"
     font-weight="bold"
     fill="#ffffff"
     text-anchor="middle"
     id="text17"
     style="fill:#629b7f;fill-opacity:1;stroke:none;stroke-width:1.58536;stroke-opacity:1"><tspan
       sodipodi:role="line"
       x="164.56438"
       y="346.08511"
       id="tspan8"
       style="stroke-width:1.58536;fill:#629b7f;fill-opacity:1">automates</tspan></text>
  <text
     x="501.65002"
     y="350.08972"
     font-family="Arial, sans-serif"
     font-size="73.9498px"
     font-weight="bold"
     fill="#ffffff"
     text-anchor="middle"
     id="text17-2"
     style="fill:#ffffff;fill-opacity:1;stroke:none;stroke-width:2.05419;stroke-opacity:1"><tspan
       sodipodi:role="line"
       id="tspan5"
       x="501.65002"
       y="350.08972"
       style="stroke-width:2.05419">save time</tspan></text>
  <text
     x="344.80569"
     y="412.1181"
     font-family="Arial, sans-serif"
     font-size="66.4913px"
     fill="#ffffff"
     text-anchor="middle"
     id="text20-9"
     style="fill:#260c1a;fill-opacity:1;stroke-width:2.07786"><tspan
       style="font-weight:bold;stroke-width:2.07786"
       id="tspan16">keep your inbox tidy</tspan></text>
  <!-- Envelopes moving from Inbox to Archive -->
  <!-- Envelope 1 (leaving Inbox) -->
  <!-- Envelope 2 (in transit) -->
  <!-- Envelope 3 (arriving at Archive) -->
  <!-- Broom/Brush Icon from logo.svg -->
  <!-- <g transform="translate(568, 42.5) scale(1.35)">
    
    <g id="brush-group">
     
      <circle cx="30" cy="25" r="40" fill="#000000" />
    
      <path fill="#ffffff"
        d="M 46.4375 -0.03125 C 46.267969 -0.038271786 46.098261 -0.022067153 45.9375 0 C 45.263964 0.09245442 44.687485 0.42189797 44.28125 1.03125 L 44.25 1.09375 L 44.21875 1.125 L 35.65625 17.21875 C 34.689458 16.861266 33.735294 16.647955 32.84375 16.625 C 31.884055 16.60029 30.977092 16.750489 30.15625 17.09375 C 28.576128 17.754528 27.378648 19.048419 26.59375 20.6875 A 1.0001 1.0001 0 0 0 26.5 20.84375 C 26.496069 20.852386 26.503909 20.866345 26.5 20.875 A 1.0001 1.0001 0 0 0 26.46875 20.9375 A 1.0001 1.0001 0 0 0 26.4375 21.0625 C 25.895545 22.416172 25.269804 23.636458 24.5625 24.71875 C 24.554672 24.730728 24.539095 24.738053 24.53125 24.75 A 1.0001 1.0001 0 0 0 24.3125 25.03125 C 24.307676 25.038314 24.31733 25.055448 24.3125 25.0625 A 1.0001 1.0001 0 0 0 24.21875 25.21875 C 21.830154 28.636517 18.723496 30.695241 15.78125 31.96875 C 11.774195 33.703147 7.9372144 33.885845 7.09375 33.8125 A 1.0001 1.0001 0 0 0 6.21875 35.4375 C 17.612704 49.500308 34.375 50 34.375 50 A 1.0001 1.0001 0 0 0 34.9375 49.84375 C 34.9375 49.84375 37.008298 48.53056 39.5 45.40625 C 41.372251 43.058661 43.505221 39.662651 45.34375 34.96875 A 1.0030471 1.0030471 0 0 0 45.375 34.9375 A 1.0030471 1.0030471 0 0 0 45.6875 34.09375 A 1.0030471 1.0030471 0 0 0 45.6875 34.0625 C 46.172156 32.754076 46.640052 31.379328 47.0625 29.875 A 1.0045064 1.0045064 0 0 0 47.09375 29.6875 A 1.0045064 1.0045064 0 0 0 47.09375 29.65625 C 48.425534 26.217895 46.942509 22.433893 43.75 20.78125 L 49.9375 3.625 L 49.9375 3.59375 L 49.96875 3.5625 C 50.172418 2.8496608 49.936935 2.1679302 49.5625 1.625 C 49.208833 1.1121823 48.687866 0.71000224 48.0625 0.4375 L 48.0625 0.40625 C 48.04324 0.396618 48.01936 0.415567 48 0.40625 C 47.98847 0.400701 47.98031 0.380437 47.96875 0.375 C 47.478758 0.14463002 46.946094 -0.010184641 46.4375 -0.03125 z M 46.3125 2.0625 C 46.538468 2.0278352 46.835136 2.0269427 47.15625 2.1875 L 47.1875 2.21875 L 47.21875 2.21875 C 47.54266 2.3483138 47.811935 2.5679302 47.9375 2.75 C 48.063065 2.9320698 48.02758 3.0440892 48.03125 3.03125 L 41.9375 19.9375 C 41.203474 19.606307 40.693479 19.371478 39.65625 18.90625 C 38.882299 18.55911 38.148869 18.221916 37.5 17.9375 L 45.9375 2.15625 C 45.931265 2.165602 46.086532 2.0971648 46.3125 2.0625 z M 32.8125 18.625 C 33.509055 18.64404 34.26835 18.786849 35.125 19.125 A 1.0001 1.0001 0 0 0 35.1875 19.15625 A 1.0001 1.0001 0 0 0 36.25 19.59375 C 36.361715 19.641314 36.350658 19.636309 36.46875 19.6875 C 37.142697 19.979647 37.995612 20.338335 38.84375 20.71875 C 40.084512 21.275268 40.870583 21.612423 41.59375 21.9375 A 1.0001 1.0001 0 0 0 41.65625 22 A 1.0001 1.0001 0 0 0 42.59375 22.40625 A 1.0001 1.0001 0 0 0 42.625 22.40625 C 45.015957 23.500954 46.070389 26.104781 45.25 28.625 C 44.856256 28.61217 44.554293 28.6319 43.8125 28.46875 C 43.256559 28.346443 42.717937 28.15091 42.3125 27.90625 C 41.907063 27.66159 41.670926 27.419027 41.5625 27.09375 A 1.0001 1.0001 0 0 0 40.15625 26.5 C 39.818371 26.66894 38.971321 26.605206 38.21875 26.21875 C 37.842464 26.025522 37.508195 25.758195 37.28125 25.53125 C 37.054305 25.304305 36.99409 25.089537 37 25.125 A 1.0001 1.0001 0 0 0 35.65625 24.375 C 35.63034 24.385 35.296963 24.41917 34.90625 24.34375 C 34.515537 24.26833 34.060979 24.10789 33.625 23.90625 C 33.189021 23.70461 32.783556 23.457579 32.53125 23.25 C 32.278944 23.042421 32.254692 22.82817 32.28125 23.09375 A 1.0001 1.0001 0 0 0 31.21875 22.21875 C 30.214048 22.31444 29.275277 21.574916 28.71875 21.09375 C 29.306034 20.103882 30.030277 19.316884 30.9375 18.9375 C 31.491658 18.705761 32.115945 18.605959 32.8125 18.625 z M 27.8125 22.96875 C 28.506571 23.46926 29.474047 23.988812 30.625 24.09375 C 30.806734 24.363399 31.009561 24.583435 31.25 24.78125 C 31.685194 25.139296 32.217229 25.45789 32.78125 25.71875 C 33.345271 25.97961 33.934463 26.197297 34.53125 26.3125 C 34.840171 26.37213 35.156144 26.25575 35.46875 26.25 C 35.615352 26.477828 35.682798 26.776548 35.875 26.96875 C 36.279305 27.373055 36.763786 27.718228 37.3125 28 C 38.126946 28.418229 39.103465 28.561866 40.0625 28.4375 C 40.391395 28.929525 40.7841 29.343853 41.25 29.625 C 41.932063 30.03659 42.680941 30.284807 43.375 30.4375 C 43.863099 30.544882 44.310238 30.588738 44.71875 30.625 C 44.442193 31.523952 44.142156 32.368548 43.84375 33.1875 C 43.482833 33.17694 43.043717 33.154854 42.5625 33.0625 C 41.468546 32.852549 40.434237 32.366322 40 31.53125 A 1.0001 1.0001 0 0 0 38.78125 31.0625 C 38.285234 31.237564 37.387483 31.163643 36.625 30.8125 C 35.862517 30.461357 35.286734 29.849895 35.15625 29.40625 A 1.0001 1.0001 0 0 0 33.8125 28.78125 C 33.572073 28.88429 32.623345 28.854362 31.84375 28.5 C 31.064155 28.145638 30.557859 27.546616 30.5 27.21875 A 1.0001 1.0001 0 0 0 29.25 26.4375 C 28.302949 26.692475 27.567994 26.35568 26.96875 25.90625 C 26.763484 25.752301 26.609664 25.584168 26.46875 25.4375 C 26.951302 24.669071 27.403675 23.850256 27.8125 22.96875 z M 25.3125 27.09375 C 25.460009 27.22883 25.601318 27.365051 25.78125 27.5 C 26.519401 28.053613 27.656777 28.450917 28.9375 28.375 C 29.402902 29.245582 30.155781 29.91456 31.03125 30.3125 C 31.89586 30.705505 32.814566 30.832724 33.71875 30.71875 C 34.21699 31.536008 34.913422 32.225342 35.78125 32.625 C 36.706918 33.051295 37.746064 33.159135 38.75 33 C 39.685056 34.166314 41.0124 34.805726 42.1875 35.03125 C 42.500891 35.091396 42.8099 35.128966 43.09375 35.15625 C 41.430466 39.17571 39.564995 42.115557 37.9375 44.15625 C 35.852313 46.770837 34.442646 47.756206 34.125 47.96875 C 33.770177 47.953354 31.163383 47.769049 27.5 46.75 C 27.801315 46.553411 28.123268 46.352181 28.46875 46.09375 C 30.138 44.845098 32.321204 42.804885 34.4375 39.65625 A 1.0001 1.0001 0 0 0 33.5 38.09375 A 1.0001 1.0001 0 0 0 32.78125 38.53125 C 30.797546 41.482615 28.75575 43.373652 27.25 44.5 C 25.819538 45.570031 24.991096 45.903923 24.90625 45.9375 C 22.657078 45.145971 20.164609 44.057517 17.625 42.53125 C 17.990466 42.410105 18.381114 42.250852 18.8125 42.0625 C 20.710976 41.233588 23.248188 39.688279 25.84375 36.78125 A 1.0001 1.0001 0 0 0 24.9375 35.09375 A 1.0001 1.0001 0 0 0 24.34375 35.4375 C 21.939312 38.130471 19.682774 39.497662 18.03125 40.21875 C 16.379726 40.939838 15.4375 41 15.4375 41 A 1.0019512 1.0019512 0 0 0 15.3125 41.03125 C 13.239819 39.570297 11.167378 37.792622 9.21875 35.65625 C 11.122835 35.506915 13.572253 35.120312 16.59375 33.8125 C 19.578831 32.52045 22.7622 30.409995 25.3125 27.09375 z" />
      <path fill="#ffffff"
        d="M 46.4375 -0.03125 C 46.267969 -0.038271786 46.098261 -0.022067153 45.9375 0 C 45.263964 0.09245442 44.687485 0.42189797 44.28125 1.03125 L 44.25 1.09375 L 44.21875 1.125 L 35.65625 17.21875 C 34.689458 16.861266 33.735294 16.647955 32.84375 16.625 C 31.884055 16.60029 30.977092 16.750489 30.15625 17.09375 C 28.576128 17.754528 27.378648 19.048419 26.59375 20.6875 A 1.0001 1.0001 0 0 0 26.5 20.84375 C 26.496069 20.852386 26.503909 20.866345 26.5 20.875 A 1.0001 1.0001 0 0 0 26.46875 20.9375 A 1.0001 1.0001 0 0 0 26.4375 21.0625 C 25.895545 22.416172 25.269804 23.636458 24.5625 24.71875 C 24.554672 24.730728 24.539095 24.738053 24.53125 24.75 A 1.0001 1.0001 0 0 0 24.3125 25.03125 C 24.307676 25.038314 24.31733 25.055448 24.3125 25.0625 A 1.0001 1.0001 0 0 0 24.21875 25.21875 C 21.830154 28.636517 18.723496 30.695241 15.78125 31.96875 C 11.774195 33.703147 7.9372144 33.885845 7.09375 33.8125 A 1.0001 1.0001 0 0 0 6.21875 35.4375 C 17.612704 49.500308 34.375 50 34.375 50 A 1.0001 1.0001 0 0 0 34.9375 49.84375 C 34.9375 49.84375 37.008298 48.53056 39.5 45.40625 C 41.372251 43.058661 43.505221 39.662651 45.34375 34.96875 A 1.0030471 1.0030471 0 0 0 45.375 34.9375 A 1.0030471 1.0030471 0 0 0 45.6875 34.09375 A 1.0030471 1.0030471 0 0 0 45.6875 34.0625 C 46.172156 32.754076 46.640052 31.379328 47.0625 29.875 A 1.0045064 1.0045064 0 0 0 47.09375 29.6875 A 1.0045064 1.0045064 0 0 0 47.09375 29.65625 C 48.425534 26.217895 46.942509 22.433893 43.75 20.78125 L 49.9375 3.625 L 49.9375 3.59375 L 49.96875 3.5625 C 50.172418 2.8496608 49.936935 2.1679302 49.5625 1.625 C 49.208833 1.1121823 48.687866 0.71000224 48.0625 0.4375 L 48.0625 0.40625 C 48.04324 0.396618 48.01936 0.415567 48 0.40625 C 47.98847 0.400701 47.98031 0.380437 47.96875 0.375 C 47.478758 0.14463002 46.946094 -0.010184641 46.4375 -0.03125 z M 46.3125 2.0625 C 46.538468 2.0278352 46.835136 2.0269427 47.15625 2.1875 L 47.1875 2.21875 L 47.21875 2.21875 C 47.54266 2.3483138 47.811935 2.5679302 47.9375 2.75 C 48.063065 2.9320698 48.02758 3.0440892 48.03125 3.03125 L 41.9375 19.9375 C 41.203474 19.606307 40.693479 19.371478 39.65625 18.90625 C 38.882299 18.55911 38.148869 18.221916 37.5 17.9375 L 45.9375 2.15625 C 45.931265 2.165602 46.086532 2.0971648 46.3125 2.0625 z M 32.8125 18.625 C 33.509055 18.64404 34.26835 18.786849 35.125 19.125 A 1.0001 1.0001 0 0 0 35.1875 19.15625 A 1.0001 1.0001 0 0 0 36.25 19.59375 C 36.361715 19.641314 36.350658 19.636309 36.46875 19.6875 C 37.142697 19.979647 37.995612 20.338335 38.84375 20.71875 C 40.084512 21.275268 40.870583 21.612423 41.59375 21.9375 A 1.0001 1.0001 0 0 0 41.65625 22 A 1.0001 1.0001 0 0 0 42.59375 22.40625 A 1.0001 1.0001 0 0 0 42.625 22.40625 C 45.015957 23.500954 46.070389 26.104781 45.25 28.625 C 44.856256 28.61217 44.554293 28.6319 43.8125 28.46875 C 43.256559 28.346443 42.717937 28.15091 42.3125 27.90625 C 41.907063 27.66159 41.670926 27.419027 41.5625 27.09375 A 1.0001 1.0001 0 0 0 40.15625 26.5 C 39.818371 26.66894 38.971321 26.605206 38.21875 26.21875 C 37.842464 26.025522 37.508195 25.758195 37.28125 25.53125 C 37.054305 25.304305 36.99409 25.089537 37 25.125 A 1.0001 1.0001 0 0 0 35.65625 24.375 C 35.63034 24.385 35.296963 24.41917 34.90625 24.34375 C 34.515537 24.26833 34.060979 24.10789 33.625 23.90625 C 33.189021 23.70461 32.783556 23.457579 32.53125 23.25 C 32.278944 23.042421 32.254692 22.82817 32.28125 23.09375 A 1.0001 1.0001 0 0 0 31.21875 22.21875 C 30.214048 22.31444 29.275277 21.574916 28.71875 21.09375 C 29.306034 20.103882 30.030277 19.316884 30.9375 18.9375 C 31.491658 18.705761 32.115945 18.605959 32.8125 18.625 z M 27.8125 22.96875 C 28.506571 23.46926 29.474047 23.988812 30.625 24.09375 C 30.806734 24.363399 31.009561 24.583435 31.25 24.78125 C 31.685194 25.139296 32.217229 25.45789 32.78125 25.71875 C 33.345271 25.97961 33.934463 26.197297 34.53125 26.3125 C 34.840171 26.37213 35.156144 26.25575 35.46875 26.25 C 35.615352 26.477828 35.682798 26.776548 35.875 26.96875 C 36.279305 27.373055 36.763786 27.718228 37.3125 28 C 38.126946 28.418229 39.103465 28.561866 40.0625 28.4375 C 40.391395 28.929525 40.7841 29.343853 41.25 29.625 C 41.932063 30.03659 42.680941 30.284807 43.375 30.4375 C 43.863099 30.544882 44.310238 30.588738 44.71875 30.625 C 44.442193 31.523952 44.142156 32.368548 43.84375 33.1875 C 43.482833 33.17694 43.043717 33.154854 42.5625 33.0625 C 41.468546 32.852549 40.434237 32.366322 40 31.53125 A 1.0001 1.0001 0 0 0 38.78125 31.0625 C 38.285234 31.237564 37.387483 31.163643 36.625 30.8125 C 35.862517 30.461357 35.286734 29.849895 35.15625 29.40625 A 1.0001 1.0001 0 0 0 33.8125 28.78125 C 33.572073 28.88429 32.623345 28.854362 31.84375 28.5 C 31.064155 28.145638 30.557859 27.546616 30.5 27.21875 A 1.0001 1.0001 0 0 0 29.25 26.4375 C 28.302949 26.692475 27.567994 26.35568 26.96875 25.90625 C 26.763484 25.752301 26.609664 25.584168 26.46875 25.4375 C 26.951302 24.669071 27.403675 23.850256 27.8125 22.96875 z M 25.3125 27.09375 C 25.460009 27.22883 25.601318 27.365051 25.78125 27.5 C 26.519401 28.053613 27.656777 28.450917 28.9375 28.375 C 29.402902 29.245582 30.155781 29.91456 31.03125 30.3125 C 31.89586 30.705505 32.814566 30.832724 33.71875 30.71875 C 34.21699 31.536008 34.913422 32.225342 35.78125 32.625 C 36.706918 33.051295 37.746064 33.159135 38.75 33 C 39.685056 34.166314 41.0124 34.805726 42.1875 35.03125 C 42.500891 35.091396 42.8099 35.128966 43.09375 35.15625 C 41.430466 39.17571 39.564995 42.115557 37.9375 44.15625 C 35.852313 46.770837 34.442646 47.756206 34.125 47.96875 C 33.770177 47.953354 31.163383 47.769049 27.5 46.75 C 27.801315 46.553411 28.123268 46.352181 28.46875 46.09375 C 30.138 44.845098 32.321204 42.804885 34.4375 39.65625 A 1.0001 1.0001 0 0 0 33.5 38.09375 A 1.0001 1.0001 0 0 0 32.78125 38.53125 C 30.797546 41.482615 28.75575 43.373652 27.25 44.5 C 25.819538 45.570031 24.991096 45.903923 24.90625 45.9375 C 22.657078 45.145971 20.164609 44.057517 17.625 42.53125 C 17.990466 42.410105 18.381114 42.250852 18.8125 42.0625 C 20.710976 41.233588 23.248188 39.688279 25.84375 36.78125 A 1.0001 1.0001 0 0 0 24.9375 35.09375 A 1.0001 1.0001 0 0 0 24.34375 35.4375 C 21.939312 38.130471 19.682774 39.497662 18.03125 40.21875 C 16.379726 40.939838 15.4375 41 15.4375 41 A 1.0019512 1.0019512 0 0 0 15.3125 41.03125 C 13.239819 39.570297 11.167378 37.792622 9.21875 35.65625 C 11.122835 35.506915 13.572253 35.120312 16.59375 33.8125 C 19.578831 32.52045 22.7622 30.409995 25.3125 27.09375 z" />
    </g>
  </g> -->
  <!-- Label Icon - Bottom Right Corner -->
  <!-- <g transform="translate(544, 240)">
    <g transform="scale(0.12) translate(-480, -480)">
      <path fill="#ffffff" stroke="#000000" stroke-width="10" d="M160-160q-33
  0-56.5-23.5T80-240v-480q0-33 23.5-56.5T160-800h440q19 0 36 8.5t28 23.5l216 288-216 288q-11 15-28
  23.5t-36 8.5H160Zm0-80h440l180-240-180-240H160v480Zm220-240Z"/>
    </g>
  </g> -->
  <!-- Ink Stamp - At middle envelope level with 45 degree rotation -->
  <!-- Label sticker on middle envelope -->
  <g
     id="g2"
     transform="matrix(0.63962087,0,0,0.63962087,101.25153,56.422846)">
    <circle
       cx="174.92607"
       cy="229.202"
       r="129.69513"
       fill="#ffffff"
       id="circle15"
       style="fill:#ffffff;fill-opacity:1;stroke-width:3.70558" />
    <path
       d="m 231.52792,138.63218 c -0.62821,-0.0247 -1.25707,0.0329 -1.85278,0.1157 -2.49584,0.34256 -4.63203,1.56338 -6.13736,3.82135 l -0.11578,0.23181 -0.11582,0.1157 -31.72899,59.63658 c -3.58252,-1.32466 -7.11825,-2.1151 -10.42193,-2.20017 -3.55622,-0.0914 -6.91704,0.46501 -9.95874,1.73701 -5.85526,2.44856 -10.29261,7.24317 -13.20111,13.31689 a 3.7059459,3.7059459 0 0 0 -0.34742,0.57902 c -0.0144,0.0329 0.0144,0.0836 0,0.1157 a 3.7059459,3.7059459 0 0 0 -0.11582,0.2318 3.7059459,3.7059459 0 0 0 -0.11577,0.4632 c -2.00826,5.01611 -4.32699,9.53798 -6.94796,13.54849 -0.0288,0.0445 -0.0867,0.0716 -0.11578,0.11569 a 3.7059459,3.7059459 0 0 0 -0.81059,1.04217 c -0.0177,0.0247 0.0177,0.0898 0,0.1157 a 3.7059459,3.7059459 0 0 0 -0.34742,0.57902 c -8.85112,12.66479 -20.36308,20.29354 -31.26579,25.01259 -14.84845,6.42695 -29.066663,7.10396 -32.192184,6.83217 a 3.7059459,3.7059459 0 0 0 -3.242379,6.02156 C 124.71545,322.17497 186.8294,324.02661 186.8294,324.02661 a 3.7059459,3.7059459 0 0 0 2.08439,-0.57902 c 0,0 7.67349,-4.86612 16.90668,-16.44349 6.93777,-8.69917 14.84165,-21.2833 21.65446,-38.6769 a 3.7168666,3.7168666 0 0 0 0.11578,-0.1157 3.7168666,3.7168666 0 0 0 1.15799,-3.1266 3.7168666,3.7168666 0 0 0 0,-0.1157 c 1.79593,-4.84845 3.52975,-9.94267 5.09517,-15.51709 a 3.7222741,3.7222741 0 0 0 0.11577,-0.6948 3.7222741,3.7222741 0 0 0 0,-0.11569 c 4.93503,-12.74109 -0.56043,-26.76303 -12.39051,-32.88703 l 22.92824,-63.57375 v -0.1157 l 0.11582,-0.11569 c 0.75471,-2.6415 -0.11787,-5.16768 -1.50539,-7.17956 -1.31053,-1.9003 -3.24102,-3.3906 -5.55836,-4.40037 v -0.11569 c -0.0714,-0.0371 -0.15987,0.0329 -0.2316,0 -0.0427,-0.0206 -0.073,-0.0955 -0.11582,-0.1157 -1.8157,-0.85364 -3.78952,-1.42735 -5.67416,-1.50537 z m -0.46319,7.75853 c 0.83734,-0.12846 1.93666,-0.13175 3.12658,0.4632 l 0.11581,0.1157 h 0.11582 c 1.20028,0.48011 2.1981,1.29394 2.66339,1.9686 0.46529,0.67466 0.33379,1.08977 0.34737,1.04222 l -22.58085,62.64736 c -2.71998,-1.22725 -4.60981,-2.09744 -8.45334,-3.8214 -2.86793,-1.28633 -5.58571,-2.53585 -7.99015,-3.58975 l 31.2658,-58.47859 c -0.0231,0.0329 0.55225,-0.21904 1.38959,-0.3475 z m -50.02527,61.37359 c 2.58114,0.0704 5.39476,0.59973 8.56914,1.85279 a 3.7059459,3.7059459 0 0 0 0.2316,0.1157 3.7059459,3.7059459 0 0 0 3.93717,1.62123 c 0.41397,0.17622 0.37299,0.15769 0.8106,0.3475 2.49736,1.08256 5.6579,2.41171 8.80074,3.82135 4.59774,2.06224 7.51058,3.31159 10.19033,4.51619 a 3.7059459,3.7059459 0 0 0 0.2316,0.2314 3.7059459,3.7059459 0 0 0 3.47398,1.50541 3.7059459,3.7059459 0 0 0 0.11582,0 c 8.85987,4.05649 12.76715,13.70515 9.72713,23.04402 -1.45905,-0.0473 -2.57799,0.0247 -5.32676,-0.57901 -2.06008,-0.4532 -4.05599,-1.17776 -5.55836,-2.08439 -1.50238,-0.90659 -2.37741,-1.80544 -2.77919,-3.01074 a 3.7059459,3.7059459 0 0 0 -5.21096,-2.20021 c -1.25204,0.62604 -4.39084,0.38991 -7.17955,-1.04217 -1.39436,-0.71604 -2.63302,-1.70662 -3.47398,-2.54758 -0.84096,-0.841 -1.06409,-1.63684 -1.04219,-1.50541 a 3.7059459,3.7059459 0 0 0 -4.97937,-2.77918 c -0.096,0.037 -1.33136,0.16345 -2.77918,-0.1157 -1.44782,-0.27956 -3.13222,-0.87402 -4.74777,-1.62123 -1.61555,-0.74717 -3.11804,-1.66257 -4.05297,-2.43176 -0.93494,-0.7692 -1.02481,-1.56314 -0.9264,-0.57898 a 3.7059459,3.7059459 0 0 0 -3.93717,-3.24242 c -3.723,0.3545 -7.20169,-2.38577 -9.26394,-4.16877 2.17623,-3.66803 4.85996,-6.58427 8.22175,-7.99013 2.05347,-0.85874 4.36681,-1.22856 6.94795,-1.15799 z m -18.52788,16.09608 c 2.57194,1.85468 6.15699,3.77993 10.42193,4.16877 0.67343,0.99923 1.42502,1.81458 2.31599,2.54758 1.61264,1.3268 3.58414,2.50736 5.67416,3.47398 2.09002,0.96666 4.27332,1.77332 6.48476,2.2002 1.14473,0.2211 2.31559,-0.21039 3.47397,-0.2318 0.54325,0.84425 0.79317,1.95115 1.50539,2.66336 1.49819,1.49821 3.29347,2.77729 5.32677,3.8214 3.01799,1.54979 6.63655,2.08204 10.19033,1.62119 1.21875,1.82322 2.67394,3.35856 4.40037,4.40037 2.52744,1.52517 5.30246,2.44498 7.87435,3.01078 1.80869,0.39773 3.46559,0.5604 4.97937,0.69479 -1.02481,3.33115 -2.13662,6.46084 -3.24238,9.49554 -1.33741,-0.0412 -2.96459,-0.12105 -4.74777,-0.4632 -4.05373,-0.77801 -7.88644,-2.57974 -9.49554,-5.67414 a 3.7059459,3.7059459 0 0 0 -4.51617,-1.73701 c -1.83802,0.64872 -5.16471,0.37468 -7.99014,-0.92639 -2.82544,-1.3012 -4.95905,-3.56699 -5.44257,-5.21099 a 3.7059459,3.7059459 0 0 0 -4.97937,-2.31598 c -0.89091,0.38167 -4.4065,0.27091 -7.29535,-1.04218 -2.88884,-1.31313 -4.76496,-3.53285 -4.97936,-4.74779 a 3.7059459,3.7059459 0 0 0 -4.63197,-2.89496 c -3.50937,0.94484 -6.2328,-0.30303 -8.45335,-1.96856 -0.76062,-0.5705 -1.33062,-1.19353 -1.85278,-1.73701 1.78813,-2.84749 3.46443,-5.88165 4.97936,-9.14816 z m -9.26394,15.28553 c 0.54661,0.50055 1.07024,1.00533 1.73699,1.50537 2.73528,2.05145 6.94991,3.52372 11.69572,3.24238 1.72459,3.22599 4.51444,5.70494 7.75855,7.17955 3.20388,1.4563 6.60821,1.92773 9.95874,1.50537 1.84626,3.02845 4.42694,5.58282 7.64275,7.06378 3.43013,1.57968 7.28076,1.97927 11.00092,1.38959 3.46492,4.32185 8.3835,6.69124 12.73792,7.52693 1.16129,0.22274 2.30635,0.36191 3.35818,0.46319 -6.16343,14.89444 -13.07607,25.78826 -19.10688,33.35018 -7.72681,9.68856 -12.95044,13.33995 -14.1275,14.12751 -1.31483,-0.0568 -10.9745,-0.74001 -24.54944,-4.51615 1.11655,-0.72848 2.30957,-1.47416 3.58978,-2.43181 6.18553,-4.62694 14.27556,-12.1871 22.11765,-23.8546 a 3.7059459,3.7059459 0 0 0 -3.47398,-5.78996 3.7059459,3.7059459 0 0 0 -2.66338,1.62115 c -7.35077,10.93651 -14.91679,17.94392 -20.49646,22.11767 -5.30069,3.96509 -8.37054,5.20234 -8.68495,5.32677 -8.33447,-2.93309 -17.5705,-6.9664 -26.98122,-12.6221 1.35426,-0.44895 2.80184,-1.03904 4.40037,-1.73701 7.03495,-3.07159 16.43678,-8.79785 26.05483,-19.57004 a 3.7059459,3.7059459 0 0 0 -3.35818,-6.2532 3.7059459,3.7059459 0 0 0 -2.20018,1.27381 c -8.90983,9.97899 -17.2716,15.04525 -23.39145,17.7173 -6.11984,2.67201 -9.61133,2.89496 -9.61133,2.89496 a 3.7128056,3.7128056 0 0 0 -0.4632,0.1157 c -7.68047,-5.41364 -15.36006,-12.00096 -22.580846,-19.91743 7.055726,-0.55341 16.132236,-1.98598 27.328616,-6.83217 11.06144,-4.78781 22.85766,-12.60822 32.30798,-24.89682 z"
       id="path1"
       style="fill:#2f4f4f;fill-opacity:1;stroke-width:3.70558" />
  </g>
  <g
     id="g15"
     transform="translate(30.025706)">
    <circle
       cx="441.39554"
       cy="200.4557"
       r="83.038925"
       fill="#000000"
       id="circle29"
       style="fill:#ffffff;stroke-width:1.27752" />
    <g
       id="g1"
       transform="matrix(0.70760681,0,0,0.70760681,65.370672,37.228357)">
      <path
         fill="#4285f4"
         d="m 469.11695,290.2538 h 25.27577 V 228.86979 L 458.28447,201.7886 v 77.63273 c 0,5.99397 4.85656,10.83247 10.83248,10.83247"
         id="path29"
         style="stroke-width:1.80541" />
      <path
         fill="#34a853"
         d="m 581.0525,290.2538 h 25.27577 c 5.99397,0 10.83248,-4.85656 10.83248,-10.83247 V 201.7886 l -36.10825,27.08119"
         id="path30"
         style="stroke-width:1.80541" />
      <path
         fill="#fbbc04"
         d="m 581.0525,181.92907 v 46.94072 l 36.10825,-27.08119 v -14.44329 c 0,-13.39616 -15.29184,-21.03305 -25.99794,-12.99897"
         id="path31"
         style="stroke-width:1.80541" />
      <path
         fill="#ea4335"
         d="m 494.39272,228.86979 v -46.94072 l 43.32989,32.49742 43.32989,-32.49742 v 46.94072 l -43.32989,32.49742"
         id="path32"
         style="stroke-width:1.80541" />
      <path
         fill="#c5221f"
         d="m 458.28447,187.34531 v 14.44329 l 36.10825,27.08119 v -46.94072 l -10.11031,-7.58273 c -10.72415,-8.03408 -25.99794,-0.39719 -25.99794,12.99897"
         id="path33"
         style="stroke-width:1.80541" />
    </g>
  </g>
  <g
     id="g14"
     style="fill:#ffffff;fill-opacity:1"
     transform="matrix(1.2497608,0,0,1.2497608,357.91067,207.85595)">
    <ellipse
       style="fill:#ffffff;fill-opacity:1;stroke:none;stroke-width:2.56096;stroke-opacity:1"
       id="path13"
       cx="204.09998"
       cy="-118.45602"
       rx="33.439426"
       ry="34.533192" />
    <rect
       style="fill:#ffffff;fill-opacity:1;stroke:none;stroke-width:2.54;stroke-opacity:1"
       id="rect13"
       width="435.24332"
       height="69.001991"
       x="-230.36049"
       y="-152.86594" />
  </g>
  <text
     x="377.16318"
     y="83.120293"
     font-family="Arial, sans-serif"
     font-size="54px"
     font-weight="bold"
     fill="#ffffff"
     text-anchor="middle"
     id="text13"
     style="fill:#2f4f4f;fill-opacity:1;stroke-width:1.55538">Cleaner for Gmail™</text>
  <g
     id="g3">
    <circle
       cx="75.017319"
       cy="59.882149"
       r="43.17355"
       fill="#000000"
       id="circle3"
       style="stroke-width:0.287824" />
    <g
       transform="matrix(0.06660402,0,0,0.05968489,36.789877,39.892834)"
       id="g7">
<path
   fill="#ffffff"
   d="m 664,693 -53,5 h -53 c -21,0 -41,-2 -62,-4 l -29,-3 -23,-4 -30,-6 -23,-6 -31,-8 -25,-9 c -16,-6 -33,-11 -48,-18 L 231,611 A 555,555 0 0 1 96,508 C 87,497 78,487 71,476 A 274,274 0 0 1 23,353 c -2,-18 0,-36 3,-54 2,-18 7,-33 17,-47 11,-14 25,-22 42,-22 15,0 27,5 39,13 l 43,34 53,38 c 15,11 32,20 48,30 l 5,2 c 6,3 6,3 7,-3 l 3,-33 6,-30 a 494,494 0 0 1 30,-88 l 25,-61 13,-32 13,-33 c 5,-13 11,-27 22,-36 a 75,75 0 0 1 84,-13 c 20,7 32,24 44,42 l 19,28 c 11,15 33,21 50,15 10,-4 17,-11 23,-20 l 24,-36 c 9,-12 19,-22 32,-28 16,-8 33,-11 51,-6 15,3 29,9 39,21 7,9 13,20 18,31 l 18,45 15,37 c 8,19 17,37 24,56 l 16,45 a 480,480 0 0 1 15,60 l 4,38 c 1,4 2,5 5,3 18,-11 36,-21 53,-33 l 56,-42 45,-33 c 13,-8 27,-13 43,-11 12,2 22,7 30,17 l 14,23 c 3,6 4,13 6,19 l 4,19 a 274,274 0 0 1 0,52 c -3,14 -5,28 -9,41 l -17,39 c -8,17 -19,33 -31,48 -13,16 -28,31 -42,46 A 529,529 0 0 1 869,637 l -55,20 -32,11 -23,6 -25,6 -19,4 -19,4 -28,4 -4,1 m -146,-193 3,3 c 20,20 44,26 71,19 19,-5 34,-16 44,-33 8,-15 11,-31 9,-48 -3,-18 -12,-33 -26,-45 a 74,74 0 0 0 -77,-10 c -10,5 -18,12 -25,21 a 71,71 0 0 0 1,93 m 189,-75 -7,1 -27,4 c -9,1 -9,1 -8,10 v 2 c 0,14 1,28 -5,42 l 36,-5 36,-8 25,-7 26,-8 c 8,-2 15,-6 22,-9 19,-7 37,-16 54,-28 3,-2 7,-3 7,-8 v -48 l -1,-4 -4,2 c -3,3 -5,6 -9,8 l -30,18 -37,16 -33,10 -26,7 -19,5 m -335,33 17,6 51,12 46,7 c -6,-17 -7,-34 -4,-51 l -10,-2 -33,-6 a 678,678 0 0 1 -66,-17 l -32,-13 c -18,-7 -34,-16 -48,-28 l -13,-10 v 45 c 0,3 0,7 2,10 3,6 9,10 15,14 l 51,24 c 7,4 15,6 24,9 z"
   id="path1-9" />

<path
   fill="#ffffff"
   d="m 573,405 c 1,-3 3,-4 6,-4 h 11 c 3,0 4,0 3,4 l -17,71 -4,21 h -17 c -3,0 -3,-1 -2,-3 l 8,-37 z"
   id="path2" />

<path
   fill="#ffffff"
   d="m 537,480 -17,-11 c -2,-1 -3,-3 -3,-6 v -7 c -2,-8 2,-13 9,-17 l 22,-12 v 17 l -3,3 -16,9 15,9 4,4 v 17 z"
   id="path3-4" />

<path
   fill="#ffffff"
   d="m 614,458 2,-2 -15,-8 -3,-6 v -16 l 29,18 2,4 v 13 c 0,4 -1,7 -5,9 l -23,14 -3,1 v -16 c 0,-2 2,-3 3,-4 z"
   id="path4-8" />
  
<path
   fill="#2f4f4f"
   d="m 518,500 a 72,72 0 0 1 -1,-93 c 7,-9 15,-16 25,-21 25,-11 56,-8 77,10 14,12 23,27 26,45 2,17 -1,33 -9,48 a 69,69 0 0 1 -44,33 71,71 0 0 1 -74,-22 m 55,-94 -12,51 -8,37 c -1,2 -1,3 2,3 h 17 l 4,-21 17,-71 c 1,-4 0,-4 -3,-4 h -11 c -3,0 -5,1 -6,5 m -35,74 10,6 v -17 l -4,-4 -15,-9 16,-9 3,-3 v -17 l -22,12 c -7,4 -11,9 -9,17 v 7 c 0,3 1,5 3,6 l 18,11 m 75,-22 -12,7 c -1,1 -3,2 -3,4 v 16 l 3,-1 23,-14 c 4,-2 5,-5 5,-9 v -13 l -2,-4 -29,-18 v 16 l 3,6 15,8 z"
   id="path5-8" />

<path
   fill="#2f4f4f"
   d="m 707,425 19,-5 26,-7 33,-10 37,-16 30,-18 c 4,-2 6,-5 9,-8 l 4,-2 1,4 v 48 c 0,5 -4,6 -7,8 -17,12 -35,21 -54,28 -7,3 -14,7 -22,9 l -26,8 -25,7 -36,8 -36,5 c 6,-14 5,-28 5,-42 v -2 c -1,-9 -1,-9 8,-10 l 27,-4 z"
   id="path6-2" />

<path
   fill="#2f4f4f"
   d="m 371,457 c -8,-2 -16,-4 -23,-8 l -51,-24 c -6,-4 -12,-8 -15,-14 -2,-3 -2,-7 -2,-10 v -45 l 13,10 c 14,12 30,21 48,28 l 32,13 a 395,395 0 0 0 66,17 l 33,6 10,2 c -3,17 -2,34 4,51 l -46,-7 -51,-12 z"
   id="path7-4" />

</g>
  </g>
</svg>
