<?xml version="1.0" encoding="UTF-8" standalone="no"?>
<svg
   version="1.1"
   id="Layer_1"
   x="0px"
   y="0px"
   width="100%"
   viewBox="0 0 500 500"
   enable-background="new 0 0 500 500"
   xml:space="preserve"
   sodipodi:docname="logo-broom-white2.svg"
   inkscape:version="1.4.2 (ebf0e94, 2025-05-08)"
   xmlns:inkscape="http://www.inkscape.org/namespaces/inkscape"
   xmlns:sodipodi="http://sodipodi.sourceforge.net/DTD/sodipodi-0.dtd"
   xmlns="http://www.w3.org/2000/svg"
   xmlns:svg="http://www.w3.org/2000/svg"><defs
   id="defs1" /><sodipodi:namedview
   id="namedview1"
   pagecolor="#ffffff"
   bordercolor="#000000"
   borderopacity="0.25"
   inkscape:showpageshadow="2"
   inkscape:pageopacity="0.0"
   inkscape:pagecheckerboard="0"
   inkscape:deskcolor="#d1d1d1"
   inkscape:zoom="0.32"
   inkscape:cx="221.875"
   inkscape:cy="-692.1875"
   inkscape:window-width="1920"
   inkscape:window-height="1009"
   inkscape:window-x="-8"
   inkscape:window-y="-8"
   inkscape:window-maximized="1"
   inkscape:current-layer="Layer_1" />
	<rect
   x="0"
   y="0"
   width="100%"
   height="100%"
   rx="100"
   fill="#FFB900"
   id="rect1" />

	<!-- Broom (from Broom.svg, centered) -->
<g
   fill="#2F4F4F"
   transform="translate(-10, 30) scale(9)"
   id="g1">
    <path
   d="M 46.4375 -0.03125 C 46.267969 -0.038271786 46.098261 -0.022067153 45.9375 0 C 45.263964 0.09245442 44.687485 0.42189797 44.28125 1.03125 L 44.25 1.09375 L 44.21875 1.125 L 35.65625 17.21875 C 34.689458 16.861266 33.735294 16.647955 32.84375 16.625 C 31.884055 16.60029 30.977092 16.750489 30.15625 17.09375 C 28.576128 17.754528 27.378648 19.048419 26.59375 20.6875 A 1.0001 1.0001 0 0 0 26.5 20.84375 C 26.496069 20.852386 26.503909 20.866345 26.5 20.875 A 1.0001 1.0001 0 0 0 26.46875 20.9375 A 1.0001 1.0001 0 0 0 26.4375 21.0625 C 25.895545 22.416172 25.269804 23.636458 24.5625 24.71875 C 24.554672 24.730728 24.539095 24.738053 24.53125 24.75 A 1.0001 1.0001 0 0 0 24.3125 25.03125 C 24.307676 25.038314 24.31733 25.055448 24.3125 25.0625 A 1.0001 1.0001 0 0 0 24.21875 25.21875 C 21.830154 28.636517 18.723496 30.695241 15.78125 31.96875 C 11.774195 33.703147 7.9372144 33.885845 7.09375 33.8125 A 1.0001 1.0001 0 0 0 6.21875 35.4375 C 17.612704 49.500308 34.375 50 34.375 50 A 1.0001 1.0001 0 0 0 34.9375 49.84375 C 34.9375 49.84375 37.008298 48.53056 39.5 45.40625 C 41.372251 43.058661 43.505221 39.662651 45.34375 34.96875 A 1.0030471 1.0030471 0 0 0 45.375 34.9375 A 1.0030471 1.0030471 0 0 0 45.6875 34.09375 A 1.0030471 1.0030471 0 0 0 45.6875 34.0625 C 46.172156 32.754076 46.640052 31.379328 47.0625 29.875 A 1.0045064 1.0045064 0 0 0 47.09375 29.6875 A 1.0045064 1.0045064 0 0 0 47.09375 29.65625 C 48.425534 26.217895 46.942509 22.433893 43.75 20.78125 L 49.9375 3.625 L 49.9375 3.59375 L 49.96875 3.5625 C 50.172418 2.8496608 49.936935 2.1679302 49.5625 1.625 C 49.208833 1.1121823 48.687866 0.71000224 48.0625 0.4375 L 48.0625 0.40625 C 48.04324 0.396618 48.01936 0.415567 48 0.40625 C 47.98847 0.400701 47.98031 0.380437 47.96875 0.375 C 47.478758 0.14463002 46.946094 -0.010184641 46.4375 -0.03125 z M 46.3125 2.0625 C 46.538468 2.0278352 46.835136 2.0269427 47.15625 2.1875 L 47.1875 2.21875 L 47.21875 2.21875 C 47.54266 2.3483138 47.811935 2.5679302 47.9375 2.75 C 48.063065 2.9320698 48.02758 3.0440892 48.03125 3.03125 L 41.9375 19.9375 C 41.203474 19.606307 40.693479 19.371478 39.65625 18.90625 C 38.882299 18.55911 38.148869 18.221916 37.5 17.9375 L 45.9375 2.15625 C 45.931265 2.165602 46.086532 2.0971648 46.3125 2.0625 z M 32.8125 18.625 C 33.509055 18.64404 34.26835 18.786849 35.125 19.125 A 1.0001 1.0001 0 0 0 35.1875 19.15625 A 1.0001 1.0001 0 0 0 36.25 19.59375 C 36.361715 19.641314 36.350658 19.636309 36.46875 19.6875 C 37.142697 19.979647 37.995612 20.338335 38.84375 20.71875 C 40.084512 21.275268 40.870583 21.612423 41.59375 21.9375 A 1.0001 1.0001 0 0 0 41.65625 22 A 1.0001 1.0001 0 0 0 42.59375 22.40625 A 1.0001 1.0001 0 0 0 42.625 22.40625 C 45.015957 23.500954 46.070389 26.104781 45.25 28.625 C 44.856256 28.61217 44.554293 28.6319 43.8125 28.46875 C 43.256559 28.346443 42.717937 28.15091 42.3125 27.90625 C 41.907063 27.66159 41.670926 27.419027 41.5625 27.09375 A 1.0001 1.0001 0 0 0 40.15625 26.5 C 39.818371 26.66894 38.971321 26.605206 38.21875 26.21875 C 37.842464 26.025522 37.508195 25.758195 37.28125 25.53125 C 37.054305 25.304305 36.99409 25.089537 37 25.125 A 1.0001 1.0001 0 0 0 35.65625 24.375 C 35.63034 24.385 35.296963 24.41917 34.90625 24.34375 C 34.515537 24.26833 34.060979 24.10789 33.625 23.90625 C 33.189021 23.70461 32.783556 23.457579 32.53125 23.25 C 32.278944 23.042421 32.254692 22.82817 32.28125 23.09375 A 1.0001 1.0001 0 0 0 31.21875 22.21875 C 30.214048 22.31444 29.275277 21.574916 28.71875 21.09375 C 29.306034 20.103882 30.030277 19.316884 30.9375 18.9375 C 31.491658 18.705761 32.115945 18.605959 32.8125 18.625 z M 27.8125 22.96875 C 28.506571 23.46926 29.474047 23.988812 30.625 24.09375 C 30.806734 24.363399 31.009561 24.583435 31.25 24.78125 C 31.685194 25.139296 32.217229 25.45789 32.78125 25.71875 C 33.345271 25.97961 33.934463 26.197297 34.53125 26.3125 C 34.840171 26.37213 35.156144 26.25575 35.46875 26.25 C 35.615352 26.477828 35.682798 26.776548 35.875 26.96875 C 36.279305 27.373055 36.763786 27.718228 37.3125 28 C 38.126946 28.418229 39.103465 28.561866 40.0625 28.4375 C 40.391395 28.929525 40.7841 29.343853 41.25 29.625 C 41.932063 30.03659 42.680941 30.284807 43.375 30.4375 C 43.863099 30.544882 44.310238 30.588738 44.71875 30.625 C 44.442193 31.523952 44.142156 32.368548 43.84375 33.1875 C 43.482833 33.17694 43.043717 33.154854 42.5625 33.0625 C 41.468546 32.852549 40.434237 32.366322 40 31.53125 A 1.0001 1.0001 0 0 0 38.78125 31.0625 C 38.285234 31.237564 37.387483 31.163643 36.625 30.8125 C 35.862517 30.461357 35.286734 29.849895 35.15625 29.40625 A 1.0001 1.0001 0 0 0 33.8125 28.78125 C 33.572073 28.88429 32.623345 28.854362 31.84375 28.5 C 31.064155 28.145638 30.557859 27.546616 30.5 27.21875 A 1.0001 1.0001 0 0 0 29.25 26.4375 C 28.302949 26.692475 27.567994 26.35568 26.96875 25.90625 C 26.763484 25.752301 26.609664 25.584168 26.46875 25.4375 C 26.951302 24.669071 27.403675 23.850256 27.8125 22.96875 z M 25.3125 27.09375 C 25.460009 27.22883 25.601318 27.365051 25.78125 27.5 C 26.519401 28.053613 27.656777 28.450917 28.9375 28.375 C 29.402902 29.245582 30.155781 29.91456 31.03125 30.3125 C 31.89586 30.705505 32.814566 30.832724 33.71875 30.71875 C 34.21699 31.536008 34.913422 32.225342 35.78125 32.625 C 36.706918 33.051295 37.746064 33.159135 38.75 33 C 39.685056 34.166314 41.0124 34.805726 42.1875 35.03125 C 42.500891 35.091396 42.8099 35.128966 43.09375 35.15625 C 41.430466 39.17571 39.564995 42.115557 37.9375 44.15625 C 35.852313 46.770837 34.442646 47.756206 34.125 47.96875 C 33.770177 47.953354 31.163383 47.769049 27.5 46.75 C 27.801315 46.553411 28.123268 46.352181 28.46875 46.09375 C 30.138 44.845098 32.321204 42.804885 34.4375 39.65625 A 1.0001 1.0001 0 0 0 33.5 38.09375 A 1.0001 1.0001 0 0 0 32.78125 38.53125 C 30.797546 41.482615 28.75575 43.373652 27.25 44.5 C 25.819538 45.570031 24.991096 45.903923 24.90625 45.9375 C 22.657078 45.145971 20.164609 44.057517 17.625 42.53125 C 17.990466 42.410105 18.381114 42.250852 18.8125 42.0625 C 20.710976 41.233588 23.248188 39.688279 25.84375 36.78125 A 1.0001 1.0001 0 0 0 24.9375 35.09375 A 1.0001 1.0001 0 0 0 24.34375 35.4375 C 21.939312 38.130471 19.682774 39.497662 18.03125 40.21875 C 16.379726 40.939838 15.4375 41 15.4375 41 A 1.0019512 1.0019512 0 0 0 15.3125 41.03125 C 13.239819 39.570297 11.167378 37.792622 9.21875 35.65625 C 11.122835 35.506915 13.572253 35.120312 16.59375 33.8125 C 19.578831 32.52045 22.7622 30.409995 25.3125 27.09375 z"
   id="path1" />
</g>

<path
   style="fill:#ffffff;stroke-width:0.619579"
   d="m 285.93556,460.33597 c -12.9527,-1.67455 -31.76111,-5.43823 -45.12874,-9.03054 l -2.37782,-0.63899 4.50546,-3.10376 c 17.01231,-11.7196 36.97417,-32.01497 51.79026,-52.65554 6.25444,-8.71317 7.00208,-10.12718 7.00397,-13.24667 0.004,-6.79871 -8.14089,-11.37882 -13.94305,-7.84046 -1.02707,0.62635 -4.43661,4.73775 -7.57676,9.13647 -17.81604,24.95664 -41.45272,47.15184 -61.4976,57.74719 l -4.64684,2.45623 -7.12516,-2.71743 c -12.51384,-4.77261 -23.53648,-9.6385 -35.62577,-15.72683 -11.8377,-5.96161 -21.32524,-11.19093 -21.34786,-11.76645 -0.007,-0.17038 2.14514,-1.13164 4.78185,-2.13614 13.138,-5.00512 29.4979,-14.7663 43.16231,-25.75292 9.10818,-7.32327 25.1366,-23.14338 26.62414,-26.27812 2.59045,-5.45898 -0.52215,-12.04548 -6.19532,-13.10977 -4.86514,-0.91271 -6.05786,-0.17703 -16.14903,9.96081 -15.45332,15.52481 -28.57485,25.32274 -44.48539,33.21754 -8.99676,4.46419 -21.22834,8.83502 -26.78825,9.5725 l -3.22282,0.42749 -8.23938,-6.19192 c -11.66701,-8.7678 -24.624459,-20.13541 -35.987266,-31.57177 l -9.780097,-9.8434 8.850729,-1.07182 c 37.522414,-4.54398 74.505234,-20.21548 104.575634,-44.31403 7.27149,-5.8274 21.29548,-19.74566 26.75742,-26.55567 3.99958,-4.98673 4.09939,-5.06113 5.18313,-3.86362 4.32205,4.77582 14.6533,8.99111 24.58018,10.02905 l 6.73604,0.70431 2.79562,3.91772 c 7.40071,10.37116 20.79205,16.91181 34.62527,16.91181 h 5.6839 l 2.37676,3.45093 c 3.46288,5.02795 9.18829,9.9178 14.86763,12.69784 7.25171,3.54972 11.15778,4.42353 20.23299,4.52622 l 7.84141,0.0887 3.64126,3.5718 c 2.00269,1.96449 4.91885,4.48013 6.48036,5.59032 6.18271,4.39575 16.51134,8.21524 25.43353,9.40523 2.39217,0.31906 2.84331,0.57553 2.53185,1.43936 -0.20844,0.57812 -2.7131,6.20911 -5.56592,12.51333 -18.49249,40.86513 -45.81361,78.87961 -70.71927,98.39847 -3.76132,2.94779 -4.23082,3.00071 -14.65936,1.65249 z"
   id="path2" /><path
   style="fill:#ffffff;stroke-width:0.619579"
   d="m 375.15489,327.67156 c -12.4877,-2.53558 -19.87409,-6.50409 -24.18005,-12.99129 -3.33999,-5.03191 -5.20071,-6.01972 -10.20656,-5.41843 -7.12941,0.85637 -13.00156,0.54131 -17.41547,-0.93439 -7.44381,-2.48868 -13.84906,-7.63836 -16.17679,-13.00579 -2.4923,-5.74686 -6.67883,-8.27434 -11.4917,-6.93771 -5.28995,1.46913 -14.05509,0.24005 -20.08735,-2.81672 -4.68124,-2.37217 -9.5377,-7.21664 -10.71801,-10.69156 -1.2157,-3.57911 -1.94379,-4.54756 -4.66687,-6.20757 -2.45598,-1.49718 -4.16091,-1.60879 -9.52108,-0.62326 -6.35879,1.16913 -13.49978,-1.30255 -19.5691,-6.77338 l -2.53782,-2.28757 2.26603,-3.71747 c 1.24632,-2.04461 3.92884,-6.85409 5.96114,-10.68773 2.03231,-3.83365 3.83646,-6.97026 4.00923,-6.97026 0.17276,0 1.05419,0.52262 1.95871,1.16139 4.91325,3.4697 16.90721,8.13229 20.91934,8.13229 0.81871,0 2.17665,1.03095 3.52444,2.67575 4.16603,5.08408 15.31128,11.75632 25.83774,15.46808 4.21684,1.4869 6.35981,1.8705 10.75272,1.92474 l 5.4863,0.0677 1.46155,2.87554 c 1.68696,3.31903 4.97101,6.31653 11.10984,10.14044 6.61637,4.12138 12.83738,5.97387 21.36588,6.36232 l 7.11557,0.3241 4.28539,4.58875 c 3.67559,3.93578 5.17575,5.01869 10.54242,7.61012 6.43439,3.10702 15.93339,5.80839 23.08899,6.56617 l 3.82081,0.40462 -3.77526,11.07822 -3.77527,11.07822 -4.0728,-0.0719 c -2.24004,-0.0395 -4.63043,-0.18509 -5.31197,-0.32348 z"
   id="path3" /><path
   style="fill:#ffffff;stroke-width:0.619579"
   d="m 386.06752,286.2177 c -5.67749,-1.23172 -9.78895,-2.64746 -13.80173,-4.75252 -4.22653,-2.21717 -5.78327,-3.79617 -8.24741,-8.36537 -3.04327,-5.64305 -6.28179,-6.65016 -14.63153,-4.55011 -8.14552,2.04869 -22.67845,-5.27137 -26.23973,-13.21663 -0.78014,-1.7405 -2.17566,-3.86157 -3.10115,-4.71349 -1.58786,-1.46163 -2.09028,-1.55122 -8.91267,-1.58921 -6.38795,-0.0356 -7.8502,-0.25766 -12.55578,-1.90691 -9.62046,-3.37186 -16.70282,-8.16547 -19.2431,-13.02446 -1.60562,-3.07118 -3.60438,-3.99847 -9.70848,-4.5041 -4.18271,-0.34647 -6.44441,-0.904 -9.46324,-2.33277 -3.97378,-1.88073 -11.09207,-6.80414 -11.09207,-7.6719 0,-0.25402 1.65016,-2.68743 3.66702,-5.40756 8.24642,-11.12195 17.96439,-16.18663 31.11584,-16.21652 8.50116,-0.0193 20.31978,2.9117 23.43708,5.81242 2.268,2.11041 3.97147,2.85092 6.55827,2.85092 1.47286,0 6.0466,1.63277 12.89698,4.60408 25.28048,10.96523 37.12139,16.48646 39.11948,18.24081 1.1921,1.04667 3.17171,2.04351 4.47461,2.25319 1.28517,0.20682 2.93932,0.4985 3.67589,0.64818 2.50033,0.50807 10.6804,6.51323 14.13011,10.37319 6.08216,6.80548 10.2104,16.60084 11.15069,26.458 0.37707,3.95287 -0.33536,11.05295 -1.56977,15.64436 l -0.62466,2.32342 -3.53869,-0.0493 c -1.94628,-0.0271 -5.31947,-0.43558 -7.49596,-0.90776 z"
   id="path4" /><path
   style="fill:#ffffff;stroke-width:0.619579"
   d="m 348.20322,200.37513 c -10.39343,-4.71053 -19.17596,-8.68261 -19.51673,-8.82685 -0.34077,-0.14425 0.53759,-2.45589 1.95191,-5.137 10.70048,-20.28475 72.88529,-136.326083 73.25899,-136.706556 0.25993,-0.264632 1.87409,-0.647136 3.58704,-0.850009 2.57486,-0.304954 3.77714,-0.07146 6.93949,1.347719 3.45934,1.552458 7.50917,5.044021 7.50917,6.474033 0,0.511137 -54.48253,152.020733 -54.72729,152.190233 -0.058,0.0402 -8.60915,-3.78105 -19.00258,-8.49157 z"
   id="path5" /><path
   style="fill:#ffffff;stroke-width:0.109527"
   d="m 345.1014,269.15407 c -5.58909,-0.4623 -11.50101,-2.86142 -16.35589,-6.63738 -3.53754,-2.75138 -5.49064,-5.18916 -5.9074,-7.37337 -0.0513,-0.26881 0.11,-0.0398 0.53985,0.7664 3.30628,6.20136 12.69249,11.9577 21.08468,12.93073 1.46431,0.16978 3.57368,0.0708 4.87396,-0.22861 1.84809,-0.42562 2.93942,-0.65341 2.97241,-0.62042 0.0633,0.0633 -1.60568,0.73665 -2.22701,0.89849 -0.6921,0.18027 -2.65895,0.39078 -3.42881,0.36698 -0.27108,-0.008 -0.96939,-0.0546 -1.55179,-0.10282 z"
   id="path6" /><path
   style="fill:#ffffff;stroke-width:0.109527"
   d="m 392.16168,286.9999 c -4.71729,-0.31954 -11.04393,-1.81068 -15.82666,-3.73023 -1.87031,-0.75065 -4.6419,-2.12756 -5.9936,-2.97758 -2.70703,-1.70232 -3.90732,-3.06065 -6.07825,-6.87854 -1.68631,-2.96563 -2.86728,-4.30444 -4.51048,-5.11339 -1.26009,-0.62034 -1.87074,-0.72654 -4.11828,-0.71622 -2.13792,0.01 -2.99424,0.13155 -6.07876,0.86424 -1.63043,0.38729 -3.67702,0.47457 -5.49242,0.23423 -6.05328,-0.80137 -12.98931,-4.25282 -17.40502,-8.66093 -1.60071,-1.59795 -2.47597,-2.80047 -3.49945,-4.8079 -1.40506,-2.75583 -2.73781,-4.56212 -3.96562,-5.37464 -0.23085,-0.15278 -0.81288,-0.38046 -1.29338,-0.50596 -0.79197,-0.20685 -1.35432,-0.2376 -6.01476,-0.32883 -6.69022,-0.13096 -7.96854,-0.26522 -10.82623,-1.13701 -5.20991,-1.58938 -10.36336,-3.91449 -14.14014,-6.37968 -3.39551,-2.21634 -6.09856,-4.83422 -7.37304,-7.14072 -1.34582,-2.43559 -2.3927,-3.31152 -4.78717,-4.00541 -1.03535,-0.30003 -2.85787,-0.57265 -6.2528,-0.93531 -3.60989,-0.38562 -5.72747,-0.96089 -8.47343,-2.30193 -3.97042,-1.93902 -10.58049,-6.46591 -10.81692,-7.40793 -0.076,-0.30278 0.7443,-1.58361 2.97665,-4.64775 4.53657,-6.22697 8.85646,-10.1869 14.20249,-13.01904 l 1.2531,-0.66385 h 17.48505 17.48504 l 0.85169,0.33708 c 1.64988,0.653 2.88788,1.38717 4.22891,2.50788 1.33161,1.11283 2.50498,1.81234 3.57774,2.13286 0.33132,0.099 1.19385,0.23042 1.91672,0.29205 2.99557,0.2554 5.95704,1.34916 18.72913,6.91725 15.62178,6.81043 26.19099,11.64137 30.64746,14.00826 1.87139,0.99391 2.50467,1.38499 3.61235,2.23083 0.85832,0.65543 2.33066,1.45341 3.19845,1.7335 0.3012,0.0972 1.53338,0.35074 2.73818,0.56339 2.0735,0.36598 2.25491,0.41813 3.39534,0.97603 3.03846,1.48644 8.21042,5.37457 11.44878,8.60684 6.19319,6.18157 10.58862,15.51097 12.04912,25.57457 0.70312,4.84489 0.15512,11.74815 -1.41525,17.82792 l -0.51567,1.99648 -1.74751,0.0129 c -0.96113,0.007 -2.38824,-0.0305 -3.17136,-0.0835 z"
   id="path7" /><path
   style="fill:#ffffff;stroke-width:0.109527"
   d="m 392.87361,287.05292 c -4.58659,-0.26121 -10.47341,-1.52551 -15.20467,-3.26547 -1.85271,-0.68136 -4.33703,-1.80205 -5.87929,-2.6522 -3.81491,-2.10291 -5.0942,-3.42183 -7.60643,-7.84202 -1.59977,-2.81476 -2.84243,-4.21067 -4.44321,-4.99118 -1.07016,-0.52179 -1.81881,-0.68425 -3.44844,-0.74831 -1.78196,-0.07 -3.22172,0.10836 -6.07875,0.75328 -1.48953,0.33623 -2.2944,0.45848 -3.29235,0.50009 -7.28388,0.30363 -17.53972,-4.77141 -22.20558,-10.9883 -0.38933,-0.51875 -1.09183,-1.688 -1.56112,-2.59834 -1.52155,-2.9515 -2.93298,-4.79263 -4.20474,-5.4848 -1.02225,-0.55638 -1.62103,-0.61771 -7.11597,-0.7288 -7.29353,-0.14746 -8.17268,-0.26471 -12.27652,-1.63728 -9.85102,-3.29476 -17.34088,-8.16955 -20.0089,-13.02285 -1.02199,-1.85906 -1.87357,-2.75192 -3.2656,-3.42386 -1.52775,-0.73745 -2.58017,-0.94138 -7.83118,-1.51747 -3.45217,-0.37874 -5.60411,-0.94867 -8.10501,-2.14656 -4.05265,-1.94116 -10.88322,-6.57713 -11.12809,-7.55274 -0.0563,-0.22434 0.12668,-0.56729 0.9885,-1.85268 5.23107,-7.80201 10.17979,-12.64104 16.17637,-15.81782 l 1.26488,-0.67009 h 17.4966 17.49659 l 0.73061,0.28697 c 1.49842,0.58856 3.01987,1.46101 4.01679,2.30337 2.32627,1.96561 3.40907,2.46518 5.80209,2.67696 2.98019,0.26373 6.06009,1.38903 17.74586,6.48379 18.23336,7.94937 29.08258,12.93769 32.90062,15.12723 0.686,0.39341 1.60797,0.99155 2.0488,1.3292 1.03647,0.79387 2.28294,1.50079 3.26268,1.85038 0.42875,0.15298 1.76528,0.45135 2.97008,0.66304 2.0857,0.36648 2.24821,0.41334 3.39534,0.97911 4.2877,2.11471 11.20432,7.77883 14.12012,11.56315 4.35486,5.65207 7.39168,12.38734 8.87454,19.68267 0.63059,3.10232 0.77039,4.4844 0.76773,7.58957 -0.004,4.74825 -0.58211,9.10816 -1.82967,13.80041 l -0.364,1.36909 -1.80315,0.008 c -0.99172,0.005 -2.07421,-0.007 -2.40553,-0.0259 z"
   id="path8" /><path
   style="fill:#ffffff;stroke-width:0.109527"
   d=""
   id="path9" /><path
   style="fill:#ffffff;stroke-width:0.109527"
   d="m 393.96888,287.49116 c -6.28545,-0.2645 -13.83204,-2.00819 -19.44105,-4.49198 -2.56617,-1.13635 -5.02726,-2.62652 -6.79068,-4.11168 -1.13598,-0.95672 -1.7939,-1.69182 -2.52308,-2.819 -0.47732,-0.73787 -1.25561,-2.45209 -1.25561,-2.76556 0,-0.074 0.38991,0.5199 0.86647,1.31982 2.16357,3.63167 3.89155,5.14654 8.38857,7.35408 3.10643,1.52491 5.60964,2.45397 9.0967,3.3762 4.86059,1.2855 7.73717,1.7167 12.31227,1.84561 l 2.49719,0.0704 0.16913,-0.59216 c 1.42798,-4.99943 2.09502,-9.71707 2.09696,-14.83067 0.001,-3.03245 -0.14458,-4.47156 -0.75743,-7.48004 -1.82579,-8.96272 -6.04302,-17.30273 -11.50353,-22.74943 -3.45961,-3.45085 -9.88489,-8.14399 -12.43656,-9.08387 -0.27321,-0.10064 -1.25383,-0.31863 -2.17916,-0.48444 l -1.68241,-0.30147 1.46724,0.0121 1.46724,0.0121 1.36908,0.69231 c 4.92613,2.49101 9.44654,5.86454 12.85563,9.59402 6.46996,7.07804 10.24485,15.40497 11.4188,25.1885 0.2756,2.29676 0.27675,7.74416 0.002,10.07649 -0.3767,3.19931 -0.9479,6.04325 -1.787,8.89725 l -0.39502,1.34353 -1.27198,-0.0211 c -0.69959,-0.0116 -1.59235,-0.0346 -1.98391,-0.0511 z"
   id="path10" /><path
   style="fill:#ffffff;stroke-width:0.109527"
   d="m 305.71888,249.27909 c -6.43428,-0.82741 -16.71805,-5.26587 -22.319,-9.63285 -0.92219,-0.71901 -2.00109,-1.81262 -2.46294,-2.49652 -0.1506,-0.223 -0.33146,-0.40579 -0.40192,-0.4062 -0.1296,-7.6e-4 -0.53945,-1.06737 -0.44604,-1.16079 0.0278,-0.0278 0.26347,0.23414 0.52367,0.58212 0.26021,0.34797 0.96946,1.12564 1.57612,1.72815 3.20443,3.18254 8.29897,6.21344 14.30102,8.50815 5.34938,2.04517 7.13177,2.44161 11.7712,2.61812 1.62485,0.0618 2.97133,0.12946 2.99217,0.1503 0.0208,0.0208 -0.21437,0.092 -0.52269,0.15811 -0.74402,0.15957 -3.60889,0.13179 -5.01159,-0.0486 z"
   id="path11" /><path
   style="fill:#ffffff;stroke-width:0.109527"
   d="m 310.27015,268.7919 -0.90785,-1.81966 -2.68496,-0.0109 -2.68495,-0.0109 2.19054,-0.31736 c 1.2048,-0.17454 2.38769,-0.30518 2.62865,-0.29031 l 0.43811,0.027 1.01911,2.0659 c 0.56051,1.13625 0.99438,2.09063 0.96416,2.12086 -0.0302,0.0302 -0.46349,-0.76389 -0.96281,-1.7647 z"
   id="path12" /><path
   style="fill:#ffffff;stroke-width:0.0387237"
   d="m 268.31905,229.99744 c -4.87014,-0.30337 -10.08845,-2.57607 -15.78446,-6.87453 -1.52021,-1.14723 -4.03955,-3.22522 -4.01557,-3.31211 0.0202,-0.0733 1.08887,-1.7902 1.6834,-2.70457 4.24345,-6.52625 9.04625,-11.45714 14.20279,-14.58158 4.25939,-2.58084 9.1669,-4.135 14.79244,-4.68461 2.5389,-0.24804 5.72652,-0.27696 8.48048,-0.0769 1.39558,0.10137 3.4596,0.33196 4.36609,0.48778 l 0.24203,0.0416 v 0.18965 c 0,0.1043 -0.0131,0.18957 -0.029,0.18948 -0.016,-8e-5 -0.18587,-0.0255 -0.37755,-0.0566 -0.56189,-0.091 -2.03329,-0.28302 -2.80747,-0.36646 -2.93931,-0.31679 -5.64662,-0.3802 -8.32293,-0.19492 -7.46092,0.51651 -13.61718,2.74251 -19.14117,6.92111 -2.24075,1.69501 -4.50119,3.85469 -6.57185,6.2789 -1.41935,1.6617 -3.60328,4.59271 -5.09508,6.83802 -0.68635,1.03303 -0.87052,1.35453 -0.87052,1.51964 0,0.46154 2.14825,2.21087 5.17115,4.21089 2.4747,1.63732 4.72375,2.93041 6.42659,3.69499 2.72516,1.2236 4.83824,1.72571 8.73219,2.07494 1.23943,0.11116 2.32623,0.22921 2.84619,0.30915 l 0.34851,0.0536 -0.58085,-0.0194 c -0.31947,-0.0107 -0.80825,-0.001 -1.08618,0.0206 -0.76797,0.0609 -1.98523,0.0802 -2.60918,0.0413 z"
   id="path13" /><path
   style="fill:#ffffff;stroke-width:0.00390625"
   d="m 252.35156,222.98117 c -0.0118,-0.009 -0.0751,-0.0579 -0.14062,-0.10817 -1.40544,-1.07764 -3.5136,-2.81982 -3.67449,-3.03661 l -0.0171,-0.023 0.0221,-0.0415 c 0.0807,-0.15119 0.5194,-0.86344 1.07388,-1.74349 l 0.12482,-0.19812 0.18635,-1.2e-4 0.18634,-1.3e-4 -0.1965,0.2959 c -0.3699,0.55699 -0.55191,0.84342 -0.69065,1.08691 -0.058,0.1018 -0.10874,0.20827 -0.13172,0.2764 -0.0203,0.0601 -0.0251,0.0906 -0.006,0.04 0.074,-0.19938 0.40038,-0.7329 0.93508,-1.52832 l 0.11488,-0.1709 h 1.8667 1.86669 v 2.58398 2.58399 l -0.40527,-4e-5 -0.40527,-5e-5 -0.0625,-0.0436 c -0.42412,-0.29563 -0.83708,-0.59057 -1.17969,-0.84255 -1.47571,-1.08536 -2.42803,-1.91587 -2.67667,-2.33429 -0.0436,-0.0734 -0.0627,-0.12267 -0.0673,-0.17404 l -0.003,-0.0332 -5.4e-4,0.0346 c -3.1e-4,0.0197 0.002,0.0442 0.005,0.0569 0.11267,0.43482 1.55027,1.66101 3.76129,3.20816 l 0.18309,0.12812 -0.32371,-3e-5 -0.32371,-3e-5 z"
   id="path14" /><path
   style="fill:#ffffff;stroke-width:0.00390625"
   d="m 252.30078,222.9754 c -0.0161,-0.0125 -0.0864,-0.0664 -0.15625,-0.11993 -1.02503,-0.78567 -2.08981,-1.65415 -3.29492,-2.68747 -0.38541,-0.33047 -0.37736,-0.32343 -0.3755,-0.32827 0.003,-0.007 0.33184,-0.55531 0.43598,-0.72645 0.24922,-0.40956 0.53479,-0.86948 0.76341,-1.22949 0.0332,-0.0522 0.0345,-0.0537 0.0477,-0.0537 0.01,0 0.0128,10e-4 0.0108,0.005 -0.002,0.003 -0.0726,0.11563 -0.15787,0.25098 -0.49819,0.79072 -0.93043,1.49215 -1.03102,1.67311 -0.0135,0.0243 -0.0246,0.0485 -0.0246,0.0537 0,0.0469 0.43353,0.43236 1.23926,1.10172 0.80339,0.66741 1.92476,1.56388 2.54492,2.03453 0.0685,0.052 0.0659,0.0491 0.0448,0.0491 -0.0153,-1e-5 -0.0211,-0.003 -0.0467,-0.0226 z"
   id="path15" /><path
   style="fill:#ffffff;stroke-width:0.00390625"
   d="m 251.44922,222.27874 c -0.95193,-0.75289 -2.01021,-1.6236 -2.53906,-2.08902 -0.19392,-0.17065 -0.36348,-0.33179 -0.38219,-0.36319 l -0.008,-0.0133 0.012,-0.0238 c 0.0848,-0.16875 0.95366,-1.56683 1.52108,-2.44762 l 0.0868,-0.13477 0.19995,-0.001 0.19994,-0.001 -0.0135,0.0186 c -0.057,0.0787 -0.40946,0.60028 -0.6135,0.90784 -0.51262,0.77268 -0.71935,1.11095 -0.8014,1.31128 -0.0164,0.0401 -0.0388,0.10977 -0.036,0.11248 6.9e-4,6.9e-4 0.009,-0.0176 0.0182,-0.0406 0.1132,-0.28028 0.63676,-1.10268 1.44065,-2.26294 l 0.0309,-0.0446 1.653,-9.8e-4 1.653,-9.8e-4 v 2.58399 2.58399 h -0.8474 -0.84739 l -0.1653,-0.12029 c -1.69538,-1.23376 -2.74997,-2.16087 -2.91355,-2.56137 -0.0146,-0.0358 -0.0217,-0.0644 -0.0248,-0.0996 -8.4e-4,-0.01 -0.001,8.8e-4 -5.1e-4,0.0234 0.001,0.0478 0.008,0.0713 0.0377,0.13071 0.18632,0.37199 1.03592,1.13984 2.36868,2.14075 0.19713,0.14805 0.36471,0.2719 0.54687,0.40416 0.0602,0.0437 0.11011,0.08 0.111,0.0808 9e-4,7.7e-4 -0.12654,0.001 -0.2832,0.001 l -0.28483,-4e-5 z"
   id="path16" /><path
   style="fill:#ffffff;stroke-width:0.00390625"
   d="m 248.55058,219.85449 c -0.0221,-0.0249 -0.0309,-0.0397 -0.028,-0.0474 0.0185,-0.0489 0.36014,-0.61028 0.77167,-1.26805 0.93799,-1.49925 1.57176,-2.45549 2.4421,-3.68467 l 0.10547,-0.14895 0.24121,-1.8e-4 c 0.13266,-1e-4 0.24121,8e-4 0.24121,0.002 0,10e-4 -0.0102,0.0157 -0.0228,0.0322 -0.0125,0.0165 -0.086,0.11617 -0.16337,0.22145 -0.92936,1.26515 -1.78039,2.48516 -2.45917,3.52539 -0.3925,0.60152 -0.55138,0.87827 -0.59635,1.03875 -0.0102,0.0364 -0.006,0.0317 0.0112,-0.0114 0.0982,-0.25123 0.58332,-1.01815 1.32945,-2.10156 0.51406,-0.74644 1.27829,-1.81815 1.88024,-2.63672 l 0.0503,-0.0684 0.75866,-9.9e-4 0.75866,-9.8e-4 v 2.58399 2.584 h -2.33367 -2.33367 l -0.0329,-0.0498 c -0.057,-0.0862 -0.0838,-0.14272 -0.0947,-0.19955 l -0.006,-0.0299 0.002,0.0312 c 0.003,0.0529 0.0331,0.1235 0.0887,0.20783 l 0.0265,0.0402 h -0.31015 -0.31015 z"
   id="path17" /><path
   style="fill:#ffffff;stroke-width:0.0883883"
   d="m 241.9631,267.90777 c -4.14552,-1.15828 -8.38841,-3.73642 -12.01553,-7.3011 l -1.67978,-1.65087 0.43306,-0.69608 c 3.86348,-6.21 7.70938,-13.22123 10.77212,-19.638 0.47111,-0.98702 0.88603,-1.77634 0.92204,-1.75404 0.036,0.0223 0.80952,0.53898 1.71889,1.14818 1.84915,1.23879 3.53078,2.25856 5.06273,3.07014 0.56478,0.29919 1.0059,0.56496 0.98028,0.59058 -0.0559,0.0559 -2.19474,-1.02865 -3.39375,-1.72078 -0.47054,-0.27161 -1.31292,-0.80021 -1.87198,-1.17467 -0.98865,-0.66219 -1.94576,-1.23745 -2.05888,-1.23745 -0.18717,0 -1.69572,2.6087 -4.21682,7.29204 -3.09421,5.74797 -4.56399,8.35249 -6.64672,11.77825 -0.77599,1.27639 -1.39771,2.35372 -1.38159,2.39407 0.0484,0.12123 2.97196,2.7292 3.87418,3.45598 2.35569,1.8976 4.66822,3.277 7.18812,4.28763 1.46693,0.58832 2.36272,0.86013 3.94882,1.19821 l 1.19324,0.25433 -0.88389,-3e-5 c -0.73286,-4e-5 -1.0651,-0.0507 -1.94454,-0.29639 z"
   id="path18" /><path
   style="fill:#ffffff;stroke-width:0.0883883"
   d="m 321.9404,253.05398 c -0.87234,-1.46341 -2.02245,-2.75735 -2.91666,-3.28139 -0.99444,-0.58278 -2.1615,-0.70093 -7.71998,-0.78154 -6.24482,-0.0906 -7.69791,-0.26725 -10.9833,-1.33542 -6.95817,-2.26229 -12.76666,-5.24588 -16.68225,-8.569 -1.03709,-0.88016 -2.51416,-2.41649 -3.15629,-3.2829 -0.29491,-0.39791 -0.74583,-1.09397 -1.00206,-1.54679 -1.04299,-1.84325 -1.7991,-2.64009 -3.12452,-3.29288 -1.46865,-0.72332 -2.90868,-1.02315 -6.81507,-1.41896 -3.44614,-0.34917 -4.9553,-0.63822 -6.93181,-1.32764 -2.43932,-0.85086 -5.11416,-2.3109 -9.04439,-4.93682 -0.9115,-0.609 -1.65728,-1.09411 -1.65728,-1.07802 0,0.0498 1.40526,1.04764 2.51907,1.78871 4.20188,2.79573 7.41288,4.32026 10.56241,5.01488 1.08741,0.23983 3.01406,0.50324 4.94974,0.67674 1.9541,0.17515 1.6087,0.28136 -0.7513,0.23104 -1.40814,-0.03 -2.3739,-0.0933 -2.87262,-0.18825 -4.55936,-0.86789 -8.8247,-2.95301 -14.05375,-6.87021 -1.33527,-1.00028 -3.5599,-2.81442 -3.6703,-2.99305 -0.10244,-0.16576 2.13738,-3.58515 3.84788,-5.87429 7.30157,-9.77162 15.03627,-14.61298 25.48535,-15.95197 4.01296,-0.51424 9.31891,-0.44329 13.59371,0.18177 0.55441,0.0811 0.6949,0.1319 0.6949,0.25146 0,0.14052 -0.0702,0.14009 -1.12695,-0.007 -2.99731,-0.41723 -3.8565,-0.47258 -7.31414,-0.4712 -3.58719,0.001 -4.55529,0.0725 -7.28782,0.53462 -9.04132,1.52923 -16.51338,6.24404 -22.89391,14.44586 -0.73367,0.94309 -2.93359,3.9708 -3.13085,4.30894 -0.0354,0.0608 -0.0455,0.11048 -0.0224,0.11048 0.0231,0 0.27033,-0.32814 0.54934,-0.7292 2.4515,-3.52389 5.35064,-6.96309 7.67497,-9.10472 5.97773,-5.50784 12.34483,-8.39732 20.51448,-9.30977 1.71836,-0.19192 5.82551,-0.26187 7.68978,-0.13097 7.06941,0.4964 15.38208,2.56308 19.01737,4.72808 0.38128,0.22706 1.17053,0.81182 1.75389,1.29946 2.19199,1.83229 3.39687,2.35028 5.83363,2.50791 1.08852,0.0704 2.27656,0.35232 4.11275,0.9759 1.43337,0.48679 4.58344,1.69346 4.70417,1.80199 0.0366,0.0329 0.0564,10.00054 0.0442,22.15039 l -0.0223,22.09063 z m -70.47555,-31.18841 c 0,-0.0183 -0.0696,-0.088 -0.15468,-0.15468 -0.14019,-0.10994 -0.14332,-0.10681 -0.0334,0.0334 0.11547,0.14723 0.18805,0.19405 0.18805,0.1213 z m -1.5026,-1.23743 c 0,-0.0184 -0.0696,-0.088 -0.15468,-0.15468 -0.14019,-0.10995 -0.14332,-0.10682 -0.0334,0.0334 0.11546,0.14723 0.18805,0.19405 0.18805,0.12131 z"
   id="path19" /><path
   style="fill:#ffffff;stroke-width:0.0883883"
   d="m 278.20599,232.79356 c -0.7155,-0.77205 -1.25919,-1.19988 -2.22241,-1.74879 -0.8183,-0.46633 -0.72948,-0.51841 0.16951,-0.0994 1.04584,0.48748 1.81681,1.14708 2.52687,2.16188 0.3488,0.49849 0.16756,0.37854 -0.47397,-0.3137 z"
   id="path20" /><path
   style="fill:#ffffff;stroke-width:0.0883883"
   d="m 274.61634,255.77114 c -3.22702,-2.18722 -5.46573,-4.06656 -7.1509,-6.003 -1.08751,-1.24966 -1.80447,-1.93358 -2.53053,-2.41391 -0.57476,-0.38023 -0.86013,-0.45491 -2.33936,-0.61217 -0.46526,-0.0495 -1.46229,-0.24492 -2.21563,-0.43434 -1.55539,-0.3911 -4.12242,-1.18393 -3.98337,-1.23028 0.0507,-0.0169 0.42359,0.07 0.82855,0.19305 1.95544,0.59438 5.10415,1.24448 7.10025,1.46596 0.48614,0.0539 0.96694,0.11484 1.06845,0.13533 0.11125,0.0224 0.51953,0.48572 1.02772,1.16611 2.12695,2.84771 4.92427,5.41021 8.51419,7.79949 1.0647,0.70862 1.1821,0.79819 1.04623,0.79819 -0.0496,0 -0.66414,-0.389 -1.3656,-0.86443 z"
   id="path21" /><path
   style="fill:#ffffff;stroke-width:0.0883883"
   d="m 321.11487,307.42707 c -3.92037,-1.66698 -7.27888,-3.88567 -9.95979,-6.57961 -1.79756,-1.8063 -2.80948,-3.25037 -4.03833,-5.76296 -1.00474,-2.05438 -1.69476,-3.1216 -2.70388,-4.18202 -0.88692,-0.93199 -1.52138,-1.43581 -2.41543,-1.91806 -1.91929,-1.03525 -3.94612,-1.23185 -6.42681,-0.6234 -1.79683,0.44071 -2.9733,0.56759 -5.21491,0.56238 -5.09665,-0.0119 -10.43946,-1.2486 -14.69615,-3.40185 -3.56747,-1.80462 -7.32882,-5.07246 -9.42252,-8.18623 -0.68491,-1.01861 -1.06403,-1.78639 -1.56298,-3.16525 -0.99665,-2.75428 -1.7397,-3.76344 -3.75167,-5.09523 -2.79839,-1.85235 -4.36895,-2.06762 -9.15269,-1.2545 -2.31693,0.39382 -3.7187,0.51816 -5.03364,0.44648 -4.38086,-0.23881 -8.70575,-1.86211 -12.81631,-4.81048 -1.2205,-0.87542 -3.50825,-2.81421 -5.019,-4.25343 l -0.24604,-0.23439 1.31463,-2.16084 c 2.06568,-3.39533 3.88201,-6.61542 7.00222,-12.4139 1.70841,-3.17483 3.06746,-5.58707 3.55882,-6.31671 l 0.29583,-0.43927 0.43586,0.2317 c 0.23972,0.12744 0.96411,0.58509 1.60976,1.01701 5.21154,3.48638 15.66376,7.61537 20.29589,8.01759 0.75175,0.0653 1.01214,0.12719 1.38236,0.32869 0.64471,0.3509 1.50996,1.10235 2.27771,1.97816 1.69391,1.93231 3.17501,3.30212 5.32509,4.92497 5.76491,4.35128 14.24614,8.72481 21.8293,11.25675 4.02114,1.34262 5.4227,1.54155 11.56095,1.64095 l 3.74113,0.0606 0.73947,1.47701 c 0.40671,0.81235 0.91827,1.77944 1.13681,2.14908 1.19033,2.01337 3.28184,4.16231 6.10385,6.27148 0.99623,0.74457 3.57325,2.4916 4.62386,3.13461 l 0.46404,0.28402 v 13.7452 c 0,7.55987 -0.0298,13.74432 -0.0663,13.74324 -0.0365,-0.001 -0.56347,-0.21338 -1.17114,-0.47177 z"
   id="path22" /><path
   style="fill:#ffffff;stroke-width:0.0883883"
   d="m 303.82054,290.58905 c -1.04286,-0.9667 -2.3459,-1.6557 -3.8866,-2.0551 -0.6396,-0.16581 -1.01908,-0.20352 -2.06521,-0.20519 -1.43086,-0.002 -1.86073,0.0708 -3.3594,0.57145 -1.24662,0.41643 -2.08421,0.52752 -3.97451,0.52713 -4.88254,-0.001 -10.35598,-1.24343 -14.64042,-3.32325 -3.76204,-1.82622 -7.30588,-4.62792 -9.44397,-7.46626 -1.17666,-1.56203 -1.55746,-2.33089 -1.98891,-4.01568 -0.47308,-1.8474 -1.22402,-3.20588 -2.44963,-4.43148 -0.35772,-0.35772 -0.61401,-0.6504 -0.56954,-0.6504 0.15899,0 1.44525,1.27757 1.77312,1.76113 0.50166,0.73989 0.77177,1.31531 1.39303,2.96764 0.92831,2.46896 1.78569,3.78226 3.9153,5.99729 2.52608,2.6274 5.44425,4.69989 8.39689,5.9635 4.23722,1.81336 8.84611,2.76677 13.43503,2.77923 2.24614,0.006 3.42872,-0.12101 5.21491,-0.56052 2.71627,-0.66835 4.89628,-0.36597 6.93849,0.96242 0.77143,0.50179 2.07824,1.63287 1.98874,1.7213 -0.0243,0.024 -0.3291,-0.22043 -0.67732,-0.54321 z"
   id="path23" /><path
   style="fill:#ffffff;stroke-width:0.0883883"
   d="m 244.87921,268.52317 c -0.48652,-0.0692 -1.04337,-0.16298 -1.23743,-0.2084 -0.30924,-0.0724 -0.25453,-0.0837 0.44264,-0.0917 0.43752,-0.005 1.41977,0.0364 2.18277,0.0921 1.69333,0.1236 2.909,0.0343 5.48167,-0.40263 3.82297,-0.64929 5.50308,-0.60978 7.26838,0.17092 0.2821,0.12476 0.49803,0.2409 0.47984,0.2581 -0.0182,0.0172 -0.43083,-0.10198 -0.91697,-0.26484 -1.2008,-0.40225 -1.99053,-0.51115 -3.31456,-0.45705 -0.82092,0.0335 -1.38879,0.11544 -2.20971,0.31871 -2.13557,0.5288 -3.05118,0.64722 -5.25911,0.68022 -1.43375,0.0214 -2.29365,-0.007 -2.91752,-0.0955 z"
   id="path24" /><path
   style="fill:#ffffff;stroke-width:0.0883883"
   d="m 251.55026,287.72963 c -0.59739,-0.84049 -1.09789,-1.54297 -1.11221,-1.56108 -0.0143,-0.0181 -1.46964,-0.18444 -3.23403,-0.36963 -3.89666,-0.409 -4.06977,-0.43459 -2.50088,-0.36973 0.68059,0.0281 2.24837,0.0543 3.48395,0.0582 l 2.24652,0.007 0.48161,0.83969 c 0.26489,0.46183 0.77744,1.29168 1.13901,1.84412 0.36157,0.55244 0.64047,1.02135 0.6198,1.04203 -0.0207,0.0207 -0.52638,-0.65008 -1.12377,-1.49057 z"
   id="path25" /><path
   style="fill:#ffffff;stroke-width:0.0883883"
   d="m 206.82873,286.99216 c 0,-0.0269 0.53277,-0.63351 1.18394,-1.34792 2.52521,-2.77047 5.37537,-6.12584 7.82302,-9.20968 0.79099,-0.99658 1.56399,-1.96587 1.71778,-2.15398 l 0.27961,-0.34202 1.23744,1.12597 c 2.76453,2.51551 4.83122,3.96607 7.95495,5.58336 0.77782,0.40271 1.36131,0.73315 1.29664,0.73431 -0.16354,0.003 -2.67817,-1.21654 -3.6644,-1.77704 -2.18064,-1.23932 -3.56187,-2.25584 -5.11427,-3.76387 -0.9174,-0.89118 -1.16487,-1.08611 -1.37885,-1.08611 -0.55434,0 -1.20279,0.65357 -3.7113,3.74061 -0.90147,1.10938 -2.22011,2.6794 -2.93032,3.48895 -1.32996,1.516 -4.59068,5.05642 -4.65695,5.05642 -0.0205,0 -0.0373,-0.022 -0.0373,-0.049 z"
   id="path26" /><path
   style="fill:#ffffff;stroke-width:0.0883883"
   d="m 126.7047,398.44126 c -4.13723,-2.96378 -5.08233,-3.68596 -5.08233,-3.88352 0,-0.16802 0.48342,0.1635 2.9831,2.04578 2.1276,1.60208 3.04989,2.24666 3.21596,2.24759 0.3832,0.002 3.49828,-0.4312 4.49593,-0.62544 6.40524,-1.24709 17.63399,-5.42343 26.24768,-9.76237 13.73108,-6.91671 25.18359,-15.14348 38.13931,-27.3969 0.9252,-0.87505 3.70279,-3.59451 6.17242,-6.04326 2.46964,-2.44874 4.51349,-4.42902 4.5419,-4.40062 0.0775,0.0775 -2.75997,3.09993 -5.84904,6.23028 -16.97031,17.19703 -34.83663,29.46104 -53.78317,36.91847 -6.4362,2.53331 -13.19079,4.45864 -17.67881,5.03917 -0.60767,0.0786 -1.35168,0.19976 -1.65335,0.26923 -0.30167,0.0695 -0.5801,0.1252 -0.61872,0.12386 -0.0386,-10e-4 -0.54752,-0.34436 -1.13088,-0.76227 z"
   id="path27" /><path
   style="fill:#ffffff;stroke-width:0.0883883"
   d="m 172.84341,402.15388 c 9.86121,-5.68501 19.18512,-12.10309 26.68509,-18.36857 9.38037,-7.83637 23.45418,-21.8677 24.99665,-24.9212 1.28645,-2.54667 1.26986,-5.87409 -0.0424,-8.4927 -0.94819,-1.8922 -2.75067,-3.57891 -4.57733,-4.28334 -1.05955,-0.40861 -2.25213,-0.63194 -3.66337,-0.68603 -1.09208,-0.0419 -1.32035,-0.0247 -1.94337,0.14624 -2.40855,0.6608 -4.02311,1.99328 -12.10732,9.99205 -6.74101,6.66976 -10.22463,9.89151 -15.20585,14.06283 -13.24814,11.09411 -27.54512,19.40556 -43.13351,25.07537 -4.53275,1.64864 -8.73792,2.90919 -11.53468,3.45765 -1.20667,0.23663 -4.31625,0.65128 -4.54963,0.60667 -0.0996,-0.019 -1.52312,-1.04127 -3.16327,-2.27159 l -2.98209,-2.23696 v -26.40985 -26.40984 l 0.99436,-0.32925 c 12.43751,-4.11814 25.7315,-10.10055 37.85231,-17.03385 11.38504,-6.51242 23.10992,-14.79374 31.20077,-22.03719 4.14835,-3.71386 10.5918,-9.97706 14.64499,-14.23531 l 2.04843,-2.15207 h 18.19803 18.19803 l 2.62357,0.26622 c 1.44297,0.14641 2.71102,0.29557 2.81789,0.33145 0.11777,0.0395 0.8838,1.02853 1.94455,2.51053 2.00952,2.80754 2.89454,3.90244 4.44519,5.49933 7.0831,7.2943 17.15465,11.85674 28.01556,12.69112 0.65384,0.0502 2.90643,0.0913 5.00574,0.0913 h 3.81694 l 1.22563,1.78701 c 2.2367,3.26118 3.30676,4.58737 5.3333,6.6099 3.33519,3.32857 7.20571,6.09927 11.18352,8.00566 3.95561,1.89575 7.18229,3.03539 9.98788,3.52765 0.43752,0.0768 0.88499,0.15895 0.99437,0.18263 l 0.19887,0.0431 v 37.69594 37.69595 h -16.61701 c -9.13935,0 -16.61701,-0.0222 -16.61701,-0.0493 0,-0.0271 0.39066,-0.55414 0.86813,-1.17115 1.54743,-1.99966 3.48227,-4.60548 5.19727,-6.99965 5.92623,-8.2731 6.69949,-9.81167 6.54848,-13.02939 -0.0597,-1.27152 -0.28017,-2.19428 -0.76836,-3.21551 -0.49768,-1.04109 -0.91065,-1.63236 -1.75208,-2.50854 -1.84708,-1.92338 -4.3205,-2.99843 -6.91146,-3.00399 -1.59336,-0.003 -2.66256,0.23955 -4.01155,0.91163 -0.59173,0.29481 -0.86777,0.51207 -1.57767,1.24172 -1.50834,1.5503 -3.71366,4.30354 -6.32105,7.89157 -5.11968,7.04518 -9.078,12.0698 -13.6833,17.36937 -0.73928,0.85073 -1.53775,1.7729 -1.77436,2.04925 l -0.4302,0.50247 -46.18291,0.004 -46.18291,0.004 z"
   id="path28" /><path
   style="fill:#ffffff;stroke-width:0.0883883"
   d="m 121.62237,341.24021 c 0,-0.0393 0.78555,-0.34066 1.74567,-0.66977 12.44341,-4.26527 25.48642,-10.14972 36.61487,-16.51906 11.72298,-6.70962 22.56132,-14.41292 32.33659,-22.9831 0.98913,-0.8672 1.81671,-1.55843 1.83906,-1.53608 0.0777,0.0777 -3.8254,3.58742 -6.02396,5.41685 -4.53773,3.77584 -11.63388,8.95178 -17.50601,12.76891 -7.06292,4.59119 -13.42362,8.22651 -21.07551,12.04524 -7.472,3.72897 -14.19359,6.63548 -21.74353,9.40224 -1.68821,0.61867 -6.06503,2.14616 -6.14951,2.14616 -0.0207,0 -0.0377,-0.0321 -0.0377,-0.0714 z"
   id="path29" /><path
   style="fill:#ffffff;stroke-width:0.0883883"
   d=""
   id="path30" /><path
   style="fill:#ffffff;stroke-width:0.0883883"
   d=""
   id="path31" /><path
   style="fill:#ffffff;stroke-width:0.0883883"
   d=""
   id="path32" /><path
   style="fill:#ffffff;stroke-width:0.0883883"
   d="m 211.73429,442.52397 c -22.10846,-8.01164 -42.25617,-17.44163 -60.9796,-28.54105 l -2.02456,-1.20018 0.38938,-0.12621 c 2.76118,-0.89498 8.79553,-3.36027 13.07311,-5.34093 3.84335,-1.77961 8.18752,-4.02639 11.96186,-6.18661 1.01277,-0.57966 1.8603,-1.03502 1.8834,-1.01192 0.0968,0.0968 -5.43754,3.21518 -8.77869,4.94636 -4.39331,2.27636 -7.80744,3.83041 -12.66797,5.76626 -2.73647,1.08987 -4.26618,1.76107 -4.56884,2.00469 -0.17565,0.14139 -0.042,0.30492 0.62057,0.75924 3.94174,2.70292 21.37402,11.75245 32.93965,17.09978 8.08364,3.73746 14.8108,6.53023 26.35963,10.94319 l 4.12996,1.57811 2.76433,-1.46548 c 5.27747,-2.79779 8.28434,-4.58441 12.22188,-7.262 8.55551,-5.81789 16.6689,-12.61216 25.39839,-21.26898 9.70859,-9.62776 17.39876,-18.62828 25.6037,-29.96637 1.24178,-1.71597 2.92008,-3.95311 3.69669,-4.92761 0.14526,-0.18228 0.28212,-0.31341 0.30414,-0.2914 0.0442,0.0442 -1.47057,2.24929 -3.37269,4.90966 -12.63034,17.66515 -26.85111,32.85678 -41.90751,44.76856 -7.40697,5.85999 -15.5242,11.22827 -21.50478,14.22208 -1.11837,0.55985 -3.10451,1.48273 -3.14487,1.46131 -0.006,-0.003 -1.08462,-0.39485 -2.39718,-0.8705 z"
   id="path33" /><path
   style="fill:#ffffff;stroke-width:0.0625"
   d="m 295.875,461.61588 c -0.12031,-0.0112 -0.6125,-0.05 -1.09375,-0.0863 -14.56463,-1.0976 -35.32481,-4.90121 -53.65625,-9.83072 -3.59542,-0.96685 -3.50478,-0.93985 -3.42162,-1.01914 0.0428,-0.0408 0.69662,-0.47469 1.45287,-0.96414 4.24797,-2.74928 6.32853,-4.22096 9.96875,-7.05137 5.86154,-4.55758 11.71815,-9.69557 17.49884,-15.3517 1.01883,-0.99688 2.05821,-2.03047 2.30973,-2.29688 0.29003,-0.30718 0.50565,-0.48437 0.58944,-0.48437 0.15906,0 -1.45308,1.63495 -4.55426,4.61868 -4.60362,4.42927 -8.29942,7.72332 -12.65625,11.28044 -3.87139,3.16078 -6.42862,5.06395 -11.34375,8.44236 -2.58436,1.77635 -2.56973,1.76587 -2.52566,1.80994 0.0498,0.0499 4.18438,1.14222 6.74441,1.78192 15.1982,3.79772 33.92746,7.28175 45.70127,8.50138 5.1256,0.53095 6.35532,0.298 9.01748,-1.70819 1.43556,-1.08183 4.18094,-3.34833 6.18174,-5.10344 7.98311,-7.0028 16.42132,-16.06325 24.53623,-26.34556 0.84262,-1.06766 1.75703,-2.2405 2.03203,-2.6063 0.48224,-0.64146 0.50859,-0.66519 0.74179,-0.66816 l 0.2418,-0.003 -0.17647,0.23437 c -0.86003,1.14226 -3.94803,4.98606 -5.73659,7.14063 -10.54705,12.70539 -21.20904,23.17335 -29.65848,29.11875 l -0.89712,0.63125 -0.53872,-0.01 c -0.29629,-0.005 -0.63715,-0.0192 -0.75746,-0.0304 z"
   id="path34" /><path
   style="fill:#ffffff;stroke-width:0.0220971"
   d="m 383.97003,328.65903 c -5.29755,-0.1898 -9.00341,-0.63104 -12.97099,-1.5444 -6.72069,-1.54715 -12.33442,-4.13881 -16.25301,-7.50344 -0.93273,-0.80088 -1.86937,-1.74996 -2.61039,-2.64505 l -0.19666,-0.23755 h 0.27489 0.2749 l 0.28511,0.32594 c 1.20554,1.37814 2.59893,2.62527 4.18246,3.74344 4.0339,2.84843 9.4369,4.97211 16.71645,6.57052 1.42242,0.31232 1.68966,0.36071 2.30914,0.41805 1.12402,0.10404 2.53972,0.17339 4.34208,0.21271 1.03903,0.0227 4.21733,0.0812 4.22327,0.0778 0.002,-8.6e-4 0.87168,-2.55213 1.93373,-5.66947 l 1.931,-5.66791 0.20416,-0.006 c 0.11274,-0.004 0.20417,0.003 0.20417,0.0138 0,0.0198 -0.65792,1.92425 -1.11199,3.21875 -0.67271,1.91784 -1.73734,4.89355 -2.63261,7.35833 -0.46157,1.27074 -0.49269,1.34807 -0.54354,1.35051 -0.0297,0.001 -0.28264,-0.006 -0.56217,-0.0156 z"
   id="path35" /><path
   style="fill:#ffffff;stroke-width:0.015625"
   d="m 354.90256,340.39993 c -2.4592,-1.193 -4.71749,-2.53105 -6.41037,-3.79817 -1.47491,-1.10396 -3.88406,-3.18483 -5.61673,-4.85137 -0.2715,-0.26115 -3.16191,-3.09231 -3.69649,-3.62073 l -0.37572,-0.37139 -2.72584,-0.0312 c -1.49922,-0.0172 -3.37272,-0.0384 -4.16335,-0.0473 -3.18447,-0.0356 -4.7868,-0.0929 -6.58594,-0.23566 -2.00461,-0.15908 -3.51808,-0.38102 -5.33203,-0.78191 l -0.0742,-0.0164 v -0.13933 c 0,-0.0766 0.005,-0.13933 0.0117,-0.13933 0.006,0 0.19102,0.0417 0.41016,0.0927 2.75758,0.64151 5.5408,1.0074 8.71094,1.14514 0.60337,0.0262 2.98662,0.0262 3.59375,-9e-5 2.10316,-0.0909 3.874,-0.25817 5.74211,-0.54226 0.19331,-0.0294 0.35626,-0.0485 0.36209,-0.0424 0.006,0.006 0.13057,0.15791 0.27718,0.33744 1.62308,1.98749 3.47246,3.90626 5.44674,5.6511 3.09479,2.73513 6.67468,5.17904 10.44893,7.13323 l 0.48018,0.24862 2.9e-4,0.1211 c 1.6e-4,0.0666 -0.005,0.12109 -0.0115,0.12109 -0.007,0 -0.22785,-0.10479 -0.49187,-0.23288 z"
   id="path36" /><path
   style="fill:#ffffff;stroke-width:0.015625"
   d="m 319.39844,326.51625 c -2.62327,-0.66024 -5.29688,-1.70376 -8.75,-3.41514 -1.37012,-0.67903 -2.55897,-1.36023 -3.83985,-2.20019 l -0.27734,-0.18187 v -0.0987 c 0,-0.075 0.005,-0.0958 0.0195,-0.0867 0.0107,0.007 0.22344,0.14647 0.47266,0.31076 2.20729,1.45513 4.43243,2.61495 6.96231,3.62898 1.72635,0.69196 3.60366,1.30104 5.42831,1.76118 0.26641,0.0672 0.48994,0.1269 0.49674,0.13272 0.007,0.006 0.0103,0.0709 0.008,0.14467 l -0.005,0.13409 z"
   id="path37" /><path
   style="fill:#ffffff;stroke-width:0.0625"
   d="m 331.1875,310.27234 c -3.2022,-0.23965 -7.06346,-1.14471 -10.09732,-2.36675 -1.0333,-0.41621 -2.84449,-1.29136 -3.80893,-1.84042 -4.11506,-2.34274 -7.80225,-5.74512 -9.7231,-8.97202 -0.49684,-0.83467 -0.75329,-1.39405 -1.09647,-2.39167 -0.43882,-1.27565 -1.03237,-2.36245 -1.7517,-3.20739 -0.3088,-0.36274 -0.30673,-0.51055 0.002,-0.16058 0.655,0.74189 1.44655,1.96254 1.97156,3.04037 0.20123,0.41312 0.54976,1.13081 0.77452,1.59487 1.83921,3.79741 5.89229,7.59842 10.97919,10.29636 1.93048,1.02387 4.45311,2.02242 6.36115,2.51798 3.75171,0.9744 8.46692,1.21619 14.01385,0.71861 l 0.34375,-0.0308 -0.25,0.0962 c -0.39332,0.1513 -1.64646,0.4455 -2.35454,0.55279 -1.45065,0.21979 -3.63537,0.28191 -5.36421,0.15252 z"
   id="path38" /><path
   style="fill:#ffffff;stroke-width:0.0220971"
   d="m 351.79068,316.53525 c -0.56778,-0.71503 -1.18407,-1.66074 -1.69559,-2.60194 -0.26541,-0.48836 -0.36572,-0.65591 -0.59252,-0.98962 -0.5603,-0.82444 -1.3648,-1.6455 -2.1935,-2.23864 -1.06086,-0.7593 -2.2739,-1.27534 -3.61098,-1.53616 l -0.20992,-0.0409 0.24307,0.0122 c 0.53416,0.0269 1.19583,0.13922 1.67379,0.2841 1.1387,0.34516 2.17683,1.03766 3.16531,2.1115 0.72179,0.78412 1.31097,1.55321 2.24369,2.92879 0.6629,0.97764 1.00369,1.44367 1.47382,2.01543 l 0.20441,0.24859 h -0.27402 -0.27402 z"
   id="path39" /><path
   style="fill:#ffffff;stroke-width:0.0441942"
   d="m 388.52987,316.42158 c 0.73906,-2.14476 3.56084,-10.45302 3.56084,-10.48432 0,-0.0531 -0.007,-0.054 -2.276,-0.29151 -2.27222,-0.23781 -3.31198,-0.36883 -4.552,-0.57362 -5.96174,-0.98459 -12.66345,-2.92768 -18.03122,-5.22797 -2.52021,-1.07999 -5.52749,-2.62972 -7.11527,-3.66666 -1.98487,-1.29627 -3.26022,-2.4919 -7.40028,-6.93768 -1.95726,-2.1018 -2.37572,-2.53009 -2.47186,-2.52996 -0.43282,5.9e-4 -8.03979,-0.36922 -8.62433,-0.41927 -0.52543,-0.045 -0.59887,-0.0569 -0.26395,-0.0429 2.42263,0.10142 3.0356,0.11508 4.04376,0.0901 1.88418,-0.0466 3.83235,-0.18794 4.97673,-0.36097 l 0.15956,-0.0241 0.48643,0.6994 c 3.11072,4.47259 6.49208,7.75749 10.39767,10.10106 5.15957,3.09602 11.54716,5.5438 18.58365,7.12142 3.43842,0.77091 7.16225,1.31021 11.81275,1.71079 0.4157,0.0358 0.62534,0.0708 0.61325,0.10226 -0.0101,0.0263 -0.16119,0.50521 -0.33577,1.06421 -0.72242,2.31317 -1.39929,4.39942 -2.30133,7.09306 l -0.95457,2.85053 -0.20583,0.0134 -0.20584,0.0134 z"
   id="path40" /><path
   style="fill:#ffffff;stroke-width:0.03125"
   d="m 364.21657,273.61784 c -0.20052,-0.30255 -0.27828,-0.37723 -0.27996,-0.26888 -4.9e-4,0.0315 -0.0685,-0.10443 -0.15117,-0.30209 -0.82432,-1.97132 -2.32331,-3.58462 -4.22294,-4.545 -0.77525,-0.39193 -1.42221,-0.61973 -2.28125,-0.80326 l -0.42188,-0.0901 0.26563,0.0184 c 0.14609,0.0101 0.44844,0.052 0.67187,0.093 2.37651,0.43639 4.12831,1.83959 5.77259,4.62386 0.29364,0.49721 0.87285,1.55248 0.85947,1.56586 -0.006,0.006 -0.10184,-0.12502 -0.21236,-0.29177 z"
   id="path41" /><path
   style="fill:#ffffff;stroke-width:0.03125"
   d="m 370.70312,231.77643 c -0.0344,-0.007 -0.21718,-0.0426 -0.40625,-0.0785 -1.34782,-0.25622 -3.16028,-1.16657 -4.37084,-2.19536 -1.49292,-1.26874 -6.95965,-3.99039 -18.01978,-8.97129 -3.73139,-1.68042 -10.68769,-4.76 -13.95017,-6.1758 l -0.74704,-0.32419 0.3968,-0.009 0.39679,-0.009 1.49087,0.65509 c 0.81998,0.3603 2.62994,1.16365 4.02212,1.78524 6.66978,2.97792 8.41174,3.74986 16.35938,7.2495 2.15703,0.94982 4.82187,2.12763 5.92187,2.61736 1.1,0.48972 2.11611,0.9413 2.25802,1.00349 0.23269,0.10198 0.29096,0.14681 0.59375,0.45683 0.18465,0.18906 0.42714,0.4632 0.53886,0.60919 0.25695,0.33577 0.95632,1.03844 1.34375,1.35008 0.96054,0.77265 2.17921,1.38937 3.35112,1.69586 0.46094,0.12055 0.99634,0.22097 1.39888,0.26237 l 0.26562,0.0273 -0.375,0.007 c -0.24155,0.005 -0.3472,0.0162 -0.29687,0.0323 0.0758,0.0243 0.0754,0.025 -0.0156,0.0245 -0.0516,-2.8e-4 -0.12187,-0.006 -0.15625,-0.0137 z"
   id="path42" /><path
   style="fill:#ffffff;stroke-width:0.0220971"
   d="m 332.79318,213.85309 c -0.71067,-0.31359 -6.27644,-2.73258 -7.03793,-3.05882 -4.6873,-2.00818 -8.29071,-3.36856 -10.33038,-3.89998 -0.73722,-0.19208 -1.24896,-0.27525 -1.69709,-0.27582 -1.01551,-0.001 -2.04953,-0.17232 -2.86397,-0.47371 -1.1534,-0.42684 -2.11704,-1.06313 -3.48208,-2.29922 -0.30264,-0.27405 -0.52616,-0.45341 -0.8178,-0.65623 -0.71532,-0.49748 -2.13214,-1.20636 -3.33059,-1.66642 l -0.28121,-0.10794 -5.3e-4,-0.22557 -5.4e-4,-0.22556 0.33698,0.11841 c 0.79291,0.2786 1.79747,0.64978 2.50358,0.92507 0.17074,0.0666 0.43922,0.18582 0.59662,0.26501 l 0.28618,0.14397 0.18084,0.26168 c 0.44368,0.64204 1.0836,1.34133 1.66918,1.82406 2.08365,1.71767 4.82734,2.41941 7.45682,1.90717 l 0.26913,-0.0524 0.71419,0.3048 c 0.3928,0.16764 1.44008,0.61825 2.32728,1.00136 0.88719,0.38311 3.47753,1.4974 5.75629,2.4762 4.12081,1.77002 5.67134,2.43898 7.7981,3.36443 l 1.11373,0.48464 -0.16356,0.0137 c -0.0899,0.008 -0.26796,0.0144 -0.39557,0.0153 l -0.23202,0.002 z"
   id="path43" /><path
   style="fill:#ffffff;stroke-width:0.0220971"
   d="m 365.71784,208.64632 c -0.93582,-0.42386 -3.17812,-1.44033 -4.9829,-2.25882 -6.2727,-2.84476 -8.63892,-3.91372 -13.03728,-5.88971 -2.6491,-1.19012 -5.20805,-2.34397 -8.16377,-3.6811 l -1.65618,-0.74924 0.37841,-0.006 0.37841,-0.006 3.76369,1.70434 c 12.60142,5.70637 16.21665,7.33608 20.65692,9.31193 2.77641,1.23546 4.07699,1.80107 4.14141,1.80107 0.0139,0 0.0378,-0.0323 0.0532,-0.0718 0.31264,-0.80307 1.82792,-4.94814 4.20451,-11.50152 l 0.45075,-1.24294 0.16994,-2e-5 0.16993,-2e-5 -0.0515,0.14916 c -0.12629,0.36577 -4.74484,13.16394 -4.75863,13.18633 -0.0103,0.0168 -0.579,-0.23016 -1.71692,-0.74557 z"
   id="path44" /><path
   style="fill:#ffffff;stroke-width:0.03125"
   d="m 337,195.66659 c -2.56072,-1.16328 -7.99148,-3.59269 -9.14063,-4.089 -0.17187,-0.0742 -0.31717,-0.13845 -0.32288,-0.14271 -0.006,-0.004 1.87743,-3.53861 4.18477,-7.85412 l 4.19516,-7.84639 h 0.18305 0.18305 l -0.0675,0.13282 c -0.0371,0.073 -0.64017,1.20859 -1.34004,2.52343 -4.01835,7.5492 -4.84119,9.12507 -5.31631,10.18161 -0.65424,1.45484 -1.01366,2.53288 -0.95274,2.85762 l 0.0204,0.10904 1.30402,0.58667 c 2.51617,1.13199 8.61518,3.89393 8.6288,3.90755 0.008,0.008 -0.15381,0.0129 -0.35863,0.0117 l -0.3724,-0.002 z"
   id="path45" /><path
   style="fill:#ffffff;stroke-width:0.015625"
   d="m 396.11495,63.121474 c 6.31609,-11.816374 7.33081,-13.707412 7.35531,-13.707412 0.0146,0 0.21189,-0.06008 0.43833,-0.133518 1.48839,-0.48268 2.72723,-0.738583 4.09141,-0.845145 0.41317,-0.03227 1.3889,-0.03688 1.76562,-0.0083 1.61441,0.122318 3.02534,0.495879 4.45313,1.179017 0.16357,0.07826 0.19227,0.09873 0.31999,0.22823 l 0.1403,0.142257 h 0.1437 c 0.1412,0 0.14789,0.0017 0.38314,0.09978 2.42076,1.008857 4.78819,2.749075 6.06055,4.454904 0.61016,0.818036 0.94925,1.59578 1.01515,2.328415 0.0309,0.343979 0.11593,0.07926 -1.16868,3.640335 l -1.15548,3.203125 -0.23652,0.0043 c -0.1428,0.0026 -0.23653,-0.0016 -0.23653,-0.0106 0,-0.0082 0.22913,-0.660536 0.50918,-1.449625 0.9563,-2.694594 1.46754,-4.146991 1.76727,-5.020647 0.17615,-0.513459 0.17942,-0.525522 0.17167,-0.632812 -0.0486,-0.672783 -0.99549,-1.866612 -2.51062,-3.165482 -0.7069,-0.606005 -1.6217,-1.288254 -2.42968,-1.812033 -1.14851,-0.744524 -1.99916,-1.189897 -3.46268,-1.812948 -2.18033,-0.928212 -3.40752,-1.172366 -5.21265,-1.037068 -1.83636,0.137639 -4.11921,0.617402 -4.4093,0.926657 -0.0603,0.06432 -0.17268,0.263932 -0.94679,1.682124 -1.06349,1.948364 -4.29618,7.931316 -6.27696,11.617187 l -0.38206,0.710938 -0.25114,0.0043 -0.25114,0.0043 z"
   id="path46" /><path
   style="fill:#ffffff;stroke-width:0.0625"
   d="m 373.36444,106.51575 c 0.13658,-0.24929 2.7438,-5.10794 5.79383,-10.797 16.19134,-30.20093 24.5664,-45.734008 24.7896,-45.976892 0.49,-0.533193 4.70361,-1.135614 6.30511,-0.901443 1.26642,0.185176 2.84694,0.750871 4.74766,1.699277 3.38461,1.688815 7.00315,4.93081 6.85749,6.143889 -0.0469,0.390778 -3.11477,9.018409 -13.88028,39.035169 l -4.0236,11.21875 -15.41907,0.0157 -15.41907,0.0157 z"
   id="path47" /><path
   style="fill:#ffffff;stroke-width:0.015625"
   d="m 389.73684,75.055783 c 0.003,-0.0085 1.36589,-2.561053 3.02878,-5.672429 2.22209,-4.157669 3.03172,-5.659238 3.05469,-5.665312 0.0172,-0.0045 0.13063,-0.0062 0.25208,-0.0038 l 0.22083,0.0045 -1.21545,2.257812 c -0.66851,1.241797 -2.04112,3.794141 -3.05026,5.671875 l -1.83481,3.414063 -0.23061,0.0043 c -0.14639,0.0027 -0.22865,-0.0013 -0.22525,-0.01105 z"
   id="path48" /><path
   style="fill:#ffffff;stroke-width:0.015625"
   d="m 414.2047,78.464844 c 0.0621,-0.162538 3.89074,-10.8805 4.93681,-13.820313 l 0.3322,-0.933594 h 0.24138 c 0.22351,0 0.24059,0.002 0.23075,0.02734 -0.0148,0.03799 -5.27221,14.621134 -5.3007,14.703125 l -0.0231,0.06641 h -0.21689 -0.2169 z"
   id="path49" /><path
   style="fill:#ffffff;stroke-width:0.03125"
   d="m 373.37968,105.67453 c 0.006,-0.0175 3.68791,-6.908795 8.18198,-15.314076 l 8.17104,-15.282329 h 0.21178 c 0.11647,0 0.21177,0.0074 0.21177,0.01649 0,0.0091 -1.01741,1.911021 -2.26092,4.226563 -2.91789,5.433433 -5.53989,10.320636 -10.29787,19.194451 l -3.84543,7.171871 -0.19164,0.009 c -0.11997,0.006 -0.18756,-0.002 -0.18071,-0.0223 z"
   id="path50" /><path
   style="fill:#ffffff;stroke-width:0.0220971"
   d="m 405.81135,101.89604 c 0.0224,-0.0643 0.83648,-2.3343 1.80904,-5.044508 1.50045,-4.181248 4.58612,-12.789848 6.11386,-17.056835 0.23539,-0.657447 0.4348,-1.21276 0.44313,-1.234029 0.0129,-0.03304 0.0456,-0.03867 0.22419,-0.03867 0.18917,0 0.20785,0.0037 0.19642,0.03867 -0.007,0.02127 -1.91061,5.303853 -4.23038,11.739078 l -4.21775,11.700404 -0.18963,0.006 -0.18963,0.006 z"
   id="path51" /><path
   style="fill:#ffffff;stroke-width:0.0441942"
   d="m 330.23906,187.23967 c 0.13707,-0.35754 13.42461,-25.26546 30.88471,-57.89437 l 0.26605,-0.49719 H 378.729 c 11.29124,0 17.33919,0.0151 17.33919,0.0433 0,0.0238 -0.0291,0.11828 -0.0646,0.20993 -0.0355,0.0916 -2.53292,7.02776 -5.54976,15.41361 -4.77536,13.27389 -15.09551,41.90989 -15.34186,42.57004 l -0.0866,0.23202 h -22.408 c -21.32279,0 -22.40656,-0.004 -22.37835,-0.0773 z"
   id="path52" /><path
   style="fill:#ffffff;stroke-width:0.0441942"
   d=""
   id="path53" /><path
   style="fill:#ffffff;stroke-width:0.03125"
   d="m 337.08926,173.53906 c 0.0858,-0.15898 5.05793,-9.45781 11.04912,-20.66406 l 10.89309,-20.375 0.17177,-0.009 c 0.0945,-0.005 0.17176,4.8e-4 0.17176,0.0125 0,0.012 -0.12127,0.24829 -0.26949,0.525 -3.69765,6.90299 -16.31511,30.51116 -19.83904,37.12028 l -1.96199,3.67968 h -0.18562 -0.18563 z"
   id="path54" /><path
   style="fill:#ffffff;stroke-width:0.03125"
   d="m 359.0625,132.46362 c 0,-0.0114 2.7457,-5.15793 6.10156,-11.43669 l 6.10156,-11.41594 0.18304,-8.1e-4 c 0.16073,-7.1e-4 0.1805,0.006 0.16231,0.0532 -0.0114,0.0297 -2.76414,5.17657 -6.11722,11.4375 l -6.0965,11.38352 h -0.16738 c -0.0921,0 -0.16737,-0.009 -0.16737,-0.0208 z"
   id="path55" /><path
   style="fill:#ffffff;stroke-width:0.0220971"
   d="m 371.62155,109.62007 c -0.009,-0.009 -0.0896,-0.0219 -0.17897,-0.0285 l -0.16254,-0.0121 0.99342,-1.85615 c 0.54639,-1.02089 1.01515,-1.89593 1.0417,-1.94455 l 0.0483,-0.0884 0.18987,0.011 0.18986,0.011 -1.01396,1.8893 c -0.55769,1.03912 -1.03136,1.92203 -1.0526,1.96202 -0.0213,0.04 -0.046,0.0653 -0.055,0.0563 z"
   id="path56" /><path
   style="fill:#ffffff;stroke-width:0.03125"
   d="m 335.93812,175.7125 c 3.5e-4,-0.0138 0.22321,-0.43984 0.49525,-0.94688 l 0.49463,-0.92187 0.17662,-0.009 c 0.0971,-0.005 0.17637,0.002 0.17605,0.0156 -3.2e-4,0.0138 -0.22181,0.43984 -0.49221,0.94687 l -0.49162,0.92188 -0.17967,0.009 c -0.0988,0.005 -0.17939,-0.002 -0.17905,-0.0156 z"
   id="path57" /><path
   style="fill:#ffffff;stroke-width:0.0244141"
   d="m 393.2399,136.88355 c 0.0672,-0.17504 6.95999,-19.35287 9.81439,-27.30679 l 1.76749,-4.9252 0.19065,-3.4e-4 c 0.10486,-1.9e-4 0.18521,0.008 0.17856,0.0192 -0.008,0.0134 -11.18282,30.99947 -11.61705,32.21311 -0.0231,0.0644 -0.0309,0.0671 -0.19193,0.0671 h -0.16791 z"
   id="path58" /><path
   style="fill:#ffffff;stroke-width:0.0172633"
   d="m 388.80515,149.21031 c 0,-0.004 0.0458,-0.13409 0.10183,-0.28978 0.056,-0.1557 1.03569,-2.87777 2.17708,-6.04905 1.14138,-3.17128 2.0866,-5.79847 2.10048,-5.83821 l 0.0252,-0.0722 0.17123,-0.005 c 0.16455,-0.005 0.17079,-0.004 0.16022,0.0291 -0.006,0.019 -0.99943,2.77681 -2.20752,6.12849 l -2.19652,6.09396 -0.16602,0.005 c -0.0913,0.003 -0.16603,0.002 -0.16603,-0.002 z"
   id="path59" /><path
   style="fill:#ffffff;stroke-width:0.0244141"
   d="m 404.83399,104.6371 c 0,-0.008 0.21063,-0.60084 0.46806,-1.31836 l 0.46807,-1.30458 h 0.17891 c 0.0984,0 0.1789,0.01 0.1789,0.0216 0,0.0119 -0.20874,0.60062 -0.46386,1.30833 -0.25513,0.7077 -0.46387,1.29124 -0.46387,1.29676 0,0.006 -0.0824,0.01 -0.18311,0.01 -0.10071,0 -0.1831,-0.006 -0.1831,-0.0138 z"
   id="path60" /><path
   style="fill:#ffffff;stroke-width:0.0244141"
   d="m 384.375,161.52641 c 0,-0.005 0.97901,-2.72694 2.17557,-6.04858 1.19657,-3.32164 2.19186,-6.08604 2.21177,-6.14311 l 0.0362,-0.10376 h 0.15924 c 0.13975,0 0.15784,0.005 0.1478,0.0427 -0.009,0.0353 -4.35054,12.08548 -4.40199,12.21924 -0.0133,0.0345 -0.0464,0.0427 -0.17251,0.0427 -0.0858,0 -0.15608,-0.004 -0.15608,-0.009 z"
   id="path61" /><path
   style="fill:#ffffff;stroke-width:0.012207"
   d="m 381.32158,169.96765 c 0.0123,-0.0319 0.70271,-1.94603 1.53421,-4.25364 1.20563,-3.34588 1.51505,-4.19299 1.52774,-4.18246 0.0103,0.009 0.0678,0.0114 0.16238,0.008 0.0806,-0.003 0.14648,-0.002 0.14648,9.7e-4 0,0.003 -0.68763,1.91396 -1.52806,4.24567 l -1.52806,4.23946 h -0.16854 -0.16854 z"
   id="path62" /><path
   style="fill:#ffffff;stroke-width:0.00863167"
   d="m 379.24516,175.72166 c 0.008,-0.0214 2.00609,-5.56115 2.04368,-5.66688 l 0.008,-0.0237 h 0.16748 c 0.0921,0 0.16741,0.003 0.16734,0.006 -8e-5,0.004 -0.46152,1.28633 -1.02544,2.85061 l -1.0253,2.84413 -0.17104,0.002 c -0.16069,0.002 -0.1707,0.001 -0.16516,-0.0129 z"
   id="path63" /><path
   style="fill:#ffffff;stroke-width:0.0172633"
   d="m 373.64793,191.24226 c 0,-0.005 0.51595,-1.43672 1.14656,-3.18077 1.11132,-3.07353 4.24263,-11.74638 4.37976,-12.1307 l 0.0678,-0.18989 0.16419,-6.8e-4 c 0.11516,-4.7e-4 0.16273,0.005 0.15931,0.0191 -0.003,0.0109 -1.2595,3.50106 -2.79291,7.75593 l -2.78803,7.73612 -0.16832,3e-4 c -0.0926,1.7e-4 -0.16832,-0.004 -0.16832,-0.009 z"
   id="path64" /><path
   style="fill:#ffffff;stroke-width:0.0345267"
   d=""
   id="path65" /><path
   style="fill:#ffffff;stroke-width:0.012207"
   d="m 371.91743,196.00558 c 0.018,-0.0459 0.23809,-0.65344 1.2096,-3.33895 l 0.51115,-1.41297 h 0.17358 0.17358 l -0.0302,0.0824 c -0.0166,0.0453 -0.40532,1.12335 -0.86379,2.39563 l -0.83358,2.31323 -0.1792,0.003 -0.17921,0.003 z"
   id="path66" /><path
   style="fill:#ffffff;stroke-width:0.0488281"
   d="m 302.09961,201.08995 c -2.24102,-0.81406 -5.64359,-1.68308 -8.74023,-2.23227 l -1.04981,-0.18619 0.008,-0.15713 c 0.004,-0.0864 0.0192,-0.16874 0.0334,-0.18294 0.0723,-0.0723 3.19224,0.54709 4.93949,0.98055 1.61711,0.40118 2.85585,0.75491 4.40674,1.25837 l 1.23291,0.40024 v 0.21051 c 0,0.11578 -0.005,0.20849 -0.0122,0.20602 -0.007,-0.002 -0.37475,-0.13619 -0.81787,-0.29716 z"
   id="path67" /><path
   style="fill:#ffffff;stroke-width:0.0345267"
   d="m 321.33827,252.32945 c -0.36114,-0.48329 -1.04043,-1.18538 -1.51657,-1.56749 -0.68711,-0.55141 -1.45788,-1.00828 -2.27661,-1.34945 l -0.36557,-0.15234 0.18989,0.0209 c 0.28065,0.0309 0.8679,0.18239 1.14667,0.29583 0.73093,0.29746 1.59009,1.02676 2.33802,1.98464 0.31798,0.40723 0.81068,1.11957 0.78922,1.14103 -0.008,0.008 -0.14553,-0.15965 -0.30505,-0.37311 z"
   id="path68" /></svg>
