<svg version="1.1" id="Layer_1" xmlns="http://www.w3.org/2000/svg"
	xmlns:xlink="http://www.w3.org/1999/xlink" x="0px" y="0px"
	width="100%" viewBox="0 0 500 500" enable-background="new 0 0 500 500" xml:space="preserve">
	<rect x="0" y="0" width="100%" height="100%" rx="100" fill="#FFB900"/>

<!-- Trash can body (without lid) -->
<g fill="#2F4F4F">
<!-- Trash body -->
<path opacity="1.000000" stroke="none"
	d="
M120,160
	L120,440
	C120,455 130,465 145,465
	L355,465
	C370,465 380,455 380,440
	L380,160
z"/>

<!-- Top rim -->
<rect x="115" y="150" width="270" height="15" rx="7" fill="#2F4F4F"/>
</g>

<!-- Vertical lines on trash -->
<g fill="none" stroke="#FEFEFF" stroke-width="10" stroke-linecap="round">
<path d="M170,175 L170,435"/>
<path d="M250,175 L250,435"/>
<path d="M330,175 L330,435"/>
</g>

<!-- Lid (opened, rotated) -->
<g fill="#2F4F4F" transform="translate(400, 100) rotate(30)">
<!-- Lid -->
<rect x="0" y="0" width="120" height="20" rx="10" fill="#2F4F4F"/>
<!-- Lid handle -->
<rect x="30" y="-20" width="60" height="25" rx="12" fill="#2F4F4F"/>
</g>

<!-- Envelope going into trash -->
<g>
<rect x="200" y="50" width="120" height="80" rx="8" fill="#FEFEFF"/>
<path d="M210 60 L260 95 L310 60" fill="none" stroke="#2F4F4F" stroke-width="7" stroke-linecap="round" stroke-linejoin="round"/>
</g>

</svg>
