<svg version="1.1" id="Layer_1" xmlns="http://www.w3.org/2000/svg"
	xmlns:xlink="http://www.w3.org/1999/xlink" x="0px" y="0px"
	width="100%" viewBox="0 0 500 500" enable-background="new 0 0 500 500" xml:space="preserve">
	<rect x="0" y="0" width="100%" height="100%" rx="100" fill="#FFB900"/>

<!-- Folder opened (from OpenFolder.svg, scaled and positioned) -->
<g fill="#2F4F4F" transform="translate(50, 120) scale(7.5)">
    <path d="M 5 4 C 3.346 4 2 5.346 2 7 L 2 32.970703 L 5.0136719 18.632812 C 5.2036719 16.019812 7.357 14 10 14 L 45 14 L 45 11 C 45 9.346 43.654 8 42 8 L 18.044922 8.0058594 C 17.765922 7.9048594 17.190859 6.9861875 16.880859 6.4921875 C 16.111859 5.2671875 15.317 4 14 4 L 5 4 z M 10 16 C 8.381 16 7.0579531 17.288531 7.0019531 18.894531 L 2.046875 42.472656 C 1.889875 43.348656 2.1282188 44.243781 2.6992188 44.925781 C 3.2702187 45.607781 4.1109531 46 5.0019531 46 L 41.488281 46 C 43.430281 46 45.086781 44.613125 45.425781 42.703125 L 49.984375 19.175781 L 50 19 C 50 17.346 48.654 16 47 16 L 10 16 z"/>
</g>

<!-- Envelopes going into folder -->
<g>
<!-- Envelope 1 (partially in folder) -->
<g opacity="0.9">
<rect x="230" y="155" width="100" height="65" rx="7" fill="#FEFEFF"/>
<path d="M240 165 L280 195 L320 165" fill="none" stroke="#2F4F4F" stroke-width="6" stroke-linecap="round" stroke-linejoin="round"/>
</g>

<!-- Envelope 2 (entering folder) -->
<g opacity="1.0">
<rect x="90" y="50" width="110" height="75" rx="7" fill="#FEFEFF"/>
<path d="M100 60 L145 90 L190 60" fill="none" stroke="#2F4F4F" stroke-width="6" stroke-linecap="round" stroke-linejoin="round"/>
</g>

<!-- Envelope 3 (above, waiting) -->
<g opacity="1.0">
<rect x="300" y="25" width="130" height="90" rx="8" fill="#FEFEFF"/>
<path d="M310 35 L365 75 L420 35" fill="none" stroke="#2F4F4F" stroke-width="7" stroke-linecap="round" stroke-linejoin="round"/>
</g>
</g>

</svg>
