<svg version="1.1" id="Layer_1" xmlns="http://www.w3.org/2000/svg"
	xmlns:xlink="http://www.w3.org/1999/xlink" x="0px" y="0px"
	width="100%" viewBox="0 0 500 500" enable-background="new 0 0 500 500" xml:space="preserve">
	<rect x="0" y="0" width="100%" height="100%" rx="100" fill="#FFB900"/>

	<!-- Broom (from Broom-inv.svg, without circles, centered) -->
<g fill="#2F4F4F" stroke="#FEFEFF" stroke-width="0.5" transform="translate(-10, 25) scale(9)">
    <path d="M 46.4375 0.03125 C 45.539209 0.039257813 44.696875 0.4 44.21875 1.125 L 36.625 15.40625 C 37.188 15.60125 38.45325 16.1625 42.65625 18.0625 L 42.71875 18.09375 C 43.44675 18.42275 44.00075 18.657 44.21875 18.75 C 44.29475 18.785 44.3615 18.839 44.4375 18.875 L 49.96875 3.5625 C 50.31475 2.3525 49.4495 0.95825 48.0625 0.40625 C 47.54875 0.149 46.976475 0.026445312 46.4375 0.03125 z M 32.15625 16.625 C 30.221172 16.768516 28.539375 17.731875 27.34375 19.40625 C 28.09875 20.67725 29.41725 22.2285 31.28125 22.1875 C 31.77225 22.1665 32.18725 22.523 32.28125 23 C 32.65825 23.591 34.98825 24.635 35.65625 24.375 C 35.93825 24.267 36.239 24.2895 36.5 24.4375 C 36.761 24.5865 36.95 24.828 37 25.125 C 37.04 25.288 37.476 25.86325 38.375 26.28125 C 39.081 26.60825 39.77025 26.693 40.15625 26.5 C 40.40625 26.376 40.6785 26.37275 40.9375 26.46875 C 41.1985 26.56775 41.42625 26.77325 41.53125 27.03125 C 42.20525 28.68025 45.29425 28.8 47.40625 28.625 C 47.71425 27.286 47.63425 25.88875 47.15625 24.59375 C 46.49525 22.80675 45.18625 21.39775 43.40625 20.59375 C 43.21725 20.51275 42.61475 20.223 41.84375 19.875 C 38.28275 18.266 36.269 17.38925 35.875 17.28125 C 34.570375 16.765625 33.317297 16.538891 32.15625 16.625 z M 26.28125 21.40625 C 25.96925 22.14725 25.614 22.845 25.25 23.5 C 25.68 24.548 26.94825 26.9735 29.28125 26.4375 C 29.55025 26.3745 29.8345 26.4095 30.0625 26.5625 C 30.2915 26.7135 30.42175 26.94875 30.46875 27.21875 C 30.53475 27.59275 30.97575 28.041 31.59375 28.375 C 32.46775 28.849 33.4125 28.95425 33.8125 28.78125 C 34.0755 28.66925 34.367 28.65825 34.625 28.78125 C 34.884 28.90225 35.07625 29.13225 35.15625 29.40625 C 35.29625 29.88125 35.78775 30.37175 36.46875 30.71875 C 37.26775 31.12575 38.18225 31.2735 38.78125 31.0625 C 39.24325 30.9005 39.73375 31.09725 39.96875 31.53125 C 40.84975 33.16825 43.751 33.3455 46 33.1875 C 46.284 32.3765 46.5515 31.53925 46.8125 30.65625 C 46.5415 30.67025 46.26175 30.6875 45.96875 30.6875 C 43.87475 30.6875 41.372 30.2725 40.125 28.5625 C 39.282 28.6775 38.31175 28.493 37.34375 28 C 36.63875 27.642 35.86625 27.08825 35.40625 26.40625 C 34.13325 26.40525 32.6685 25.7 31.9375 25.25 C 31.3715 24.901 30.92825 24.5595 30.65625 24.1875 C 28.67225 24.0045 27.25325 22.71125 26.28125 21.40625 z M 24 25.46875 C 17.8 34.08275 7.21675 33.8295 7.09375 33.8125 C 6.69975 33.7755 6.314 33.98975 6.125 34.34375 C 5.937 34.69775 5.96675 35.1245 6.21875 35.4375 C 8.00375 37.6405 9.923 39.50575 11.875 41.09375 C 12.796 41.27875 18.59875 42.0995 24.34375 35.4375 C 24.70475 35.0195 25.332 34.98375 25.75 35.34375 C 26.168 35.70375 26.20375 36.331 25.84375 36.75 C 21.83675 41.396 17.60925 42.84625 14.65625 43.15625 C 17.12525 44.82125 19.6135 46.07725 21.9375 47.03125 C 23.4125 46.72325 28.368 45.2405 32.75 38.5625 C 33.053 38.1025 33.69625 37.946 34.15625 38.25 C 34.61825 38.553 34.7405 39.19425 34.4375 39.65625 C 31.1315 44.69325 27.51675 47.05325 24.96875 48.15625 C 30.16675 49.84125 34.047 49.99 34.375 50 L 34.40625 50 C 34.59425 50 34.7775 49.94375 34.9375 49.84375 C 35.2175 49.66675 41.008 45.886 45.25 35.25 C 45.086 35.255 44.918 35.28125 44.75 35.28125 C 42.562 35.28125 40.03325 34.84 38.65625 33.125 C 37.68725 33.244 36.5795 33.02 35.5625 32.5 C 34.7335 32.076 34.07925 31.50275 33.65625 30.84375 C 32.59225 30.93275 31.44625 30.552 30.65625 30.125 C 29.84325 29.685 29.20575 29.13 28.84375 28.5 C 26.54375 28.621 24.946 27.05575 24 25.46875 z"/>
</g>

</svg>