<svg width="48" height="48" viewBox="0 0 48 48" fill="none" xmlns="http://www.w3.org/2000/svg">
  <!-- Background circle -->
  <circle cx="24" cy="24" r="22" fill="#FFB900" stroke="#2F4F4F" stroke-width="2"/>
  
  <!-- Parking sign background -->
  <rect x="10" y="6" width="28" height="36" rx="3" fill="#2F4F4F"/>
  
  <!-- Letter P -->
  <path d="M14 10h10c2.2 0 4 1.8 4 4s-1.8 4-4 4h-6v10h-4V10z" fill="#FFB900"/>
  
  <!-- Car silhouette -->
  <path d="M16 28c0-1.1 0.9-2 2-2h12c1.1 0 2 0.9 2 2v2c0 1.1-0.9 2-2 2H18c-1.1 0-2-0.9-2-2v-2z" fill="#FFB900"/>
  <circle cx="20" cy="32" r="2" fill="#2F4F4F"/>
  <circle cx="28" cy="32" r="2" fill="#2F4F4F"/>
</svg>