<svg version="1.1" id="Layer_1" xmlns="http://www.w3.org/2000/svg"
	xmlns:xlink="http://www.w3.org/1999/xlink" x="0px" y="0px"
	width="100%" viewBox="0 0 500 500" enable-background="new 0 0 500 500" xml:space="preserve">
	<rect x="0" y="0" width="100%" height="100%" rx="100" fill="#FFB900"/>

<!-- Broom (rotated) -->
<g transform="rotate(-35 250 250)">
<g fill="#2F4F4F">
<!-- Broom handle -->
<rect x="230" y="20" width="40" height="240" rx="20" fill="#2F4F4F"/>

<!-- Broom ferrule -->
<rect x="185" y="255" width="130" height="28" rx="10" fill="#2F4F4F"/>

<!-- Broom bristles (much larger) -->
<path opacity="1.000000" stroke="none"
	d="
M185,283
	L140,320
	L145,440
	L175,465
	L205,460
	L235,465
	L265,460
	L295,465
	L325,460
	L355,465
	L360,320
	L315,283
z"/>
</g>

<!-- Bristle details in white -->
<g fill="none" stroke="#FEFEFF" stroke-width="7" stroke-linecap="round">
<path d="M155,330 L160,455"/>
<path d="M185,325 L190,460"/>
<path d="M215,322 L220,463"/>
<path d="M250,320 L255,465"/>
<path d="M285,322 L290,463"/>
<path d="M315,325 L320,460"/>
<path d="M345,330 L350,455"/>
</g>
</g>

</svg>
