<svg version="1.1" id="Layer_1" xmlns="http://www.w3.org/2000/svg"
	xmlns:xlink="http://www.w3.org/1999/xlink" x="0px" y="0px"
	width="100%" viewBox="0 0 500 500" enable-background="new 0 0 500 500" xml:space="preserve">
	<rect x="0" y="0" width="100%" height="100%" rx="100" fill="#FFB900"/>

<!-- Archive box -->
<g fill="#2F4F4F">
<!-- Box top/lid -->
<path opacity="1.000000" stroke="none"
	d="
M120,150
	L130,180
	L370,180
	L380,150
z"/>

<!-- Box body -->
<path opacity="1.000000" stroke="none"
	d="
M130,185
	L130,400
	C130,415 140,425 155,425
	L345,425
	C360,425 370,415 370,400
	L370,185
z"/>
</g>

<!-- Archive label/handle in white -->
<g fill="#FEFEFF">
<rect x="200" y="220" width="100" height="40" rx="8" fill="#FEFEFF"/>
</g>

<!-- Arrow pointing down into archive -->
<g fill="#2F4F4F">
<path opacity="1.000000" stroke="none"
	d="
M240,240
	L240,285
	L220,285
	L250,315
	L280,285
	L260,285
	L260,240
z"/>
</g>

<!-- Email envelopes stacked -->
<g fill="#FEFEFF" opacity="0.8">
<!-- Envelope 1 -->
<rect x="150" y="310" width="80" height="50" rx="5" fill="#FEFEFF"/>
<path d="M155 315 L190 340 L225 315" fill="none" stroke="#2F4F4F" stroke-width="4" stroke-linecap="round" stroke-linejoin="round"/>

<!-- Envelope 2 -->
<rect x="150" y="365" width="80" height="50" rx="5" fill="#FEFEFF"/>
<path d="M155 370 L190 395 L225 370" fill="none" stroke="#2F4F4F" stroke-width="4" stroke-linecap="round" stroke-linejoin="round"/>

<!-- Envelope 3 -->
<rect x="270" y="310" width="80" height="50" rx="5" fill="#FEFEFF"/>
<path d="M275 315 L310 340 L345 315" fill="none" stroke="#2F4F4F" stroke-width="4" stroke-linecap="round" stroke-linejoin="round"/>

<!-- Envelope 4 -->
<rect x="270" y="365" width="80" height="50" rx="5" fill="#FEFEFF"/>
<path d="M275 370 L310 395 L345 370" fill="none" stroke="#2F4F4F" stroke-width="4" stroke-linecap="round" stroke-linejoin="round"/>
</g>

</svg>
