<?xml version="1.0" encoding="UTF-8" standalone="no"?>
<svg
   version="1.1"
   id="Layer_1"
   x="0px"
   y="0px"
   width="100%"
   viewBox="0 0 500 500"
   enable-background="new 0 0 500 500"
   xml:space="preserve"
   xmlns="http://www.w3.org/2000/svg">
   
   <!-- Background circle -->
   <rect
      x="0"
      y="0"
      width="100%"
      height="100%"
      rx="100"
      fill="#FFB900"
      id="rect1" />

   <!-- Gmail envelope icon -->
   <g transform="translate(10, -50) scale(0.6)">
      <!-- Dark outline for envelope body -->
      <g fill="none" stroke="#2F4F4F" stroke-width="42">
         <path d="
         M80,220
            L80,380
            C80,395 90,405 105,405
            L355,405
            C370,405 380,395 380,380
            L380,220
            C380,205 370,195 355,195
            L105,195
            C90,195 80,205 80,220
         z"/>
      </g>
      
      <g fill="#FEFEFF">
         <!-- Envelope body -->
         <path opacity="1.000000" stroke="none"
            d="
         M80,220
            L80,380
            C80,395 90,405 105,405
            L355,405
            C370,405 380,395 380,380
            L380,220
            C380,205 370,195 355,195
            L105,195
            C90,195 80,205 80,220
         z"/>
      </g>

      <!-- Dark outline for envelope flap -->
      <g fill="none" stroke="#2F4F4F" stroke-width="42">
         <path d="
         M80,220
            L230,320
            L380,220
            L380,200
            C380,185 370,175 355,175
            L105,175
            C90,175 80,185 80,200
            L80,220
         z"/>
      </g>

      <g fill="none" stroke="#2F4F4F">
         <!-- Envelope flap -->
         <path opacity="1.000000" stroke="none"
            d="
         M80,220
            L230,320
            L380,220
            L380,200
            C380,185 370,175 355,175
            L105,175
            C90,175 80,185 80,200
            L80,220
         z"/>
      </g>
   </g>

   <!-- Arrow from envelope to Google Sheets -->
   <g transform="translate(330, 170) rotate(25)">
      <!-- Dark outline for quarter circle arrow path -->
      <path d="M -60 -60 A 90 90 0 0 1 60 60" fill="none" stroke="#2F4F4F" stroke-width="64" stroke-linecap="round"/>
      <!-- Quarter circle arrow path -->
      <path d="M -60 -60 A 90 90 0 0 1 60 60" fill="none" stroke="#ffffff" stroke-width="32" stroke-linecap="round"/>
      <!-- Dark outline for arrow head -->
      <g transform="translate(60, 60) rotate(15)">
         <path d="M -35 -35 L 0 0 L 35 -35" fill="none" stroke="#2F4F4F" stroke-width="64" stroke-linecap="round" stroke-linejoin="round"/>
      </g>
      <!-- Arrow head -->
      <g transform="translate(60, 60) rotate(15)">
         <path d="M -35 -35 L 0 0 L 35 -35" fill="none" stroke="#ffffff" stroke-width="32" stroke-linecap="round" stroke-linejoin="round"/>
      </g>
   </g>

   <!-- Google Sheets group -->
   <g transform="translate(110, 220) scale(2.8)">
      <!-- Small right triangle behind Google Sheets -->
      <g transform="translate(59, 30) rotate(-90)">
         <path d="M 0 0 L 20 0 L 0 20 Z" fill="#ffffff"/>
      </g>
      
      <!-- White background for Google Sheets -->
      <rect x="20" y="30" width="60" height="60" fill="#ffffff" rx="4"/>
      <!-- Second white rectangle on top part -->
      <rect x="20" y="10" width="40" height="25" fill="#ffffff" rx="4"/>
      
      <svg width="100px" height="100px" viewBox="0 0 192 192" xmlns="http://www.w3.org/2000/svg" fill="none">
         <path stroke="#2F4F4F" stroke-linejoin="round" stroke-width="12" d="M96 89H68v24m28-24h28v24M96 89v48m0 0h28v-24m-28 24H68v-24m56 0H68"/>
         <path fill="#2F4F4F" fill-rule="evenodd" d="M52 28a2 2 0 0 0-2 2v132a2 2 0 0 0 2 2h88a2 2 0 0 0 2-2V62h-28a6 6 0 0 1-6-6V28H52Zm68 8.485L133.515 50H120V36.485ZM38 30c0-7.732 6.268-14 14-14h62c1.591 0 3.117.632 4.243 1.757l34 34A6 6 0 0 1 154 56v106c0 7.732-6.268 14-14 14H52c-7.732 0-14-6.268-14-14V30Z" clip-rule="evenodd"/>
      </svg>
   </g>

</svg>